<!-- Generator: Adobe Illustrator 17.0.0, SVG Export Plug-In  --><svg version="1.1"	 xmlns="http://www.w3.org/2000/svg" xmlns:xlink="http://www.w3.org/1999/xlink" xmlns:a="http://ns.adobe.com/AdobeSVGViewerExtensions/3.0/"	 x="0px" y="0px" width="377.217px" height="28.08px" viewBox="0 0 377.217 28.08" enable-background="new 0 0 377.217 28.08"	 xml:space="preserve"><defs></defs><g>	<g>		<path fill="#038342" d="M10.83,6.24c-0.08-0.86-0.386-1.555-0.916-2.086C9.385,3.625,8.67,3.359,7.77,3.359			c-0.62,0-1.155,0.115-1.605,0.346c-0.449,0.23-0.83,0.535-1.14,0.914C4.715,5,4.465,5.436,4.274,5.925			C4.084,6.415,3.93,6.93,3.81,7.47S3.604,8.545,3.555,9.074C3.504,9.605,3.459,10.1,3.42,10.56l0.06,0.06			c0.46-0.84,1.095-1.465,1.905-1.875C6.194,8.335,7.069,8.13,8.01,8.13c1.039,0,1.969,0.18,2.789,0.54			c0.82,0.359,1.516,0.855,2.086,1.484c0.57,0.631,1.005,1.375,1.305,2.235s0.45,1.79,0.45,2.79c0,1.02-0.165,1.965-0.495,2.835			s-0.805,1.63-1.425,2.28s-1.36,1.154-2.22,1.515c-0.861,0.36-1.811,0.54-2.851,0.54c-1.54,0-2.805-0.285-3.795-0.855			c-0.99-0.569-1.771-1.35-2.34-2.34c-0.57-0.99-0.966-2.149-1.185-3.479C0.109,14.345,0,12.91,0,11.369			c0-1.26,0.135-2.529,0.404-3.81s0.715-2.444,1.335-3.495C2.359,3.015,3.174,2.16,4.185,1.5c1.01-0.66,2.255-0.99,3.735-0.99			c0.84,0,1.629,0.141,2.369,0.42c0.74,0.28,1.396,0.67,1.965,1.17c0.57,0.5,1.035,1.1,1.396,1.801			c0.36,0.699,0.56,1.479,0.601,2.34H10.83z M7.529,19.5c0.62,0,1.16-0.125,1.62-0.375s0.845-0.575,1.155-0.975			c0.31-0.4,0.54-0.865,0.689-1.396c0.15-0.53,0.226-1.075,0.226-1.636c0-0.559-0.075-1.1-0.226-1.619			c-0.149-0.52-0.38-0.975-0.689-1.365c-0.311-0.391-0.695-0.705-1.155-0.945s-1-0.359-1.62-0.359s-1.165,0.115-1.635,0.345			c-0.471,0.229-0.865,0.54-1.186,0.93s-0.56,0.845-0.72,1.365S3.75,14.54,3.75,15.119c0,0.581,0.079,1.131,0.239,1.65			c0.16,0.521,0.399,0.985,0.72,1.395c0.32,0.41,0.715,0.736,1.186,0.976C6.364,19.38,6.909,19.5,7.529,19.5z"/>		<path fill="#038342" d="M17.729,17.88H21.9v4.05h-4.171V17.88z"/>		<path fill="#038342" d="M37.08,14.789c0,0.82,0.139,1.521,0.42,2.101c0.279,0.581,0.67,1.056,1.17,1.425			c0.499,0.371,1.074,0.641,1.725,0.811c0.649,0.17,1.354,0.255,2.115,0.255c0.819,0,1.52-0.095,2.1-0.285s1.05-0.435,1.41-0.735			c0.359-0.3,0.619-0.645,0.779-1.035c0.16-0.39,0.24-0.784,0.24-1.185c0-0.819-0.186-1.425-0.555-1.815			c-0.37-0.39-0.775-0.664-1.215-0.824c-0.76-0.28-1.646-0.545-2.655-0.795c-1.011-0.25-2.255-0.575-3.735-0.976			c-0.92-0.239-1.685-0.555-2.295-0.944c-0.609-0.391-1.095-0.826-1.455-1.306C34.77,9,34.514,8.49,34.364,7.949			c-0.149-0.539-0.226-1.09-0.226-1.649c0-1.08,0.226-2.015,0.676-2.806c0.449-0.789,1.045-1.444,1.785-1.965			c0.739-0.52,1.58-0.904,2.52-1.154S41.01,0,41.969,0c1.121,0,2.176,0.145,3.166,0.435s1.859,0.726,2.609,1.306			s1.346,1.295,1.785,2.145s0.66,1.835,0.66,2.955h-3.75c-0.101-1.381-0.57-2.355-1.41-2.926c-0.84-0.569-1.91-0.854-3.21-0.854			c-0.44,0-0.89,0.045-1.351,0.136c-0.459,0.09-0.88,0.239-1.26,0.449S38.514,4.14,38.264,4.5c-0.25,0.359-0.375,0.81-0.375,1.35			c0,0.76,0.235,1.355,0.705,1.785c0.471,0.43,1.086,0.755,1.846,0.975c0.08,0.021,0.395,0.105,0.945,0.256			c0.549,0.149,1.164,0.314,1.845,0.494c0.68,0.18,1.345,0.355,1.995,0.525c0.649,0.17,1.114,0.295,1.395,0.375			c0.7,0.221,1.311,0.52,1.83,0.9c0.52,0.38,0.955,0.814,1.305,1.305s0.61,1.016,0.78,1.574c0.17,0.561,0.255,1.121,0.255,1.681			c0,1.2-0.244,2.226-0.734,3.075s-1.136,1.545-1.936,2.085s-1.71,0.935-2.73,1.185c-1.02,0.25-2.06,0.375-3.119,0.375			c-1.221,0-2.37-0.15-3.45-0.449c-1.08-0.301-2.021-0.76-2.819-1.381c-0.801-0.619-1.44-1.414-1.92-2.385			c-0.48-0.97-0.73-2.115-0.75-3.436H37.08z"/>		<path fill="#038342" d="M56.25,15.06c0,0.601,0.084,1.181,0.254,1.74s0.426,1.05,0.766,1.47s0.77,0.756,1.289,1.006			c0.521,0.25,1.141,0.375,1.861,0.375c0.999,0,1.805-0.215,2.414-0.646c0.61-0.431,1.065-1.075,1.365-1.935h3.24			c-0.18,0.84-0.49,1.59-0.93,2.25c-0.44,0.659-0.971,1.215-1.59,1.664c-0.621,0.45-1.316,0.791-2.086,1.021			S61.26,22.35,60.42,22.35c-1.221,0-2.301-0.2-3.24-0.6c-0.941-0.4-1.736-0.961-2.385-1.68c-0.65-0.721-1.141-1.58-1.471-2.58			s-0.495-2.101-0.495-3.301c0-1.1,0.175-2.145,0.525-3.135c0.35-0.99,0.85-1.859,1.5-2.609c0.649-0.75,1.435-1.346,2.354-1.785			S59.169,6,60.329,6c1.22,0,2.315,0.255,3.285,0.765c0.97,0.511,1.774,1.185,2.415,2.024c0.64,0.841,1.105,1.806,1.395,2.896			c0.29,1.091,0.365,2.216,0.226,3.375H56.25z M64.229,12.81c-0.04-0.54-0.155-1.06-0.345-1.56c-0.191-0.5-0.451-0.936-0.78-1.305			c-0.33-0.371-0.73-0.67-1.2-0.9c-0.471-0.23-0.995-0.346-1.575-0.346c-0.6,0-1.146,0.105-1.635,0.315			c-0.49,0.21-0.91,0.5-1.261,0.87c-0.35,0.37-0.629,0.805-0.84,1.305c-0.209,0.5-0.324,1.041-0.344,1.62H64.229z"/>		<path fill="#038342" d="M84.6,21.119c0,2.34-0.655,4.086-1.965,5.235c-1.311,1.149-3.195,1.726-5.655,1.726			c-0.78,0-1.565-0.08-2.354-0.24c-0.791-0.16-1.511-0.431-2.16-0.811c-0.65-0.38-1.195-0.88-1.635-1.5			c-0.441-0.619-0.701-1.379-0.781-2.279h3.42c0.101,0.479,0.271,0.869,0.511,1.17c0.239,0.3,0.524,0.535,0.854,0.705			s0.695,0.279,1.096,0.33c0.399,0.049,0.82,0.074,1.26,0.074c1.38,0,2.39-0.34,3.029-1.02c0.641-0.68,0.961-1.66,0.961-2.939			v-2.371h-0.061c-0.479,0.861-1.135,1.53-1.965,2.01c-0.83,0.48-1.725,0.721-2.686,0.721c-1.24,0-2.295-0.215-3.164-0.645			c-0.87-0.43-1.59-1.021-2.16-1.771s-0.985-1.614-1.245-2.595c-0.261-0.98-0.39-2.029-0.39-3.15c0-1.039,0.16-2.029,0.479-2.97			s0.78-1.765,1.38-2.476c0.6-0.709,1.336-1.274,2.205-1.694C74.444,6.209,75.43,6,76.529,6c0.98,0,1.88,0.205,2.7,0.615			c0.819,0.41,1.45,1.055,1.89,1.935h0.061V6.42h3.42V21.119z M77.01,19.229c0.76,0,1.404-0.154,1.935-0.465			c0.53-0.31,0.96-0.72,1.29-1.229s0.57-1.09,0.721-1.74c0.149-0.65,0.225-1.305,0.225-1.965s-0.08-1.301-0.24-1.92			c-0.16-0.62-0.404-1.17-0.734-1.65S79.444,9.4,78.914,9.119c-0.529-0.279-1.165-0.42-1.904-0.42c-0.761,0-1.4,0.16-1.92,0.48			c-0.521,0.32-0.941,0.734-1.26,1.245c-0.32,0.51-0.551,1.091-0.69,1.739c-0.14,0.65-0.21,1.296-0.21,1.936			c0,0.641,0.08,1.266,0.24,1.875c0.159,0.61,0.404,1.155,0.734,1.635c0.33,0.48,0.75,0.87,1.26,1.17			C75.674,19.08,76.289,19.229,77.01,19.229z"/>		<path fill="#038342" d="M101.669,21.93h-3.36v-2.16h-0.06c-0.42,0.78-1.046,1.405-1.875,1.875c-0.83,0.47-1.675,0.705-2.535,0.705			c-2.04,0-3.515-0.505-4.425-1.516c-0.91-1.009-1.365-2.534-1.365-4.574V6.42h3.42v9.51c0,1.36,0.26,2.32,0.78,2.88			s1.249,0.841,2.19,0.841c0.72,0,1.319-0.11,1.8-0.33c0.479-0.221,0.87-0.516,1.17-0.886s0.515-0.814,0.646-1.335			c0.129-0.52,0.194-1.08,0.194-1.68v-9h3.42V21.93z"/>		<path fill="#038342" d="M105.269,6.42h3.21v3h0.061c0.1-0.42,0.295-0.83,0.584-1.23c0.291-0.399,0.641-0.765,1.051-1.095			s0.865-0.595,1.365-0.795s1.01-0.3,1.529-0.3c0.4,0,0.676,0.01,0.825,0.029c0.15,0.021,0.305,0.041,0.466,0.061v3.3			c-0.24-0.04-0.486-0.075-0.736-0.104c-0.25-0.03-0.494-0.045-0.734-0.045c-0.58,0-1.125,0.115-1.635,0.344			c-0.51,0.23-0.955,0.57-1.335,1.021s-0.681,1.005-0.9,1.665s-0.329,1.42-0.329,2.28v7.38h-3.421V6.42z"/>		<path fill="#038342" d="M115.918,0.51h3.42v3.24h-3.42V0.51z M115.918,6.42h3.42v15.51h-3.42V6.42z"/>		<path fill="#038342" d="M137.668,21.93h-3.24v-2.1h-0.06c-0.46,0.899-1.13,1.545-2.01,1.935s-1.811,0.585-2.79,0.585			c-1.221,0-2.285-0.215-3.195-0.645s-1.664-1.016-2.265-1.756c-0.601-0.739-1.05-1.614-1.351-2.625			c-0.299-1.01-0.449-2.094-0.449-3.254c0-1.4,0.189-2.611,0.57-3.631c0.379-1.02,0.885-1.859,1.514-2.52			c0.631-0.66,1.351-1.145,2.16-1.455C127.363,6.154,128.188,6,129.028,6c0.479,0,0.97,0.045,1.47,0.135s0.98,0.235,1.44,0.436			c0.46,0.199,0.885,0.455,1.274,0.764c0.391,0.311,0.715,0.676,0.976,1.096h0.06V0.51h3.42V21.93z M125.729,14.34			c0,0.66,0.084,1.311,0.255,1.949c0.169,0.641,0.43,1.211,0.78,1.711c0.35,0.5,0.795,0.9,1.334,1.199			c0.541,0.301,1.181,0.451,1.92,0.451c0.761,0,1.416-0.16,1.966-0.48s0.999-0.74,1.351-1.26c0.35-0.521,0.609-1.105,0.779-1.756			c0.17-0.649,0.255-1.314,0.255-1.994c0-1.721-0.386-3.061-1.155-4.021s-1.814-1.44-3.135-1.44c-0.8,0-1.475,0.166-2.025,0.496			c-0.55,0.33-1,0.76-1.35,1.289c-0.35,0.53-0.6,1.131-0.75,1.801S125.729,13.64,125.729,14.34z"/>		<path fill="#038342" d="M154.378,18.479c0,0.421,0.055,0.72,0.165,0.9c0.109,0.18,0.324,0.271,0.645,0.271c0.1,0,0.221,0,0.36,0			s0.3-0.021,0.479-0.061v2.369c-0.119,0.041-0.274,0.086-0.465,0.136c-0.189,0.05-0.385,0.095-0.584,0.135			c-0.201,0.04-0.4,0.069-0.601,0.091c-0.2,0.02-0.37,0.029-0.511,0.029c-0.699,0-1.279-0.141-1.739-0.42s-0.761-0.77-0.899-1.471			c-0.681,0.66-1.516,1.141-2.506,1.441c-0.99,0.299-1.945,0.449-2.865,0.449c-0.699,0-1.369-0.096-2.01-0.285			s-1.205-0.469-1.695-0.84c-0.49-0.369-0.88-0.84-1.17-1.41c-0.289-0.57-0.435-1.234-0.435-1.994c0-0.961,0.175-1.74,0.524-2.341			c0.35-0.6,0.811-1.069,1.381-1.409s1.209-0.586,1.92-0.736c0.709-0.149,1.425-0.264,2.145-0.344			c0.62-0.121,1.21-0.205,1.771-0.256c0.56-0.049,1.055-0.135,1.485-0.255c0.43-0.12,0.77-0.305,1.02-0.555s0.375-0.625,0.375-1.125			c0-0.44-0.105-0.8-0.314-1.08c-0.211-0.28-0.471-0.495-0.781-0.646c-0.31-0.149-0.654-0.25-1.034-0.299			c-0.38-0.051-0.74-0.076-1.08-0.076c-0.96,0-1.751,0.201-2.37,0.601c-0.62,0.4-0.971,1.021-1.05,1.86h-3.421			c0.061-1,0.301-1.83,0.721-2.49s0.955-1.189,1.605-1.59c0.649-0.4,1.385-0.68,2.205-0.84c0.819-0.16,1.659-0.24,2.52-0.24			c0.76,0,1.51,0.08,2.25,0.24s1.404,0.42,1.995,0.779c0.589,0.36,1.065,0.825,1.425,1.395c0.359,0.57,0.54,1.266,0.54,2.086V18.479			z M150.958,14.16c-0.521,0.34-1.16,0.545-1.92,0.615c-0.761,0.07-1.521,0.175-2.28,0.314c-0.359,0.061-0.71,0.145-1.05,0.255			c-0.341,0.11-0.641,0.261-0.899,0.45c-0.261,0.189-0.466,0.439-0.615,0.75c-0.15,0.311-0.226,0.686-0.226,1.125			c0,0.38,0.11,0.7,0.33,0.96s0.485,0.465,0.795,0.614c0.31,0.15,0.649,0.256,1.021,0.315c0.369,0.06,0.705,0.091,1.004,0.091			c0.381,0,0.791-0.051,1.23-0.15s0.855-0.271,1.245-0.51c0.39-0.24,0.715-0.545,0.976-0.916c0.26-0.369,0.39-0.824,0.39-1.365			V14.16z"/>		<path fill="#038342" d="M172.678,21.93h-3.24v-2.1h-0.06c-0.46,0.899-1.13,1.545-2.01,1.935s-1.811,0.585-2.79,0.585			c-1.221,0-2.285-0.215-3.195-0.645s-1.664-1.016-2.265-1.756c-0.601-0.739-1.05-1.614-1.351-2.625			c-0.299-1.01-0.449-2.094-0.449-3.254c0-1.4,0.189-2.611,0.57-3.631c0.379-1.02,0.885-1.859,1.514-2.52			c0.631-0.66,1.351-1.145,2.16-1.455C162.373,6.154,163.198,6,164.038,6c0.479,0,0.97,0.045,1.47,0.135s0.98,0.235,1.44,0.436			c0.46,0.199,0.885,0.455,1.274,0.764c0.391,0.311,0.715,0.676,0.976,1.096h0.06V0.51h3.42V21.93z M160.738,14.34			c0,0.66,0.084,1.311,0.255,1.949c0.169,0.641,0.43,1.211,0.78,1.711c0.35,0.5,0.795,0.9,1.334,1.199			c0.541,0.301,1.181,0.451,1.92,0.451c0.761,0,1.416-0.16,1.966-0.48s0.999-0.74,1.351-1.26c0.35-0.521,0.609-1.105,0.779-1.756			c0.17-0.649,0.255-1.314,0.255-1.994c0-1.721-0.386-3.061-1.155-4.021s-1.814-1.44-3.135-1.44c-0.8,0-1.475,0.166-2.025,0.496			c-0.55,0.33-1,0.76-1.35,1.289c-0.35,0.53-0.6,1.131-0.75,1.801S160.738,13.64,160.738,14.34z"/>		<path fill="#038342" d="M183.027,6.42h3.75L190.828,18h0.061l3.93-11.58h3.57l-6.031,16.35c-0.279,0.7-0.555,1.369-0.824,2.01			s-0.6,1.205-0.99,1.695s-0.875,0.88-1.455,1.17s-1.32,0.436-2.22,0.436c-0.8,0-1.591-0.061-2.37-0.18V25.02			c0.279,0.04,0.55,0.085,0.811,0.135c0.26,0.051,0.529,0.075,0.81,0.075c0.399,0,0.729-0.05,0.989-0.149			c0.26-0.101,0.476-0.246,0.646-0.436s0.315-0.415,0.435-0.675c0.121-0.261,0.23-0.56,0.33-0.899l0.391-1.201L183.027,6.42z"/>		<path fill="#038342" d="M207.088,6.42h2.58V1.77h3.42v4.65h3.09v2.55h-3.09v8.28c0,0.359,0.015,0.67,0.045,0.93			c0.029,0.26,0.1,0.48,0.21,0.66c0.109,0.18,0.274,0.314,0.495,0.404c0.22,0.09,0.52,0.136,0.9,0.136			c0.239,0,0.479-0.005,0.719-0.015c0.24-0.01,0.48-0.045,0.721-0.105V21.9c-0.381,0.039-0.75,0.079-1.109,0.119			c-0.361,0.04-0.73,0.061-1.111,0.061c-0.899,0-1.625-0.086-2.174-0.256c-0.551-0.17-0.98-0.42-1.291-0.75s-0.52-0.744-0.629-1.244			c-0.111-0.5-0.176-1.07-0.195-1.711V8.97h-2.58V6.42z"/>		<path fill="#038342" d="M225.748,22.35c-1.24,0-2.346-0.205-3.315-0.615c-0.971-0.409-1.79-0.975-2.46-1.695			c-0.67-0.719-1.181-1.579-1.53-2.58c-0.351-0.999-0.524-2.1-0.524-3.299c0-1.18,0.174-2.27,0.524-3.271			c0.35-1,0.86-1.86,1.53-2.58s1.489-1.284,2.46-1.694c0.97-0.41,2.075-0.615,3.315-0.615c1.239,0,2.344,0.205,3.314,0.615			c0.97,0.41,1.789,0.975,2.46,1.694c0.67,0.72,1.18,1.58,1.53,2.58c0.35,1.001,0.525,2.091,0.525,3.271			c0,1.199-0.176,2.3-0.525,3.299c-0.351,1.001-0.86,1.861-1.53,2.58c-0.671,0.721-1.49,1.286-2.46,1.695			C228.092,22.145,226.987,22.35,225.748,22.35z M225.748,19.65c0.76,0,1.42-0.16,1.979-0.48s1.021-0.74,1.38-1.26			c0.359-0.521,0.625-1.105,0.795-1.756c0.17-0.649,0.255-1.314,0.255-1.994c0-0.66-0.085-1.32-0.255-1.98s-0.436-1.245-0.795-1.755			c-0.359-0.511-0.82-0.925-1.38-1.245s-1.22-0.48-1.979-0.48c-0.761,0-1.421,0.16-1.98,0.48c-0.561,0.32-1.02,0.734-1.381,1.245			c-0.359,0.51-0.625,1.095-0.795,1.755s-0.254,1.32-0.254,1.98c0,0.68,0.084,1.345,0.254,1.994c0.17,0.65,0.436,1.235,0.795,1.756			c0.361,0.52,0.82,0.939,1.381,1.26C224.327,19.49,224.987,19.65,225.748,19.65z"/>		<path fill="#038342" d="M236.518,0.51h3.42v21.42h-3.42V0.51z"/>		<path fill="#038342" d="M246.327,15.06c0,0.601,0.085,1.181,0.255,1.74s0.425,1.05,0.766,1.47c0.34,0.42,0.77,0.756,1.289,1.006			s1.141,0.375,1.86,0.375c0.999,0,1.805-0.215,2.415-0.646c0.609-0.431,1.064-1.075,1.365-1.935h3.24			c-0.181,0.84-0.49,1.59-0.931,2.25c-0.44,0.659-0.97,1.215-1.59,1.664c-0.62,0.45-1.315,0.791-2.085,1.021			c-0.771,0.229-1.575,0.345-2.415,0.345c-1.22,0-2.3-0.2-3.24-0.6c-0.94-0.4-1.735-0.961-2.385-1.68			c-0.65-0.721-1.14-1.58-1.47-2.58s-0.496-2.101-0.496-3.301c0-1.1,0.176-2.145,0.525-3.135s0.85-1.859,1.5-2.609			s1.436-1.346,2.355-1.785S249.246,6,250.406,6c1.221,0,2.315,0.255,3.285,0.765c0.971,0.511,1.775,1.185,2.416,2.024			c0.639,0.841,1.104,1.806,1.395,2.896c0.289,1.091,0.365,2.216,0.225,3.375H246.327z M254.307,12.81			c-0.04-0.54-0.154-1.06-0.345-1.56s-0.45-0.936-0.78-1.305c-0.33-0.371-0.73-0.67-1.199-0.9c-0.471-0.23-0.996-0.346-1.576-0.346			c-0.6,0-1.145,0.105-1.635,0.315s-0.91,0.5-1.26,0.87s-0.63,0.805-0.84,1.305s-0.325,1.041-0.345,1.62H254.307z"/>		<path fill="#038342" d="M260.337,6.42h3.21v3h0.061c0.1-0.42,0.295-0.83,0.584-1.23c0.291-0.399,0.641-0.765,1.051-1.095			s0.865-0.595,1.365-0.795s1.01-0.3,1.529-0.3c0.4,0,0.676,0.01,0.825,0.029c0.15,0.021,0.305,0.041,0.466,0.061v3.3			c-0.24-0.04-0.486-0.075-0.736-0.104c-0.25-0.03-0.494-0.045-0.734-0.045c-0.58,0-1.125,0.115-1.635,0.344			c-0.51,0.23-0.955,0.57-1.335,1.021s-0.681,1.005-0.9,1.665s-0.329,1.42-0.329,2.28v7.38h-3.421V6.42z"/>		<path fill="#038342" d="M283.887,18.479c0,0.421,0.055,0.72,0.165,0.9c0.109,0.18,0.325,0.271,0.646,0.271c0.1,0,0.219,0,0.359,0			c0.14,0,0.3-0.021,0.48-0.061v2.369c-0.121,0.041-0.275,0.086-0.465,0.136c-0.191,0.05-0.386,0.095-0.586,0.135			c-0.199,0.04-0.4,0.069-0.6,0.091c-0.2,0.02-0.37,0.029-0.51,0.029c-0.701,0-1.28-0.141-1.74-0.42			c-0.461-0.279-0.76-0.77-0.9-1.471c-0.68,0.66-1.515,1.141-2.505,1.441c-0.989,0.299-1.945,0.449-2.864,0.449			c-0.701,0-1.371-0.096-2.011-0.285s-1.205-0.469-1.694-0.84c-0.49-0.369-0.881-0.84-1.17-1.41			c-0.291-0.57-0.436-1.234-0.436-1.994c0-0.961,0.175-1.74,0.525-2.341c0.35-0.6,0.81-1.069,1.38-1.409			c0.569-0.34,1.21-0.586,1.92-0.736c0.71-0.149,1.425-0.264,2.146-0.344c0.619-0.121,1.209-0.205,1.77-0.256			c0.56-0.049,1.055-0.135,1.484-0.255s0.77-0.305,1.021-0.555c0.25-0.25,0.375-0.625,0.375-1.125c0-0.44-0.104-0.8-0.315-1.08			c-0.209-0.28-0.47-0.495-0.779-0.646c-0.311-0.149-0.656-0.25-1.035-0.299c-0.381-0.051-0.74-0.076-1.08-0.076			c-0.96,0-1.75,0.201-2.37,0.601c-0.62,0.4-0.97,1.021-1.05,1.86h-3.42c0.06-1,0.3-1.83,0.72-2.49s0.955-1.189,1.604-1.59			c0.65-0.4,1.385-0.68,2.205-0.84S276.816,6,277.677,6c0.76,0,1.51,0.08,2.25,0.24c0.739,0.16,1.405,0.42,1.995,0.779			c0.59,0.36,1.064,0.825,1.425,1.395c0.36,0.57,0.54,1.266,0.54,2.086V18.479z M280.467,14.16c-0.521,0.34-1.16,0.545-1.92,0.615			c-0.761,0.07-1.521,0.175-2.28,0.314c-0.36,0.061-0.71,0.145-1.05,0.255s-0.641,0.261-0.9,0.45s-0.465,0.439-0.615,0.75			c-0.149,0.311-0.225,0.686-0.225,1.125c0,0.38,0.109,0.7,0.33,0.96c0.22,0.26,0.484,0.465,0.795,0.614			c0.311,0.15,0.65,0.256,1.02,0.315c0.371,0.06,0.705,0.091,1.006,0.091c0.379,0,0.789-0.051,1.229-0.15s0.855-0.271,1.245-0.51			c0.391-0.24,0.715-0.545,0.975-0.916c0.26-0.369,0.391-0.824,0.391-1.365V14.16z"/>		<path fill="#038342" d="M287.667,0.51h3.42v7.92h0.06c0.24-0.38,0.53-0.721,0.871-1.02c0.34-0.301,0.715-0.556,1.125-0.766			c0.409-0.21,0.84-0.369,1.289-0.48C294.882,6.055,295.326,6,295.768,6c1.219,0,2.284,0.215,3.194,0.645			c0.909,0.431,1.665,1.02,2.265,1.77s1.051,1.626,1.35,2.625c0.301,1.001,0.451,2.07,0.451,3.211c0,1.04-0.135,2.05-0.405,3.029			c-0.271,0.98-0.681,1.846-1.229,2.596c-0.551,0.75-1.246,1.35-2.086,1.8s-1.83,0.675-2.97,0.675c-0.521,0-1.046-0.035-1.575-0.105			s-1.035-0.205-1.515-0.404s-0.915-0.46-1.306-0.78c-0.39-0.319-0.715-0.739-0.975-1.26h-0.061v2.13h-3.239V0.51z M299.607,14.189			c0-0.699-0.09-1.38-0.271-2.039c-0.181-0.66-0.45-1.246-0.81-1.756c-0.36-0.51-0.811-0.92-1.351-1.23			c-0.54-0.309-1.16-0.465-1.86-0.465c-1.439,0-2.525,0.5-3.254,1.5c-0.73,1.001-1.096,2.33-1.096,3.99			c0,0.78,0.095,1.506,0.285,2.176c0.189,0.67,0.475,1.244,0.855,1.725c0.379,0.48,0.834,0.859,1.364,1.14s1.146,0.421,1.845,0.421			c0.78,0,1.44-0.16,1.98-0.48s0.984-0.735,1.335-1.245c0.35-0.511,0.601-1.09,0.75-1.74			C299.531,15.535,299.607,14.869,299.607,14.189z"/>		<path fill="#038342" d="M305.996,0.51h3.42v3.24h-3.42V0.51z M305.996,6.42h3.42v15.51h-3.42V6.42z"/>		<path fill="#038342" d="M313.227,0.51h3.42v21.42h-3.42V0.51z"/>		<path fill="#038342" d="M320.457,0.51h3.42v3.24h-3.42V0.51z M320.457,6.42h3.42v15.51h-3.42V6.42z"/>		<path fill="#038342" d="M342.207,21.93h-3.24v-2.1h-0.061c-0.46,0.899-1.13,1.545-2.01,1.935c-0.881,0.39-1.811,0.585-2.79,0.585			c-1.22,0-2.285-0.215-3.194-0.645c-0.911-0.43-1.666-1.016-2.266-1.756c-0.6-0.739-1.051-1.614-1.35-2.625			c-0.301-1.01-0.451-2.094-0.451-3.254c0-1.4,0.19-2.611,0.57-3.631s0.885-1.859,1.516-2.52c0.63-0.66,1.35-1.145,2.16-1.455			C331.901,6.154,332.727,6,333.566,6c0.48,0,0.97,0.045,1.471,0.135c0.499,0.09,0.979,0.235,1.439,0.436			c0.459,0.199,0.885,0.455,1.275,0.764c0.39,0.311,0.715,0.676,0.975,1.096h0.061V0.51h3.42V21.93z M330.267,14.34			c0,0.66,0.085,1.311,0.255,1.949c0.17,0.641,0.43,1.211,0.779,1.711s0.795,0.9,1.336,1.199c0.539,0.301,1.18,0.451,1.92,0.451			c0.76,0,1.414-0.16,1.965-0.48c0.55-0.32,1-0.74,1.35-1.26c0.35-0.521,0.61-1.105,0.78-1.756c0.17-0.649,0.255-1.314,0.255-1.994			c0-1.721-0.385-3.061-1.154-4.021c-0.771-0.96-1.815-1.44-3.136-1.44c-0.8,0-1.476,0.166-2.024,0.496			c-0.551,0.33-1,0.76-1.351,1.289c-0.351,0.53-0.6,1.131-0.75,1.801C330.342,12.955,330.267,13.64,330.267,14.34z"/>		<path fill="#038342" d="M358.916,18.479c0,0.421,0.055,0.72,0.165,0.9c0.109,0.18,0.325,0.271,0.646,0.271c0.1,0,0.219,0,0.359,0			c0.14,0,0.3-0.021,0.48-0.061v2.369c-0.121,0.041-0.275,0.086-0.465,0.136c-0.191,0.05-0.386,0.095-0.586,0.135			c-0.199,0.04-0.4,0.069-0.6,0.091c-0.2,0.02-0.37,0.029-0.51,0.029c-0.701,0-1.28-0.141-1.74-0.42			c-0.461-0.279-0.76-0.77-0.9-1.471c-0.68,0.66-1.515,1.141-2.505,1.441c-0.989,0.299-1.945,0.449-2.864,0.449			c-0.701,0-1.371-0.096-2.011-0.285s-1.205-0.469-1.694-0.84c-0.49-0.369-0.881-0.84-1.17-1.41			c-0.291-0.57-0.436-1.234-0.436-1.994c0-0.961,0.175-1.74,0.525-2.341c0.35-0.6,0.81-1.069,1.38-1.409			c0.569-0.34,1.21-0.586,1.92-0.736c0.71-0.149,1.425-0.264,2.146-0.344c0.619-0.121,1.209-0.205,1.77-0.256			c0.56-0.049,1.055-0.135,1.484-0.255s0.77-0.305,1.021-0.555c0.25-0.25,0.375-0.625,0.375-1.125c0-0.44-0.104-0.8-0.315-1.08			c-0.209-0.28-0.47-0.495-0.779-0.646c-0.311-0.149-0.656-0.25-1.035-0.299c-0.381-0.051-0.74-0.076-1.08-0.076			c-0.96,0-1.75,0.201-2.37,0.601c-0.62,0.4-0.97,1.021-1.05,1.86h-3.42c0.06-1,0.3-1.83,0.72-2.49s0.955-1.189,1.604-1.59			c0.65-0.4,1.385-0.68,2.205-0.84S351.846,6,352.706,6c0.76,0,1.51,0.08,2.25,0.24c0.739,0.16,1.405,0.42,1.995,0.779			c0.59,0.36,1.064,0.825,1.425,1.395c0.36,0.57,0.54,1.266,0.54,2.086V18.479z M355.496,14.16c-0.521,0.34-1.16,0.545-1.92,0.615			c-0.761,0.07-1.521,0.175-2.28,0.314c-0.36,0.061-0.71,0.145-1.05,0.255s-0.641,0.261-0.9,0.45s-0.465,0.439-0.615,0.75			c-0.149,0.311-0.225,0.686-0.225,1.125c0,0.38,0.109,0.7,0.33,0.96c0.22,0.26,0.484,0.465,0.795,0.614			c0.311,0.15,0.65,0.256,1.02,0.315c0.371,0.06,0.705,0.091,1.006,0.091c0.379,0,0.789-0.051,1.229-0.15s0.855-0.271,1.245-0.51			c0.391-0.24,0.715-0.545,0.975-0.916c0.26-0.369,0.391-0.824,0.391-1.365V14.16z"/>		<path fill="#038342" d="M377.217,21.93h-3.24v-2.1h-0.061c-0.46,0.899-1.13,1.545-2.01,1.935c-0.881,0.39-1.811,0.585-2.79,0.585			c-1.22,0-2.285-0.215-3.194-0.645c-0.911-0.43-1.666-1.016-2.266-1.756c-0.6-0.739-1.051-1.614-1.35-2.625			c-0.301-1.01-0.451-2.094-0.451-3.254c0-1.4,0.19-2.611,0.57-3.631s0.885-1.859,1.516-2.52c0.63-0.66,1.35-1.145,2.16-1.455			C366.911,6.154,367.736,6,368.576,6c0.48,0,0.97,0.045,1.471,0.135c0.499,0.09,0.979,0.235,1.439,0.436			c0.459,0.199,0.885,0.455,1.275,0.764c0.39,0.311,0.715,0.676,0.975,1.096h0.061V0.51h3.42V21.93z M365.276,14.34			c0,0.66,0.085,1.311,0.255,1.949c0.17,0.641,0.43,1.211,0.779,1.711s0.795,0.9,1.336,1.199c0.539,0.301,1.18,0.451,1.92,0.451			c0.76,0,1.414-0.16,1.965-0.48c0.55-0.32,1-0.74,1.35-1.26c0.35-0.521,0.61-1.105,0.78-1.756c0.17-0.649,0.255-1.314,0.255-1.994			c0-1.721-0.385-3.061-1.154-4.021c-0.771-0.96-1.815-1.44-3.136-1.44c-0.8,0-1.476,0.166-2.024,0.496			c-0.551,0.33-1,0.76-1.351,1.289c-0.351,0.53-0.6,1.131-0.75,1.801C365.352,12.955,365.276,13.64,365.276,14.34z"/>	</g></g></svg>