<!-- Generator: Adobe Illustrator 17.0.0, SVG Export Plug-In  --><svg version="1.1"	 xmlns="http://www.w3.org/2000/svg" xmlns:xlink="http://www.w3.org/1999/xlink" xmlns:a="http://ns.adobe.com/AdobeSVGViewerExtensions/3.0/"	 x="0px" y="0px" width="424.287px" height="22.38px" viewBox="0 0 424.287 22.38" enable-background="new 0 0 424.287 22.38"	 xml:space="preserve"><defs></defs><g>	<g>		<path fill="#038342" d="M14.94,16.98h-2.7v4.98H9v-4.98H0v-3.39L9,0.96h3.24v13.32h2.7V16.98z M2.641,14.28H9V5.04H8.94			L2.641,14.28z"/>		<path fill="#038342" d="M18.03,17.91h4.171v4.05H18.03V17.91z"/>		<path fill="#038342" d="M34.92,0.54h15.42v3.24H38.67v5.61h10.801v3.06H38.67v6.27h11.881v3.24H34.92V0.54z"/>		<path fill="#038342" d="M51.811,6.45h2.549V5.16c0-0.98,0.121-1.775,0.361-2.385c0.239-0.61,0.559-1.08,0.959-1.41			c0.4-0.33,0.855-0.55,1.365-0.66S58.09,0.54,58.65,0.54c1.1,0,1.899,0.07,2.399,0.21v2.67c-0.22-0.06-0.455-0.105-0.704-0.135			C60.095,3.255,59.8,3.24,59.46,3.24c-0.46,0-0.854,0.11-1.185,0.33c-0.33,0.22-0.495,0.65-0.495,1.29v1.59h2.909V9H57.78v12.96			h-3.421V9h-2.549V6.45z"/>		<path fill="#038342" d="M62.88,0.54h3.42v3.24h-3.42V0.54z M62.88,6.45h3.42v15.51h-3.42V6.45z"/>		<path fill="#038342" d="M80.49,11.64c-0.141-0.96-0.525-1.685-1.155-2.175c-0.63-0.49-1.425-0.735-2.386-0.735			c-0.439,0-0.91,0.075-1.41,0.225s-0.959,0.43-1.379,0.84c-0.42,0.41-0.771,0.98-1.051,1.71c-0.279,0.73-0.42,1.685-0.42,2.865			c0,0.64,0.075,1.28,0.225,1.92c0.15,0.64,0.391,1.21,0.721,1.71c0.33,0.5,0.755,0.905,1.275,1.215			c0.52,0.311,1.149,0.465,1.89,0.465c1,0,1.825-0.31,2.476-0.93c0.648-0.62,1.055-1.49,1.215-2.61h3.42			c-0.32,2.02-1.086,3.565-2.295,4.635c-1.211,1.07-2.816,1.605-4.815,1.605c-1.22,0-2.295-0.205-3.226-0.615			c-0.93-0.41-1.715-0.97-2.354-1.68c-0.64-0.709-1.125-1.555-1.455-2.535c-0.33-0.979-0.495-2.04-0.495-3.18			c0-1.16,0.16-2.25,0.48-3.27c0.319-1.02,0.799-1.905,1.439-2.655s1.436-1.339,2.385-1.77c0.95-0.43,2.065-0.645,3.346-0.645			c0.9,0,1.755,0.116,2.564,0.345c0.811,0.23,1.53,0.575,2.16,1.035c0.631,0.46,1.145,1.04,1.545,1.74			c0.4,0.7,0.641,1.53,0.721,2.49H80.49z"/>		<path fill="#038342" d="M99.689,18.51c0,0.42,0.055,0.72,0.165,0.9c0.109,0.18,0.325,0.27,0.646,0.27c0.1,0,0.219,0,0.359,0			c0.14,0,0.3-0.02,0.48-0.06v2.37c-0.121,0.04-0.275,0.085-0.465,0.135c-0.191,0.05-0.386,0.095-0.586,0.135			c-0.199,0.04-0.4,0.07-0.6,0.09c-0.2,0.02-0.37,0.03-0.51,0.03c-0.701,0-1.28-0.14-1.74-0.42c-0.461-0.28-0.76-0.77-0.9-1.47			c-0.68,0.66-1.515,1.14-2.505,1.44c-0.989,0.3-1.945,0.45-2.864,0.45c-0.701,0-1.371-0.095-2.011-0.285			c-0.64-0.189-1.205-0.469-1.694-0.84c-0.49-0.37-0.881-0.84-1.17-1.41c-0.291-0.57-0.436-1.234-0.436-1.995			c0-0.96,0.175-1.74,0.525-2.34c0.35-0.6,0.81-1.069,1.38-1.41c0.569-0.34,1.21-0.585,1.92-0.735			c0.71-0.15,1.425-0.265,2.146-0.345c0.619-0.12,1.209-0.205,1.77-0.255c0.56-0.05,1.055-0.135,1.484-0.255			c0.43-0.12,0.77-0.305,1.021-0.555c0.25-0.25,0.375-0.625,0.375-1.125c0-0.44-0.104-0.8-0.315-1.08			c-0.209-0.28-0.47-0.495-0.779-0.645c-0.311-0.15-0.656-0.25-1.035-0.3c-0.381-0.05-0.74-0.075-1.08-0.075			c-0.96,0-1.75,0.2-2.37,0.6c-0.62,0.4-0.97,1.02-1.05,1.86h-3.42c0.06-1,0.3-1.83,0.72-2.49c0.42-0.66,0.955-1.19,1.604-1.59			c0.65-0.4,1.385-0.68,2.205-0.84c0.82-0.16,1.66-0.24,2.521-0.24c0.76,0,1.51,0.081,2.25,0.24c0.739,0.16,1.405,0.42,1.995,0.78			c0.59,0.36,1.064,0.825,1.425,1.395c0.36,0.57,0.54,1.265,0.54,2.085V18.51z M96.27,14.19c-0.521,0.34-1.16,0.545-1.92,0.615			c-0.761,0.07-1.521,0.175-2.28,0.315c-0.36,0.06-0.71,0.145-1.05,0.255c-0.34,0.11-0.641,0.26-0.9,0.45s-0.465,0.44-0.615,0.75			c-0.149,0.31-0.225,0.685-0.225,1.125c0,0.38,0.109,0.7,0.33,0.96c0.22,0.26,0.484,0.465,0.795,0.615s0.65,0.255,1.02,0.315			c0.371,0.06,0.705,0.09,1.006,0.09c0.379,0,0.789-0.05,1.229-0.15c0.44-0.1,0.855-0.27,1.245-0.51			c0.391-0.24,0.715-0.545,0.975-0.915c0.26-0.37,0.391-0.825,0.391-1.365V14.19z"/>		<path fill="#038342" d="M113.85,11.64c-0.141-0.96-0.525-1.685-1.154-2.175c-0.631-0.49-1.426-0.735-2.386-0.735			c-0.44,0-0.91,0.075-1.41,0.225s-0.96,0.43-1.38,0.84c-0.42,0.41-0.77,0.98-1.05,1.71c-0.28,0.73-0.42,1.685-0.42,2.865			c0,0.64,0.075,1.28,0.225,1.92c0.15,0.64,0.39,1.21,0.72,1.71c0.33,0.5,0.756,0.905,1.275,1.215			c0.52,0.311,1.15,0.465,1.891,0.465c1,0,1.824-0.31,2.475-0.93c0.649-0.62,1.055-1.49,1.215-2.61h3.42			c-0.32,2.02-1.085,3.565-2.295,4.635c-1.211,1.07-2.815,1.605-4.814,1.605c-1.221,0-2.295-0.205-3.226-0.615			s-1.716-0.97-2.354-1.68c-0.641-0.709-1.125-1.555-1.455-2.535c-0.33-0.979-0.496-2.04-0.496-3.18c0-1.16,0.16-2.25,0.48-3.27			s0.8-1.905,1.44-2.655c0.64-0.75,1.435-1.339,2.385-1.77c0.95-0.43,2.065-0.645,3.345-0.645c0.9,0,1.756,0.116,2.565,0.345			c0.81,0.23,1.53,0.575,2.159,1.035c0.631,0.46,1.146,1.04,1.546,1.74c0.399,0.7,0.64,1.53,0.72,2.49H113.85z"/>		<path fill="#038342" d="M120.149,0.54h3.42v3.24h-3.42V0.54z M120.149,6.45h3.42v15.51h-3.42V6.45z"/>		<path fill="#038342" d="M140.279,18.51c0,0.42,0.055,0.72,0.165,0.9c0.109,0.18,0.325,0.27,0.646,0.27c0.1,0,0.219,0,0.359,0			c0.14,0,0.3-0.02,0.48-0.06v2.37c-0.121,0.04-0.275,0.085-0.465,0.135c-0.191,0.05-0.386,0.095-0.586,0.135			c-0.199,0.04-0.4,0.07-0.6,0.09c-0.2,0.02-0.37,0.03-0.51,0.03c-0.701,0-1.28-0.14-1.74-0.42c-0.461-0.28-0.76-0.77-0.9-1.47			c-0.68,0.66-1.515,1.14-2.505,1.44c-0.989,0.3-1.945,0.45-2.864,0.45c-0.701,0-1.371-0.095-2.011-0.285			c-0.64-0.189-1.205-0.469-1.694-0.84c-0.49-0.37-0.881-0.84-1.17-1.41c-0.291-0.57-0.436-1.234-0.436-1.995			c0-0.96,0.175-1.74,0.525-2.34c0.35-0.6,0.81-1.069,1.38-1.41c0.569-0.34,1.21-0.585,1.92-0.735			c0.71-0.15,1.425-0.265,2.146-0.345c0.619-0.12,1.209-0.205,1.77-0.255c0.56-0.05,1.055-0.135,1.484-0.255			c0.43-0.12,0.77-0.305,1.021-0.555c0.25-0.25,0.375-0.625,0.375-1.125c0-0.44-0.104-0.8-0.315-1.08			c-0.209-0.28-0.47-0.495-0.779-0.645c-0.311-0.15-0.656-0.25-1.035-0.3c-0.381-0.05-0.74-0.075-1.08-0.075			c-0.96,0-1.75,0.2-2.37,0.6c-0.62,0.4-0.97,1.02-1.05,1.86h-3.42c0.06-1,0.3-1.83,0.72-2.49c0.42-0.66,0.955-1.19,1.604-1.59			c0.65-0.4,1.385-0.68,2.205-0.84c0.82-0.16,1.66-0.24,2.521-0.24c0.76,0,1.51,0.081,2.25,0.24c0.739,0.16,1.405,0.42,1.995,0.78			c0.59,0.36,1.064,0.825,1.425,1.395c0.36,0.57,0.54,1.265,0.54,2.085V18.51z M136.859,14.19c-0.521,0.34-1.16,0.545-1.92,0.615			c-0.761,0.07-1.521,0.175-2.28,0.315c-0.36,0.06-0.71,0.145-1.05,0.255c-0.34,0.11-0.641,0.26-0.9,0.45s-0.465,0.44-0.615,0.75			c-0.149,0.31-0.225,0.685-0.225,1.125c0,0.38,0.109,0.7,0.33,0.96c0.22,0.26,0.484,0.465,0.795,0.615s0.65,0.255,1.02,0.315			c0.371,0.06,0.705,0.09,1.006,0.09c0.379,0,0.789-0.05,1.229-0.15c0.44-0.1,0.855-0.27,1.245-0.51			c0.391-0.24,0.715-0.545,0.975-0.915c0.26-0.37,0.391-0.825,0.391-1.365V14.19z"/>		<path fill="#038342" d="M154.979,15.09c0,0.6,0.085,1.181,0.255,1.74c0.17,0.56,0.425,1.05,0.766,1.47			c0.34,0.42,0.77,0.755,1.289,1.005s1.141,0.375,1.86,0.375c0.999,0,1.805-0.215,2.415-0.645c0.609-0.43,1.064-1.075,1.365-1.935			h3.24c-0.181,0.84-0.49,1.59-0.931,2.25c-0.44,0.66-0.97,1.215-1.59,1.665c-0.62,0.45-1.315,0.79-2.085,1.02			c-0.771,0.229-1.575,0.345-2.415,0.345c-1.22,0-2.3-0.2-3.24-0.6s-1.735-0.96-2.385-1.68c-0.65-0.72-1.14-1.58-1.47-2.58			c-0.33-1-0.496-2.1-0.496-3.3c0-1.1,0.176-2.145,0.525-3.135s0.85-1.86,1.5-2.61s1.436-1.345,2.355-1.785			c0.92-0.439,1.959-0.66,3.119-0.66c1.221,0,2.315,0.255,3.285,0.765c0.971,0.51,1.775,1.185,2.416,2.025			c0.639,0.84,1.104,1.805,1.395,2.895c0.289,1.09,0.365,2.215,0.225,3.375H154.979z M162.959,12.84			c-0.04-0.54-0.154-1.06-0.345-1.56c-0.19-0.5-0.45-0.935-0.78-1.305s-0.73-0.67-1.199-0.9c-0.471-0.23-0.996-0.345-1.576-0.345			c-0.6,0-1.145,0.105-1.635,0.315s-0.91,0.5-1.26,0.87s-0.63,0.805-0.84,1.305c-0.21,0.5-0.325,1.041-0.345,1.62H162.959z"/>		<path fill="#038342" d="M168.989,6.45h3.24v2.28l0.06,0.06c0.52-0.86,1.2-1.535,2.041-2.025c0.84-0.49,1.77-0.735,2.789-0.735			c1.7,0,3.04,0.44,4.021,1.32c0.979,0.88,1.47,2.2,1.47,3.96v10.65h-3.42v-9.75c-0.041-1.22-0.3-2.104-0.779-2.655			c-0.48-0.55-1.23-0.825-2.25-0.825c-0.581,0-1.102,0.105-1.561,0.315c-0.461,0.21-0.851,0.5-1.17,0.87			c-0.32,0.37-0.57,0.805-0.75,1.305c-0.18,0.5-0.27,1.031-0.27,1.59v9.15h-3.421V6.45z"/>		<path fill="#038342" d="M197.219,15.09c0,0.6,0.085,1.181,0.256,1.74c0.169,0.56,0.424,1.05,0.765,1.47			c0.34,0.42,0.77,0.755,1.29,1.005c0.52,0.25,1.14,0.375,1.859,0.375c1,0,1.805-0.215,2.416-0.645			c0.609-0.43,1.064-1.075,1.364-1.935h3.24c-0.181,0.84-0.49,1.59-0.931,2.25c-0.439,0.66-0.97,1.215-1.59,1.665			c-0.619,0.45-1.314,0.79-2.084,1.02c-0.771,0.229-1.576,0.345-2.416,0.345c-1.22,0-2.3-0.2-3.24-0.6			c-0.939-0.4-1.734-0.96-2.385-1.68c-0.65-0.72-1.14-1.58-1.47-2.58c-0.33-1-0.495-2.1-0.495-3.3c0-1.1,0.175-2.145,0.525-3.135			c0.35-0.99,0.85-1.86,1.5-2.61c0.649-0.75,1.435-1.345,2.355-1.785c0.919-0.439,1.959-0.66,3.119-0.66			c1.22,0,2.314,0.255,3.285,0.765c0.97,0.51,1.775,1.185,2.415,2.025c0.64,0.84,1.104,1.805,1.396,2.895			c0.289,1.09,0.364,2.215,0.225,3.375H197.219z M205.199,12.84c-0.041-0.54-0.155-1.06-0.346-1.56			c-0.189-0.5-0.449-0.935-0.779-1.305s-0.73-0.67-1.2-0.9s-0.995-0.345-1.575-0.345c-0.6,0-1.145,0.105-1.635,0.315			s-0.91,0.5-1.26,0.87c-0.351,0.37-0.631,0.805-0.84,1.305c-0.211,0.5-0.326,1.041-0.346,1.62H205.199z"/>		<path fill="#038342" d="M213.809,16.98c0.101,1,0.48,1.7,1.141,2.1c0.66,0.4,1.449,0.6,2.37,0.6c0.319,0,0.685-0.025,1.095-0.075			c0.41-0.05,0.795-0.145,1.155-0.285c0.36-0.14,0.655-0.345,0.885-0.615s0.335-0.625,0.315-1.065c-0.021-0.44-0.18-0.8-0.48-1.08			c-0.3-0.28-0.686-0.505-1.154-0.675c-0.471-0.169-1.006-0.315-1.605-0.435c-0.6-0.12-1.211-0.25-1.83-0.39			c-0.641-0.14-1.256-0.31-1.846-0.51c-0.59-0.2-1.119-0.47-1.59-0.81c-0.47-0.34-0.845-0.774-1.125-1.305			c-0.279-0.53-0.42-1.185-0.42-1.965c0-0.84,0.205-1.545,0.615-2.115s0.93-1.03,1.561-1.38c0.63-0.35,1.33-0.595,2.1-0.735			c0.77-0.14,1.505-0.21,2.205-0.21c0.8,0,1.564,0.085,2.295,0.255s1.391,0.445,1.98,0.825c0.59,0.38,1.08,0.875,1.47,1.485			c0.39,0.61,0.635,1.346,0.735,2.205h-3.57c-0.16-0.82-0.535-1.37-1.125-1.65c-0.59-0.28-1.266-0.42-2.025-0.42			c-0.24,0-0.525,0.02-0.855,0.06c-0.329,0.04-0.64,0.115-0.93,0.225c-0.289,0.11-0.535,0.27-0.734,0.48			c-0.2,0.21-0.301,0.485-0.301,0.825c0,0.42,0.146,0.76,0.436,1.02c0.289,0.26,0.67,0.476,1.141,0.645			c0.469,0.17,1.004,0.315,1.604,0.435s1.22,0.25,1.86,0.39c0.619,0.14,1.229,0.31,1.83,0.51c0.6,0.2,1.135,0.47,1.604,0.81			c0.47,0.34,0.85,0.77,1.14,1.29c0.29,0.521,0.436,1.16,0.436,1.92c0,0.92-0.211,1.7-0.631,2.34s-0.965,1.16-1.635,1.56			c-0.67,0.4-1.414,0.69-2.234,0.87c-0.82,0.18-1.631,0.27-2.43,0.27c-0.98,0-1.886-0.11-2.715-0.33			c-0.831-0.22-1.551-0.555-2.16-1.005c-0.611-0.45-1.091-1.01-1.44-1.68c-0.351-0.669-0.536-1.465-0.556-2.385H213.809z"/>		<path fill="#038342" d="M225.239,6.45h2.579V1.8h3.421v4.65h3.09V9h-3.09v8.28c0,0.36,0.015,0.67,0.045,0.93			c0.03,0.26,0.1,0.48,0.21,0.66c0.109,0.18,0.274,0.315,0.495,0.405c0.22,0.09,0.52,0.135,0.899,0.135			c0.24,0,0.48-0.005,0.721-0.015c0.24-0.01,0.479-0.045,0.72-0.105v2.64c-0.38,0.04-0.75,0.08-1.11,0.12			c-0.359,0.04-0.73,0.06-1.109,0.06c-0.9,0-1.625-0.085-2.176-0.255c-0.55-0.17-0.979-0.42-1.289-0.75			c-0.311-0.33-0.521-0.745-0.631-1.245c-0.109-0.5-0.175-1.07-0.195-1.71V9h-2.579V6.45z"/>		<path fill="#038342" d="M250.408,21.96h-3.359V19.8h-0.061c-0.42,0.78-1.045,1.405-1.875,1.875s-1.675,0.705-2.535,0.705			c-2.039,0-3.515-0.505-4.424-1.515c-0.91-1.009-1.365-2.535-1.365-4.575V6.45h3.42v9.51c0,1.36,0.26,2.32,0.779,2.88			c0.521,0.56,1.25,0.84,2.19,0.84c0.72,0,1.319-0.11,1.8-0.33s0.87-0.515,1.17-0.885c0.301-0.37,0.516-0.814,0.646-1.335			c0.13-0.52,0.194-1.08,0.194-1.68v-9h3.42V21.96z"/>		<path fill="#038342" d="M268.619,21.96h-3.24v-2.1h-0.061c-0.46,0.9-1.13,1.545-2.01,1.935c-0.881,0.39-1.811,0.585-2.79,0.585			c-1.22,0-2.285-0.215-3.194-0.645c-0.911-0.43-1.666-1.015-2.266-1.755c-0.6-0.74-1.051-1.615-1.35-2.625			c-0.301-1.01-0.451-2.095-0.451-3.255c0-1.4,0.19-2.61,0.57-3.63c0.38-1.02,0.885-1.86,1.516-2.52			c0.63-0.66,1.35-1.145,2.16-1.455c0.81-0.31,1.635-0.465,2.475-0.465c0.48,0,0.97,0.045,1.471,0.135			c0.499,0.09,0.979,0.235,1.439,0.435c0.459,0.2,0.885,0.455,1.275,0.765c0.39,0.311,0.715,0.675,0.975,1.095h0.061V0.54h3.42			V21.96z M256.679,14.37c0,0.66,0.085,1.31,0.255,1.95c0.17,0.641,0.43,1.21,0.779,1.71c0.35,0.5,0.795,0.9,1.336,1.2			c0.539,0.3,1.18,0.45,1.92,0.45c0.76,0,1.414-0.16,1.965-0.48c0.55-0.32,1-0.74,1.35-1.26c0.35-0.52,0.61-1.105,0.78-1.755			s0.255-1.315,0.255-1.995c0-1.72-0.385-3.06-1.154-4.02c-0.771-0.96-1.815-1.44-3.136-1.44c-0.8,0-1.476,0.165-2.024,0.495			c-0.551,0.33-1,0.76-1.351,1.29s-0.6,1.13-0.75,1.8C256.754,12.985,256.679,13.67,256.679,14.37z"/>		<path fill="#038342" d="M272.428,0.54h3.42v3.24h-3.42V0.54z M272.428,6.45h3.42v15.51h-3.42V6.45z"/>		<path fill="#038342" d="M286.678,22.38c-1.24,0-2.345-0.205-3.314-0.615c-0.971-0.41-1.791-0.975-2.461-1.695			c-0.67-0.72-1.18-1.58-1.529-2.58c-0.35-1-0.525-2.1-0.525-3.3c0-1.18,0.176-2.27,0.525-3.27c0.35-1,0.859-1.86,1.529-2.58			c0.67-0.72,1.49-1.285,2.461-1.695c0.97-0.41,2.074-0.615,3.314-0.615s2.346,0.206,3.315,0.615c0.97,0.41,1.79,0.975,2.46,1.695			c0.67,0.72,1.18,1.58,1.529,2.58c0.35,1,0.525,2.09,0.525,3.27c0,1.2-0.176,2.3-0.525,3.3c-0.35,1-0.859,1.86-1.529,2.58			c-0.67,0.72-1.49,1.286-2.46,1.695S287.918,22.38,286.678,22.38z M286.678,19.68c0.76,0,1.42-0.16,1.98-0.48			c0.56-0.32,1.02-0.74,1.38-1.26c0.36-0.52,0.625-1.105,0.795-1.755s0.255-1.315,0.255-1.995c0-0.66-0.085-1.32-0.255-1.98			s-0.435-1.245-0.795-1.755c-0.36-0.51-0.82-0.925-1.38-1.245c-0.561-0.32-1.221-0.48-1.98-0.48s-1.42,0.16-1.979,0.48			c-0.561,0.32-1.021,0.735-1.38,1.245c-0.36,0.51-0.625,1.095-0.795,1.755s-0.256,1.32-0.256,1.98c0,0.68,0.086,1.345,0.256,1.995			s0.435,1.235,0.795,1.755c0.359,0.521,0.819,0.94,1.38,1.26C285.258,19.52,285.918,19.68,286.678,19.68z"/>		<path fill="#038342" d="M299.938,16.98c0.1,1,0.48,1.7,1.141,2.1c0.66,0.4,1.449,0.6,2.369,0.6c0.32,0,0.686-0.025,1.096-0.075			c0.409-0.05,0.795-0.145,1.154-0.285c0.36-0.14,0.655-0.345,0.885-0.615c0.23-0.27,0.336-0.625,0.315-1.065s-0.18-0.8-0.479-1.08			c-0.301-0.28-0.686-0.505-1.155-0.675c-0.47-0.169-1.005-0.315-1.604-0.435c-0.601-0.12-1.211-0.25-1.83-0.39			c-0.641-0.14-1.256-0.31-1.846-0.51c-0.59-0.2-1.12-0.47-1.59-0.81c-0.471-0.34-0.846-0.774-1.125-1.305			c-0.28-0.53-0.42-1.185-0.42-1.965c0-0.84,0.205-1.545,0.615-2.115c0.409-0.57,0.93-1.03,1.56-1.38			c0.63-0.35,1.33-0.595,2.101-0.735c0.77-0.14,1.504-0.21,2.205-0.21c0.799,0,1.564,0.085,2.295,0.255			c0.729,0.17,1.39,0.445,1.979,0.825c0.59,0.38,1.08,0.875,1.47,1.485c0.391,0.61,0.635,1.346,0.735,2.205h-3.569			c-0.161-0.82-0.536-1.37-1.125-1.65c-0.591-0.28-1.266-0.42-2.025-0.42c-0.24,0-0.525,0.02-0.855,0.06s-0.641,0.115-0.93,0.225			c-0.29,0.11-0.535,0.27-0.735,0.48s-0.3,0.485-0.3,0.825c0,0.42,0.145,0.76,0.436,1.02c0.289,0.26,0.67,0.476,1.14,0.645			c0.47,0.17,1.005,0.315,1.604,0.435c0.601,0.12,1.221,0.25,1.86,0.39c0.62,0.14,1.229,0.31,1.83,0.51			c0.601,0.2,1.135,0.47,1.604,0.81c0.471,0.34,0.85,0.77,1.141,1.29c0.289,0.521,0.435,1.16,0.435,1.92c0,0.92-0.21,1.7-0.63,2.34			s-0.965,1.16-1.635,1.56c-0.67,0.4-1.415,0.69-2.235,0.87c-0.82,0.18-1.63,0.27-2.43,0.27c-0.98,0-1.886-0.11-2.715-0.33			c-0.831-0.22-1.55-0.555-2.16-1.005s-1.091-1.01-1.44-1.68c-0.35-0.669-0.535-1.465-0.555-2.385H299.938z"/>		<path fill="#038342" d="M331.738,11.64c-0.141-0.96-0.525-1.685-1.155-2.175c-0.63-0.49-1.425-0.735-2.386-0.735			c-0.439,0-0.91,0.075-1.41,0.225s-0.959,0.43-1.379,0.84c-0.42,0.41-0.771,0.98-1.051,1.71c-0.279,0.73-0.42,1.685-0.42,2.865			c0,0.64,0.075,1.28,0.225,1.92c0.15,0.64,0.391,1.21,0.721,1.71c0.33,0.5,0.755,0.905,1.275,1.215			c0.52,0.311,1.149,0.465,1.89,0.465c1,0,1.825-0.31,2.476-0.93c0.648-0.62,1.055-1.49,1.215-2.61h3.42			c-0.32,2.02-1.086,3.565-2.295,4.635c-1.211,1.07-2.816,1.605-4.815,1.605c-1.22,0-2.295-0.205-3.226-0.615			c-0.93-0.41-1.715-0.97-2.354-1.68c-0.64-0.709-1.125-1.555-1.455-2.535c-0.33-0.979-0.495-2.04-0.495-3.18			c0-1.16,0.16-2.25,0.48-3.27c0.319-1.02,0.799-1.905,1.439-2.655s1.436-1.339,2.385-1.77c0.95-0.43,2.065-0.645,3.346-0.645			c0.9,0,1.755,0.116,2.564,0.345c0.811,0.23,1.53,0.575,2.16,1.035c0.631,0.46,1.145,1.04,1.545,1.74			c0.4,0.7,0.641,1.53,0.721,2.49H331.738z"/>		<path fill="#038342" d="M338.037,0.54h3.42v21.42h-3.42V0.54z"/>		<path fill="#038342" d="M347.967,0h4.051l-4.26,4.29h-2.49L347.967,0z M345.268,21.96V6.45h3.42v15.51H345.268z"/>		<path fill="#038342" d="M352.407,6.45h3.24v2.28l0.06,0.06c0.52-0.86,1.2-1.535,2.041-2.025c0.84-0.49,1.77-0.735,2.789-0.735			c1.7,0,3.04,0.44,4.021,1.32c0.979,0.88,1.47,2.2,1.47,3.96v10.65h-3.42v-9.75c-0.041-1.22-0.3-2.104-0.779-2.655			c-0.48-0.55-1.23-0.825-2.25-0.825c-0.581,0-1.102,0.105-1.561,0.315c-0.461,0.21-0.851,0.5-1.17,0.87			c-0.32,0.37-0.57,0.805-0.75,1.305c-0.18,0.5-0.27,1.031-0.27,1.59v9.15h-3.421V6.45z"/>		<path fill="#038342" d="M369.717,0.54h3.42v3.24h-3.42V0.54z M369.717,6.45h3.42v15.51h-3.42V6.45z"/>		<path fill="#038342" d="M387.327,11.64c-0.14-0.96-0.524-1.685-1.155-2.175c-0.63-0.49-1.425-0.735-2.385-0.735			c-0.439,0-0.91,0.075-1.41,0.225s-0.96,0.43-1.38,0.84c-0.42,0.41-0.771,0.98-1.05,1.71c-0.28,0.73-0.42,1.685-0.42,2.865			c0,0.64,0.074,1.28,0.225,1.92s0.391,1.21,0.721,1.71c0.33,0.5,0.754,0.905,1.274,1.215c0.521,0.311,1.149,0.465,1.89,0.465			c1,0,1.825-0.31,2.476-0.93c0.649-0.62,1.055-1.49,1.215-2.61h3.42c-0.32,2.02-1.085,3.565-2.295,4.635			c-1.21,1.07-2.815,1.605-4.815,1.605c-1.22,0-2.295-0.205-3.225-0.615s-1.715-0.97-2.355-1.68			c-0.64-0.709-1.125-1.555-1.455-2.535c-0.33-0.979-0.494-2.04-0.494-3.18c0-1.16,0.16-2.25,0.479-3.27s0.8-1.905,1.44-2.655			c0.64-0.75,1.435-1.339,2.385-1.77c0.949-0.43,2.064-0.645,3.346-0.645c0.899,0,1.754,0.116,2.564,0.345			c0.811,0.23,1.529,0.575,2.16,1.035c0.63,0.46,1.145,1.04,1.545,1.74c0.399,0.7,0.64,1.53,0.72,2.49H387.327z"/>		<path fill="#038342" d="M400.647,22.38c-1.24,0-2.345-0.205-3.315-0.615s-1.79-0.975-2.46-1.695c-0.67-0.72-1.181-1.58-1.53-2.58			c-0.35-1-0.524-2.1-0.524-3.3c0-1.18,0.175-2.27,0.524-3.27c0.35-1,0.86-1.86,1.53-2.58c0.67-0.72,1.489-1.285,2.46-1.695			c0.971-0.41,2.075-0.615,3.315-0.615c1.239,0,2.345,0.206,3.315,0.615c0.969,0.41,1.789,0.975,2.459,1.695			c0.67,0.72,1.18,1.58,1.53,2.58c0.35,1,0.525,2.09,0.525,3.27c0,1.2-0.176,2.3-0.525,3.3c-0.351,1-0.86,1.86-1.53,2.58			c-0.67,0.72-1.49,1.286-2.459,1.695C402.992,22.175,401.887,22.38,400.647,22.38z M400.647,19.68c0.76,0,1.42-0.16,1.979-0.48			c0.561-0.32,1.021-0.74,1.381-1.26c0.359-0.52,0.625-1.105,0.795-1.755s0.254-1.315,0.254-1.995c0-0.66-0.084-1.32-0.254-1.98			s-0.436-1.245-0.795-1.755c-0.36-0.51-0.82-0.925-1.381-1.245c-0.56-0.32-1.22-0.48-1.979-0.48c-0.761,0-1.421,0.16-1.979,0.48			c-0.561,0.32-1.021,0.735-1.381,1.245c-0.359,0.51-0.625,1.095-0.795,1.755s-0.255,1.32-0.255,1.98			c0,0.68,0.085,1.345,0.255,1.995s0.436,1.235,0.795,1.755c0.36,0.521,0.82,0.94,1.381,1.26			C399.227,19.52,399.887,19.68,400.647,19.68z"/>		<path fill="#038342" d="M413.906,16.98c0.101,1,0.48,1.7,1.141,2.1c0.66,0.4,1.449,0.6,2.37,0.6c0.319,0,0.685-0.025,1.095-0.075			c0.41-0.05,0.795-0.145,1.155-0.285c0.36-0.14,0.655-0.345,0.885-0.615s0.335-0.625,0.315-1.065c-0.021-0.44-0.18-0.8-0.48-1.08			c-0.3-0.28-0.686-0.505-1.154-0.675c-0.471-0.169-1.006-0.315-1.605-0.435c-0.6-0.12-1.211-0.25-1.83-0.39			c-0.641-0.14-1.256-0.31-1.846-0.51c-0.59-0.2-1.119-0.47-1.59-0.81c-0.47-0.34-0.845-0.774-1.125-1.305			c-0.279-0.53-0.42-1.185-0.42-1.965c0-0.84,0.205-1.545,0.615-2.115s0.93-1.03,1.561-1.38c0.63-0.35,1.33-0.595,2.1-0.735			c0.77-0.14,1.505-0.21,2.205-0.21c0.8,0,1.564,0.085,2.295,0.255s1.391,0.445,1.98,0.825c0.59,0.38,1.08,0.875,1.47,1.485			c0.39,0.61,0.635,1.346,0.735,2.205h-3.57c-0.16-0.82-0.535-1.37-1.125-1.65c-0.59-0.28-1.266-0.42-2.025-0.42			c-0.24,0-0.525,0.02-0.855,0.06c-0.329,0.04-0.64,0.115-0.93,0.225c-0.289,0.11-0.535,0.27-0.734,0.48			c-0.2,0.21-0.301,0.485-0.301,0.825c0,0.42,0.146,0.76,0.436,1.02c0.289,0.26,0.67,0.476,1.141,0.645			c0.469,0.17,1.004,0.315,1.604,0.435s1.22,0.25,1.86,0.39c0.619,0.14,1.229,0.31,1.83,0.51c0.6,0.2,1.135,0.47,1.604,0.81			c0.47,0.34,0.85,0.77,1.14,1.29c0.29,0.521,0.436,1.16,0.436,1.92c0,0.92-0.211,1.7-0.631,2.34s-0.965,1.16-1.635,1.56			c-0.67,0.4-1.414,0.69-2.234,0.87c-0.82,0.18-1.631,0.27-2.43,0.27c-0.98,0-1.886-0.11-2.715-0.33			c-0.831-0.22-1.551-0.555-2.16-1.005c-0.611-0.45-1.091-1.01-1.44-1.68c-0.351-0.669-0.536-1.465-0.556-2.385H413.906z"/>	</g></g></svg>