<!-- Generator: Adobe Illustrator 17.0.0, SVG Export Plug-In  --><svg version="1.1"	 xmlns="http://www.w3.org/2000/svg" xmlns:xlink="http://www.w3.org/1999/xlink" xmlns:a="http://ns.adobe.com/AdobeSVGViewerExtensions/3.0/"	 x="0px" y="0px" width="390.746px" height="28.11px" viewBox="0 0 390.746 28.11" enable-background="new 0 0 390.746 28.11"	 xml:space="preserve"><defs></defs><g>	<g>		<path fill="#038342" d="M7.409,22.38c-1.06,0-2.045-0.15-2.955-0.449C3.544,21.63,2.76,21.194,2.1,20.625S0.924,19.36,0.555,18.54			C0.184,17.72,0,16.8,0,15.78c0-1.32,0.344-2.43,1.034-3.33s1.625-1.5,2.806-1.801v-0.06c-0.961-0.36-1.695-0.915-2.205-1.665			S0.869,7.29,0.869,6.271c0-1.801,0.564-3.205,1.695-4.215C3.693,1.046,5.31,0.54,7.409,0.54c2.101,0,3.715,0.506,4.845,1.516			s1.695,2.414,1.695,4.215c0,1.02-0.255,1.904-0.765,2.654c-0.511,0.75-1.245,1.305-2.205,1.665v0.06			c1.18,0.301,2.114,0.9,2.805,1.801s1.035,2.01,1.035,3.33c0,1.02-0.185,1.939-0.556,2.76c-0.369,0.82-0.885,1.516-1.545,2.085			c-0.659,0.569-1.444,1.005-2.354,1.306C9.454,22.229,8.469,22.38,7.409,22.38z M7.409,19.681c1.14,0,2.09-0.34,2.851-1.021			c0.76-0.68,1.14-1.64,1.14-2.88c0-1.16-0.38-2.064-1.14-2.715c-0.761-0.65-1.711-0.976-2.851-0.976s-2.09,0.325-2.85,0.976			c-0.761,0.65-1.14,1.555-1.14,2.715c0,1.24,0.379,2.2,1.14,2.88C5.319,19.341,6.27,19.681,7.409,19.681z M7.409,3.239			c-0.92,0-1.7,0.275-2.34,0.826c-0.64,0.55-0.96,1.345-0.96,2.385c0,1,0.31,1.766,0.93,2.295s1.41,0.795,2.37,0.795			s1.75-0.266,2.37-0.795c0.619-0.529,0.93-1.295,0.93-2.295c0-1.04-0.32-1.835-0.959-2.385C9.109,3.515,8.329,3.239,7.409,3.239z"			/>		<path fill="#038342" d="M17.819,17.91h4.171v4.05h-4.171V17.91z"/>		<path fill="#038342" d="M34.709,0.54h10.23c2.359,0,4.129,0.51,5.31,1.529C51.43,3.09,52.02,4.511,52.02,6.33			c0,1.021-0.15,1.865-0.45,2.534c-0.3,0.671-0.65,1.211-1.05,1.621c-0.4,0.41-0.795,0.705-1.186,0.885			c-0.39,0.18-0.675,0.3-0.855,0.359v0.061c0.32,0.04,0.666,0.141,1.035,0.3c0.371,0.161,0.715,0.415,1.035,0.765			c0.32,0.351,0.586,0.806,0.795,1.365c0.211,0.561,0.315,1.26,0.315,2.1c0,1.261,0.095,2.406,0.285,3.436			c0.19,1.03,0.484,1.766,0.885,2.205h-4.021c-0.279-0.46-0.445-0.97-0.494-1.529c-0.051-0.561-0.075-1.101-0.075-1.621			c0-0.979-0.06-1.824-0.181-2.535c-0.119-0.709-0.34-1.299-0.659-1.77c-0.32-0.47-0.755-0.814-1.306-1.035			c-0.55-0.22-1.255-0.33-2.115-0.33h-5.52v8.82h-3.75V0.54z M38.459,10.29h6.15c1.199,0,2.109-0.285,2.73-0.855			c0.619-0.57,0.93-1.425,0.93-2.564c0-0.68-0.101-1.234-0.301-1.665C47.77,4.774,47.494,4.44,47.145,4.2			c-0.351-0.24-0.75-0.4-1.2-0.48s-0.915-0.119-1.396-0.119h-6.09V10.29z"/>		<path fill="#038342" d="M58.02,15.09c0,0.601,0.084,1.181,0.255,1.74c0.169,0.56,0.425,1.05,0.765,1.47s0.77,0.756,1.29,1.006			s1.14,0.375,1.86,0.375c1,0,1.805-0.215,2.415-0.646s1.065-1.075,1.364-1.935h3.24c-0.18,0.84-0.49,1.59-0.93,2.25			c-0.439,0.659-0.971,1.215-1.59,1.664c-0.62,0.45-1.315,0.791-2.085,1.021c-0.771,0.229-1.575,0.345-2.415,0.345			c-1.221,0-2.301-0.2-3.24-0.6c-0.94-0.4-1.735-0.961-2.385-1.68c-0.65-0.721-1.141-1.58-1.471-2.58S54.6,15.42,54.6,14.22			c0-1.1,0.174-2.145,0.525-3.135c0.35-0.99,0.85-1.859,1.5-2.609c0.648-0.75,1.434-1.346,2.354-1.785			c0.919-0.439,1.96-0.66,3.12-0.66c1.219,0,2.314,0.255,3.285,0.765c0.969,0.511,1.774,1.185,2.414,2.024			c0.641,0.841,1.105,1.806,1.396,2.896c0.29,1.091,0.364,2.216,0.226,3.375H58.02z M66,12.84c-0.041-0.54-0.156-1.06-0.346-1.56			c-0.19-0.5-0.45-0.936-0.779-1.305c-0.33-0.371-0.73-0.67-1.201-0.9c-0.47-0.23-0.994-0.346-1.574-0.346			c-0.6,0-1.146,0.105-1.635,0.315c-0.49,0.21-0.91,0.5-1.261,0.87s-0.63,0.805-0.84,1.305s-0.325,1.041-0.345,1.62H66z"/>		<path fill="#038342" d="M70.499,6.45h2.55V5.16c0-0.979,0.12-1.774,0.36-2.386c0.239-0.609,0.56-1.08,0.96-1.41			c0.4-0.329,0.855-0.549,1.365-0.659s1.045-0.165,1.604-0.165c1.1,0,1.899,0.07,2.399,0.21v2.67			c-0.22-0.06-0.455-0.104-0.704-0.135c-0.251-0.03-0.546-0.046-0.886-0.046c-0.46,0-0.854,0.111-1.185,0.33			c-0.33,0.221-0.495,0.65-0.495,1.291v1.59h2.91V9h-2.91v12.96h-3.42V9h-2.55V6.45z"/>		<path fill="#038342" d="M84.148,15.09c0,0.601,0.085,1.181,0.256,1.74c0.169,0.56,0.424,1.05,0.765,1.47			c0.34,0.42,0.77,0.756,1.29,1.006c0.52,0.25,1.14,0.375,1.859,0.375c1,0,1.805-0.215,2.416-0.646			c0.609-0.431,1.064-1.075,1.364-1.935h3.24c-0.181,0.84-0.49,1.59-0.931,2.25c-0.439,0.659-0.97,1.215-1.59,1.664			c-0.619,0.45-1.314,0.791-2.084,1.021c-0.771,0.229-1.576,0.345-2.416,0.345c-1.22,0-2.3-0.2-3.24-0.6			c-0.939-0.4-1.734-0.961-2.385-1.68c-0.65-0.721-1.14-1.58-1.47-2.58s-0.495-2.101-0.495-3.301c0-1.1,0.175-2.145,0.525-3.135			c0.35-0.99,0.85-1.859,1.5-2.609c0.649-0.75,1.435-1.346,2.355-1.785c0.919-0.439,1.959-0.66,3.119-0.66			c1.22,0,2.314,0.255,3.285,0.765c0.97,0.511,1.775,1.185,2.415,2.024c0.64,0.841,1.104,1.806,1.396,2.896			c0.289,1.091,0.364,2.216,0.225,3.375H84.148z M92.129,12.84c-0.041-0.54-0.155-1.06-0.346-1.56			c-0.189-0.5-0.449-0.936-0.779-1.305c-0.33-0.371-0.73-0.67-1.2-0.9s-0.995-0.346-1.575-0.346c-0.6,0-1.145,0.105-1.635,0.315			s-0.91,0.5-1.26,0.87c-0.351,0.37-0.631,0.805-0.84,1.305c-0.211,0.5-0.326,1.041-0.346,1.62H92.129z"/>		<path fill="#038342" d="M98.158,6.45h3.211v3h0.06c0.101-0.42,0.295-0.83,0.585-1.23c0.29-0.399,0.641-0.765,1.051-1.095			c0.409-0.33,0.864-0.595,1.364-0.795s1.01-0.3,1.53-0.3c0.4,0,0.675,0.01,0.824,0.029c0.15,0.021,0.305,0.041,0.466,0.061v3.3			c-0.24-0.04-0.485-0.075-0.735-0.104c-0.25-0.03-0.494-0.045-0.734-0.045c-0.58,0-1.125,0.115-1.635,0.344			c-0.511,0.23-0.956,0.57-1.336,1.021s-0.68,1.005-0.9,1.665c-0.22,0.66-0.329,1.42-0.329,2.28v7.38h-3.421V6.45z"/>		<path fill="#038342" d="M110.85,15.09c0,0.601,0.084,1.181,0.254,1.74s0.426,1.05,0.766,1.47s0.77,0.756,1.289,1.006			c0.521,0.25,1.141,0.375,1.861,0.375c0.999,0,1.805-0.215,2.414-0.646c0.61-0.431,1.065-1.075,1.365-1.935h3.24			c-0.18,0.84-0.49,1.59-0.93,2.25c-0.44,0.659-0.971,1.215-1.59,1.664c-0.621,0.45-1.316,0.791-2.086,1.021			s-1.574,0.345-2.414,0.345c-1.221,0-2.301-0.2-3.24-0.6c-0.941-0.4-1.736-0.961-2.385-1.68c-0.65-0.721-1.141-1.58-1.471-2.58			s-0.495-2.101-0.495-3.301c0-1.1,0.175-2.145,0.525-3.135c0.35-0.99,0.85-1.859,1.5-2.609c0.649-0.75,1.435-1.346,2.354-1.785			s1.96-0.66,3.12-0.66c1.22,0,2.315,0.255,3.285,0.765c0.97,0.511,1.774,1.185,2.415,2.024c0.64,0.841,1.105,1.806,1.395,2.896			c0.29,1.091,0.365,2.216,0.226,3.375H110.85z M118.829,12.84c-0.04-0.54-0.155-1.06-0.345-1.56c-0.191-0.5-0.451-0.936-0.78-1.305			c-0.33-0.371-0.73-0.67-1.2-0.9c-0.471-0.23-0.995-0.346-1.575-0.346c-0.6,0-1.146,0.105-1.635,0.315			c-0.49,0.21-0.91,0.5-1.261,0.87c-0.35,0.37-0.629,0.805-0.84,1.305c-0.209,0.5-0.324,1.041-0.344,1.62H118.829z"/>		<path fill="#038342" d="M124.858,6.45h3.24v2.279l0.06,0.061c0.52-0.859,1.2-1.535,2.041-2.025c0.84-0.49,1.77-0.734,2.789-0.734			c1.7,0,3.04,0.439,4.021,1.32c0.979,0.88,1.47,2.199,1.47,3.959v10.65h-3.42v-9.75c-0.041-1.22-0.3-2.104-0.779-2.654			c-0.48-0.551-1.23-0.826-2.25-0.826c-0.581,0-1.102,0.105-1.561,0.315c-0.461,0.21-0.851,0.5-1.17,0.87			c-0.32,0.37-0.57,0.805-0.75,1.305s-0.27,1.031-0.27,1.59v9.15h-3.421V6.45z"/>		<path fill="#038342" d="M152.549,11.64c-0.141-0.959-0.525-1.685-1.155-2.175c-0.63-0.489-1.425-0.735-2.386-0.735			c-0.439,0-0.91,0.076-1.41,0.226s-0.959,0.431-1.379,0.84c-0.42,0.41-0.771,0.979-1.051,1.71c-0.279,0.73-0.42,1.686-0.42,2.865			c0,0.641,0.075,1.279,0.225,1.92c0.15,0.641,0.391,1.211,0.721,1.71c0.33,0.5,0.755,0.905,1.275,1.215			c0.52,0.311,1.149,0.466,1.89,0.466c1,0,1.825-0.311,2.476-0.931c0.648-0.62,1.055-1.489,1.215-2.61h3.42			c-0.32,2.021-1.086,3.565-2.295,4.635c-1.211,1.07-2.816,1.605-4.815,1.605c-1.22,0-2.295-0.205-3.226-0.615			c-0.93-0.409-1.715-0.97-2.354-1.68c-0.64-0.709-1.125-1.555-1.455-2.535c-0.33-0.979-0.495-2.04-0.495-3.18			c0-1.16,0.16-2.25,0.48-3.27c0.319-1.021,0.799-1.906,1.439-2.656s1.436-1.339,2.385-1.77c0.95-0.43,2.065-0.645,3.346-0.645			c0.9,0,1.755,0.115,2.564,0.345c0.811,0.229,1.53,0.575,2.16,1.035c0.631,0.46,1.145,1.04,1.545,1.739			c0.4,0.701,0.641,1.531,0.721,2.49H152.549z"/>		<path fill="#038342" d="M158.849,0.54h3.42v3.24h-3.42V0.54z M158.849,6.45h3.42v15.51h-3.42V6.45z"/>		<path fill="#038342" d="M178.979,18.51c0,0.421,0.055,0.72,0.165,0.9c0.109,0.18,0.325,0.271,0.646,0.271c0.1,0,0.219,0,0.359,0			c0.14,0,0.3-0.021,0.48-0.061v2.369c-0.121,0.041-0.275,0.086-0.465,0.136c-0.191,0.05-0.386,0.095-0.586,0.135			c-0.199,0.04-0.4,0.069-0.6,0.091c-0.2,0.02-0.37,0.029-0.51,0.029c-0.701,0-1.28-0.141-1.74-0.42			c-0.461-0.279-0.76-0.77-0.9-1.471c-0.68,0.66-1.515,1.141-2.505,1.441c-0.989,0.299-1.945,0.449-2.864,0.449			c-0.701,0-1.371-0.096-2.011-0.285s-1.205-0.469-1.694-0.84c-0.49-0.369-0.881-0.84-1.17-1.41			c-0.291-0.57-0.436-1.234-0.436-1.994c0-0.961,0.175-1.74,0.525-2.341c0.35-0.6,0.81-1.069,1.38-1.409			c0.569-0.34,1.21-0.586,1.92-0.736c0.71-0.149,1.425-0.264,2.146-0.344c0.619-0.121,1.209-0.205,1.77-0.256			c0.56-0.049,1.055-0.135,1.484-0.255s0.77-0.305,1.021-0.555c0.25-0.25,0.375-0.625,0.375-1.125c0-0.44-0.104-0.8-0.315-1.08			c-0.209-0.28-0.47-0.495-0.779-0.646c-0.311-0.149-0.656-0.25-1.035-0.299c-0.381-0.051-0.74-0.076-1.08-0.076			c-0.96,0-1.75,0.201-2.37,0.601c-0.62,0.4-0.97,1.021-1.05,1.86h-3.42c0.06-1,0.3-1.83,0.72-2.49s0.955-1.189,1.604-1.59			c0.65-0.4,1.385-0.68,2.205-0.84s1.66-0.24,2.521-0.24c0.76,0,1.51,0.08,2.25,0.24c0.739,0.16,1.405,0.42,1.995,0.779			c0.59,0.36,1.064,0.825,1.425,1.395c0.36,0.57,0.54,1.266,0.54,2.086V18.51z M175.559,14.19c-0.521,0.34-1.16,0.545-1.92,0.615			c-0.761,0.07-1.521,0.175-2.28,0.314c-0.36,0.061-0.71,0.145-1.05,0.255s-0.641,0.261-0.9,0.45s-0.465,0.439-0.615,0.75			c-0.149,0.311-0.225,0.686-0.225,1.125c0,0.38,0.109,0.7,0.33,0.96c0.22,0.26,0.484,0.465,0.795,0.614			c0.311,0.15,0.65,0.256,1.02,0.315c0.371,0.06,0.705,0.091,1.006,0.091c0.379,0,0.789-0.051,1.229-0.15s0.855-0.271,1.245-0.51			c0.391-0.24,0.715-0.545,0.975-0.916c0.26-0.369,0.391-0.824,0.391-1.365V14.19z"/>		<path fill="#038342" d="M185.248,16.979c0.1,1.001,0.48,1.701,1.141,2.101c0.66,0.4,1.449,0.601,2.369,0.601			c0.32,0,0.686-0.025,1.096-0.076c0.409-0.049,0.795-0.145,1.154-0.285c0.36-0.139,0.655-0.344,0.885-0.614			c0.23-0.271,0.336-0.625,0.315-1.065c-0.021-0.439-0.18-0.799-0.479-1.08c-0.301-0.279-0.686-0.504-1.155-0.675			c-0.47-0.169-1.005-0.315-1.604-0.435c-0.601-0.12-1.211-0.25-1.83-0.391c-0.641-0.139-1.256-0.31-1.846-0.51			c-0.59-0.199-1.12-0.47-1.59-0.811c-0.471-0.34-0.846-0.773-1.125-1.305c-0.28-0.529-0.42-1.185-0.42-1.965			c0-0.84,0.205-1.545,0.615-2.115c0.409-0.569,0.93-1.029,1.56-1.379s1.33-0.596,2.101-0.736c0.77-0.139,1.504-0.209,2.205-0.209			c0.799,0,1.564,0.085,2.295,0.255c0.729,0.17,1.39,0.445,1.979,0.825s1.08,0.875,1.47,1.484c0.391,0.61,0.635,1.346,0.735,2.205			h-3.569c-0.161-0.82-0.536-1.369-1.125-1.65c-0.591-0.279-1.266-0.42-2.025-0.42c-0.24,0-0.525,0.021-0.855,0.061			s-0.641,0.115-0.93,0.225c-0.29,0.11-0.535,0.271-0.735,0.48s-0.3,0.484-0.3,0.824c0,0.42,0.145,0.761,0.436,1.021			c0.289,0.261,0.67,0.476,1.14,0.646s1.005,0.314,1.604,0.435c0.601,0.12,1.221,0.251,1.86,0.39c0.62,0.141,1.229,0.311,1.83,0.51			c0.601,0.201,1.135,0.471,1.604,0.811c0.471,0.34,0.85,0.77,1.141,1.29c0.289,0.521,0.435,1.16,0.435,1.92			c0,0.921-0.21,1.7-0.63,2.341c-0.42,0.64-0.965,1.16-1.635,1.559c-0.67,0.4-1.415,0.691-2.235,0.871s-1.63,0.27-2.43,0.27			c-0.98,0-1.886-0.109-2.715-0.33c-0.831-0.22-1.55-0.555-2.16-1.005s-1.091-1.01-1.44-1.681c-0.35-0.669-0.535-1.465-0.555-2.385			H185.248z"/>		<path fill="#038342" d="M206.668,0.54h3.42v7.92h0.061c0.24-0.38,0.529-0.721,0.87-1.02c0.34-0.301,0.715-0.556,1.125-0.766			c0.409-0.21,0.84-0.369,1.29-0.48c0.449-0.109,0.895-0.164,1.335-0.164c1.22,0,2.284,0.215,3.194,0.645			c0.91,0.431,1.666,1.02,2.266,1.77s1.05,1.626,1.35,2.625c0.301,1.001,0.45,2.07,0.45,3.211c0,1.04-0.135,2.05-0.405,3.029			c-0.27,0.98-0.68,1.846-1.229,2.596c-0.551,0.75-1.245,1.35-2.085,1.8s-1.83,0.675-2.971,0.675c-0.52,0-1.045-0.035-1.574-0.105			c-0.53-0.07-1.035-0.205-1.516-0.404c-0.479-0.199-0.914-0.46-1.305-0.78c-0.391-0.319-0.715-0.739-0.975-1.26h-0.061v2.13h-3.24			V0.54z M218.608,14.22c0-0.699-0.09-1.38-0.271-2.039c-0.18-0.66-0.449-1.246-0.81-1.756s-0.81-0.92-1.351-1.23			c-0.539-0.309-1.16-0.465-1.859-0.465c-1.439,0-2.525,0.5-3.255,1.5c-0.73,1.001-1.095,2.33-1.095,3.99			c0,0.78,0.094,1.506,0.285,2.176c0.189,0.67,0.475,1.244,0.854,1.725s0.835,0.859,1.364,1.14c0.53,0.28,1.146,0.421,1.846,0.421			c0.779,0,1.439-0.16,1.98-0.48c0.539-0.32,0.984-0.735,1.334-1.245c0.35-0.511,0.601-1.09,0.75-1.74			C218.533,15.565,218.608,14.899,218.608,14.22z"/>		<path fill="#038342" d="M224.998,0.54h3.42v3.24h-3.42V0.54z M224.998,6.45h3.42v15.51h-3.42V6.45z"/>		<path fill="#038342" d="M232.229,0.54h3.42v7.92h0.06c0.239-0.38,0.53-0.721,0.87-1.02c0.34-0.301,0.715-0.556,1.125-0.766			s0.84-0.369,1.289-0.48c0.451-0.109,0.896-0.164,1.336-0.164c1.219,0,2.285,0.215,3.195,0.645c0.909,0.431,1.664,1.02,2.265,1.77			c0.6,0.75,1.05,1.626,1.35,2.625c0.3,1.001,0.45,2.07,0.45,3.211c0,1.04-0.135,2.05-0.404,3.029			c-0.271,0.98-0.681,1.846-1.23,2.596c-0.551,0.75-1.245,1.35-2.086,1.8c-0.84,0.45-1.829,0.675-2.969,0.675			c-0.521,0-1.046-0.035-1.576-0.105c-0.529-0.07-1.034-0.205-1.514-0.404c-0.48-0.199-0.916-0.46-1.306-0.78			c-0.39-0.319-0.716-0.739-0.976-1.26h-0.06v2.13h-3.239V0.54z M244.168,14.22c0-0.699-0.09-1.38-0.27-2.039			c-0.181-0.66-0.451-1.246-0.811-1.756s-0.811-0.92-1.35-1.23c-0.541-0.309-1.16-0.465-1.86-0.465c-1.44,0-2.525,0.5-3.255,1.5			c-0.73,1.001-1.096,2.33-1.096,3.99c0,0.78,0.096,1.506,0.285,2.176c0.19,0.67,0.475,1.244,0.855,1.725			c0.379,0.48,0.835,0.859,1.365,1.14c0.529,0.28,1.145,0.421,1.845,0.421c0.78,0,1.44-0.16,1.979-0.48			c0.541-0.32,0.985-0.735,1.336-1.245c0.35-0.511,0.6-1.09,0.75-1.74C244.093,15.565,244.168,14.899,244.168,14.22z"/>		<path fill="#038342" d="M250.559,0.54h3.42v21.42h-3.42V0.54z"/>		<path fill="#038342" d="M257.787,0.54h3.42v3.24h-3.42V0.54z M257.787,6.45h3.42v15.51h-3.42V6.45z"/>		<path fill="#038342" d="M272.037,22.38c-1.24,0-2.345-0.205-3.314-0.615c-0.971-0.409-1.791-0.975-2.461-1.695			c-0.67-0.719-1.18-1.579-1.529-2.58c-0.35-0.999-0.525-2.1-0.525-3.299c0-1.18,0.176-2.27,0.525-3.271			c0.35-1,0.859-1.86,1.529-2.58s1.49-1.284,2.461-1.694c0.97-0.41,2.074-0.615,3.314-0.615s2.346,0.205,3.315,0.615			s1.79,0.975,2.46,1.694s1.18,1.58,1.529,2.58c0.35,1.001,0.525,2.091,0.525,3.271c0,1.199-0.176,2.3-0.525,3.299			c-0.35,1.001-0.859,1.861-1.529,2.58c-0.67,0.721-1.49,1.286-2.46,1.695C274.383,22.175,273.277,22.38,272.037,22.38z			 M272.037,19.681c0.76,0,1.42-0.16,1.98-0.48c0.56-0.32,1.02-0.74,1.38-1.26c0.36-0.521,0.625-1.105,0.795-1.756			c0.17-0.649,0.255-1.314,0.255-1.994c0-0.66-0.085-1.32-0.255-1.98s-0.435-1.245-0.795-1.755c-0.36-0.511-0.82-0.925-1.38-1.245			c-0.561-0.32-1.221-0.48-1.98-0.48s-1.42,0.16-1.979,0.48c-0.561,0.32-1.021,0.734-1.38,1.245c-0.36,0.51-0.625,1.095-0.795,1.755			s-0.256,1.32-0.256,1.98c0,0.68,0.086,1.345,0.256,1.994c0.17,0.65,0.435,1.235,0.795,1.756c0.359,0.52,0.819,0.939,1.38,1.26			C270.617,19.521,271.277,19.681,272.037,19.681z"/>		<path fill="#038342" d="M297.057,21.149c0,2.34-0.654,4.086-1.965,5.235s-3.195,1.726-5.654,1.726c-0.78,0-1.565-0.08-2.355-0.24			c-0.791-0.16-1.51-0.431-2.16-0.811s-1.195-0.88-1.635-1.5c-0.44-0.619-0.7-1.379-0.78-2.279h3.42			c0.101,0.479,0.271,0.869,0.511,1.17c0.239,0.3,0.524,0.535,0.854,0.705s0.694,0.279,1.095,0.33c0.4,0.049,0.82,0.074,1.26,0.074			c1.381,0,2.391-0.34,3.03-1.02s0.96-1.66,0.96-2.939v-2.371h-0.06c-0.479,0.861-1.136,1.53-1.966,2.01			c-0.83,0.48-1.725,0.721-2.685,0.721c-1.24,0-2.295-0.215-3.165-0.645c-0.869-0.43-1.59-1.021-2.16-1.771			c-0.569-0.75-0.984-1.614-1.244-2.595c-0.261-0.98-0.391-2.029-0.391-3.15c0-1.039,0.16-2.029,0.48-2.97			c0.319-0.94,0.779-1.765,1.38-2.476c0.6-0.709,1.335-1.274,2.205-1.694c0.87-0.421,1.854-0.63,2.954-0.63			c0.98,0,1.881,0.205,2.701,0.615c0.819,0.41,1.449,1.055,1.89,1.935h0.06V6.45h3.42V21.149z M289.467,19.26			c0.76,0,1.405-0.154,1.936-0.465c0.529-0.31,0.959-0.72,1.289-1.229s0.57-1.09,0.721-1.74s0.225-1.305,0.225-1.965			s-0.08-1.301-0.24-1.92c-0.16-0.62-0.404-1.17-0.734-1.65s-0.76-0.859-1.29-1.141c-0.53-0.279-1.165-0.42-1.905-0.42			c-0.76,0-1.4,0.16-1.92,0.48s-0.94,0.734-1.26,1.245c-0.32,0.51-0.551,1.091-0.689,1.739c-0.141,0.65-0.211,1.296-0.211,1.936			c0,0.641,0.08,1.266,0.24,1.875c0.16,0.61,0.405,1.155,0.734,1.635c0.33,0.48,0.75,0.87,1.261,1.17			C288.132,19.11,288.747,19.26,289.467,19.26z"/>		<path fill="#038342" d="M300.507,6.45h3.21v3h0.061c0.1-0.42,0.295-0.83,0.584-1.23c0.291-0.399,0.641-0.765,1.051-1.095			s0.865-0.595,1.365-0.795s1.01-0.3,1.529-0.3c0.4,0,0.676,0.01,0.825,0.029c0.15,0.021,0.305,0.041,0.466,0.061v3.3			c-0.24-0.04-0.486-0.075-0.736-0.104c-0.25-0.03-0.494-0.045-0.734-0.045c-0.58,0-1.125,0.115-1.635,0.344			c-0.51,0.23-0.955,0.57-1.335,1.021s-0.681,1.005-0.9,1.665s-0.329,1.42-0.329,2.28v7.38h-3.421V6.45z"/>		<path fill="#038342" d="M324.057,18.51c0,0.421,0.055,0.72,0.165,0.9c0.109,0.18,0.325,0.271,0.646,0.271c0.1,0,0.219,0,0.359,0			c0.14,0,0.3-0.021,0.48-0.061v2.369c-0.121,0.041-0.275,0.086-0.465,0.136c-0.191,0.05-0.386,0.095-0.586,0.135			c-0.199,0.04-0.4,0.069-0.6,0.091c-0.2,0.02-0.37,0.029-0.51,0.029c-0.701,0-1.28-0.141-1.74-0.42			c-0.461-0.279-0.76-0.77-0.9-1.471c-0.68,0.66-1.515,1.141-2.505,1.441c-0.989,0.299-1.945,0.449-2.864,0.449			c-0.701,0-1.371-0.096-2.011-0.285s-1.205-0.469-1.694-0.84c-0.49-0.369-0.881-0.84-1.17-1.41			c-0.291-0.57-0.436-1.234-0.436-1.994c0-0.961,0.175-1.74,0.525-2.341c0.35-0.6,0.81-1.069,1.38-1.409			c0.569-0.34,1.21-0.586,1.92-0.736c0.71-0.149,1.425-0.264,2.146-0.344c0.619-0.121,1.209-0.205,1.77-0.256			c0.56-0.049,1.055-0.135,1.484-0.255s0.77-0.305,1.021-0.555c0.25-0.25,0.375-0.625,0.375-1.125c0-0.44-0.104-0.8-0.315-1.08			c-0.209-0.28-0.47-0.495-0.779-0.646c-0.311-0.149-0.656-0.25-1.035-0.299c-0.381-0.051-0.74-0.076-1.08-0.076			c-0.96,0-1.75,0.201-2.37,0.601c-0.62,0.4-0.97,1.021-1.05,1.86h-3.42c0.06-1,0.3-1.83,0.72-2.49s0.955-1.189,1.604-1.59			c0.65-0.4,1.385-0.68,2.205-0.84s1.66-0.24,2.521-0.24c0.76,0,1.51,0.08,2.25,0.24c0.739,0.16,1.405,0.42,1.995,0.779			c0.59,0.36,1.064,0.825,1.425,1.395c0.36,0.57,0.54,1.266,0.54,2.086V18.51z M320.637,14.19c-0.521,0.34-1.16,0.545-1.92,0.615			c-0.761,0.07-1.521,0.175-2.28,0.314c-0.36,0.061-0.71,0.145-1.05,0.255s-0.641,0.261-0.9,0.45s-0.465,0.439-0.615,0.75			c-0.149,0.311-0.225,0.686-0.225,1.125c0,0.38,0.109,0.7,0.33,0.96c0.22,0.26,0.484,0.465,0.795,0.614			c0.311,0.15,0.65,0.256,1.02,0.315c0.371,0.06,0.705,0.091,1.006,0.091c0.379,0,0.789-0.051,1.229-0.15s0.855-0.271,1.245-0.51			c0.391-0.24,0.715-0.545,0.975-0.916c0.26-0.369,0.391-0.824,0.391-1.365V14.19z M318.687,0h4.05l-4.26,4.29h-2.49L318.687,0z"/>		<path fill="#038342" d="M326.217,6.45h2.549V5.16c0-0.979,0.121-1.774,0.361-2.386c0.239-0.609,0.559-1.08,0.959-1.41			c0.4-0.329,0.855-0.549,1.365-0.659s1.045-0.165,1.605-0.165c1.1,0,1.899,0.07,2.399,0.21v2.67			c-0.22-0.06-0.455-0.104-0.704-0.135c-0.251-0.03-0.546-0.046-0.886-0.046c-0.46,0-0.854,0.111-1.185,0.33			c-0.33,0.221-0.495,0.65-0.495,1.291v1.59h2.909V9h-2.909v12.96h-3.421V9h-2.549V6.45z"/>		<path fill="#038342" d="M337.286,0.54h3.42v3.24h-3.42V0.54z M337.286,6.45h3.42v15.51h-3.42V6.45z"/>		<path fill="#038342" d="M354.896,11.64c-0.141-0.959-0.525-1.685-1.155-2.175c-0.63-0.489-1.425-0.735-2.386-0.735			c-0.439,0-0.91,0.076-1.41,0.226s-0.959,0.431-1.379,0.84c-0.42,0.41-0.771,0.979-1.051,1.71c-0.279,0.73-0.42,1.686-0.42,2.865			c0,0.641,0.075,1.279,0.225,1.92c0.15,0.641,0.391,1.211,0.721,1.71c0.33,0.5,0.755,0.905,1.275,1.215			c0.52,0.311,1.149,0.466,1.89,0.466c1,0,1.825-0.311,2.476-0.931c0.648-0.62,1.055-1.489,1.215-2.61h3.42			c-0.32,2.021-1.086,3.565-2.295,4.635c-1.211,1.07-2.816,1.605-4.815,1.605c-1.22,0-2.295-0.205-3.226-0.615			c-0.93-0.409-1.715-0.97-2.354-1.68c-0.64-0.709-1.125-1.555-1.455-2.535c-0.33-0.979-0.495-2.04-0.495-3.18			c0-1.16,0.16-2.25,0.48-3.27c0.319-1.021,0.799-1.906,1.439-2.656s1.436-1.339,2.385-1.77c0.95-0.43,2.065-0.645,3.346-0.645			c0.9,0,1.755,0.115,2.564,0.345c0.811,0.229,1.53,0.575,2.16,1.035c0.631,0.46,1.145,1.04,1.545,1.739			c0.4,0.701,0.641,1.531,0.721,2.49H354.896z"/>		<path fill="#038342" d="M374.096,18.51c0,0.421,0.055,0.72,0.166,0.9c0.109,0.18,0.324,0.271,0.645,0.271c0.1,0,0.22,0,0.359,0			c0.141,0,0.301-0.021,0.48-0.061v2.369c-0.12,0.041-0.275,0.086-0.465,0.136c-0.19,0.05-0.385,0.095-0.585,0.135			s-0.4,0.069-0.601,0.091c-0.199,0.02-0.369,0.029-0.51,0.029c-0.7,0-1.279-0.141-1.74-0.42c-0.46-0.279-0.76-0.77-0.899-1.471			c-0.681,0.66-1.515,1.141-2.505,1.441c-0.99,0.299-1.945,0.449-2.865,0.449c-0.7,0-1.37-0.096-2.01-0.285			c-0.641-0.189-1.205-0.469-1.695-0.84c-0.49-0.369-0.881-0.84-1.17-1.41c-0.29-0.57-0.436-1.234-0.436-1.994			c0-0.961,0.176-1.74,0.525-2.341c0.35-0.6,0.811-1.069,1.381-1.409c0.569-0.34,1.209-0.586,1.92-0.736			c0.709-0.149,1.424-0.264,2.145-0.344c0.619-0.121,1.209-0.205,1.77-0.256c0.561-0.049,1.055-0.135,1.485-0.255			c0.43-0.12,0.77-0.305,1.021-0.555c0.25-0.25,0.375-0.625,0.375-1.125c0-0.44-0.105-0.8-0.315-1.08s-0.47-0.495-0.78-0.646			c-0.311-0.149-0.655-0.25-1.035-0.299c-0.38-0.051-0.74-0.076-1.08-0.076c-0.959,0-1.75,0.201-2.369,0.601			c-0.621,0.4-0.971,1.021-1.051,1.86h-3.42c0.061-1,0.301-1.83,0.721-2.49s0.955-1.189,1.604-1.59s1.385-0.68,2.205-0.84			c0.819-0.16,1.659-0.24,2.521-0.24c0.76,0,1.51,0.08,2.25,0.24c0.739,0.16,1.404,0.42,1.994,0.779			c0.59,0.36,1.065,0.825,1.426,1.395c0.359,0.57,0.539,1.266,0.539,2.086V18.51z M370.676,14.19c-0.52,0.34-1.16,0.545-1.92,0.615			s-1.52,0.175-2.279,0.314c-0.36,0.061-0.711,0.145-1.051,0.255s-0.641,0.261-0.899,0.45c-0.261,0.189-0.466,0.439-0.615,0.75			s-0.226,0.686-0.226,1.125c0,0.38,0.11,0.7,0.33,0.96c0.221,0.26,0.485,0.465,0.795,0.614c0.311,0.15,0.65,0.256,1.021,0.315			s0.705,0.091,1.005,0.091c0.38,0,0.79-0.051,1.23-0.15c0.439-0.1,0.855-0.271,1.244-0.51c0.391-0.24,0.715-0.545,0.976-0.916			c0.26-0.369,0.39-0.824,0.39-1.365V14.19z"/>		<path fill="#038342" d="M380.365,16.979c0.101,1.001,0.48,1.701,1.141,2.101c0.66,0.4,1.449,0.601,2.37,0.601			c0.319,0,0.685-0.025,1.095-0.076c0.41-0.049,0.795-0.145,1.155-0.285c0.36-0.139,0.655-0.344,0.885-0.614			s0.335-0.625,0.315-1.065c-0.021-0.439-0.18-0.799-0.48-1.08c-0.3-0.279-0.686-0.504-1.154-0.675			c-0.471-0.169-1.006-0.315-1.605-0.435c-0.6-0.12-1.211-0.25-1.83-0.391c-0.641-0.139-1.256-0.31-1.846-0.51			c-0.59-0.199-1.119-0.47-1.59-0.811c-0.47-0.34-0.845-0.773-1.125-1.305c-0.279-0.529-0.42-1.185-0.42-1.965			c0-0.84,0.205-1.545,0.615-2.115c0.41-0.569,0.93-1.029,1.561-1.379c0.63-0.35,1.33-0.596,2.1-0.736			c0.77-0.139,1.505-0.209,2.205-0.209c0.8,0,1.564,0.085,2.295,0.255s1.391,0.445,1.98,0.825s1.08,0.875,1.47,1.484			c0.39,0.61,0.635,1.346,0.735,2.205h-3.57c-0.16-0.82-0.535-1.369-1.125-1.65c-0.59-0.279-1.266-0.42-2.025-0.42			c-0.24,0-0.525,0.021-0.855,0.061c-0.329,0.04-0.64,0.115-0.93,0.225c-0.289,0.11-0.535,0.271-0.734,0.48			c-0.2,0.21-0.301,0.484-0.301,0.824c0,0.42,0.146,0.761,0.436,1.021c0.289,0.261,0.67,0.476,1.141,0.646			c0.469,0.17,1.004,0.314,1.604,0.435s1.22,0.251,1.86,0.39c0.619,0.141,1.229,0.311,1.83,0.51c0.6,0.201,1.135,0.471,1.604,0.811			s0.85,0.77,1.14,1.29s0.436,1.16,0.436,1.92c0,0.921-0.211,1.7-0.631,2.341c-0.42,0.64-0.965,1.16-1.635,1.559			c-0.67,0.4-1.414,0.691-2.234,0.871s-1.631,0.27-2.43,0.27c-0.98,0-1.886-0.109-2.715-0.33c-0.831-0.22-1.551-0.555-2.16-1.005			c-0.611-0.45-1.091-1.01-1.44-1.681c-0.351-0.669-0.536-1.465-0.556-2.385H380.365z"/>	</g></g></svg>