<!-- Generator: Adobe Illustrator 17.0.0, SVG Export Plug-In  --><svg version="1.1"	 xmlns="http://www.w3.org/2000/svg" xmlns:xlink="http://www.w3.org/1999/xlink" xmlns:a="http://ns.adobe.com/AdobeSVGViewerExtensions/3.0/"	 x="0px" y="0px" width="422.316px" height="21.84px" viewBox="0 0 422.316 21.84" enable-background="new 0 0 422.316 21.84"	 xml:space="preserve"><defs></defs><g>	<g>		<path fill="#038342" d="M0,0.42h14.37v2.85c-1.101,1.24-2.101,2.525-3,3.855s-1.685,2.74-2.354,4.23			c-0.671,1.49-1.215,3.064-1.635,4.725C6.96,17.74,6.68,19.52,6.54,21.42H2.79c0.12-1.66,0.405-3.3,0.854-4.92			c0.451-1.62,1.03-3.189,1.74-4.71S6.92,8.811,7.86,7.41c0.939-1.4,1.95-2.71,3.03-3.93H0V0.42z"/>		<path fill="#038342" d="M17.7,17.37h4.171v4.05H17.7V17.37z"/>		<path fill="#038342" d="M34.59,0h10.23c2.359,0,4.129,0.51,5.31,1.529C51.311,2.55,51.9,3.971,51.9,5.79			c0,1.021-0.15,1.865-0.45,2.534c-0.3,0.671-0.65,1.211-1.05,1.621c-0.4,0.41-0.795,0.705-1.186,0.885			c-0.39,0.18-0.675,0.3-0.855,0.359v0.061c0.32,0.04,0.666,0.141,1.035,0.3c0.371,0.161,0.715,0.415,1.035,0.765			c0.32,0.351,0.586,0.806,0.795,1.365c0.211,0.561,0.315,1.26,0.315,2.1c0,1.261,0.095,2.406,0.285,3.436			c0.19,1.03,0.484,1.766,0.885,2.205h-4.021c-0.279-0.46-0.445-0.97-0.494-1.529c-0.051-0.561-0.075-1.101-0.075-1.621			c0-0.979-0.06-1.824-0.181-2.535c-0.119-0.709-0.34-1.299-0.659-1.77c-0.32-0.47-0.755-0.814-1.306-1.035			c-0.55-0.22-1.255-0.33-2.115-0.33h-5.52v8.82h-3.75V0z M38.34,9.75h6.15c1.199,0,2.109-0.285,2.73-0.855			c0.619-0.57,0.93-1.425,0.93-2.564c0-0.68-0.101-1.234-0.301-1.665C47.65,4.234,47.375,3.9,47.025,3.66			c-0.351-0.24-0.75-0.4-1.2-0.48S44.91,3.061,44.43,3.061h-6.09V9.75z"/>		<path fill="#038342" d="M57.9,14.55c0,0.601,0.084,1.181,0.255,1.74c0.169,0.56,0.425,1.05,0.765,1.47s0.77,0.756,1.29,1.006			s1.14,0.375,1.86,0.375c1,0,1.805-0.215,2.415-0.646s1.065-1.075,1.364-1.935h3.24c-0.18,0.84-0.49,1.59-0.93,2.25			c-0.439,0.659-0.971,1.215-1.59,1.664c-0.62,0.45-1.315,0.791-2.085,1.021c-0.771,0.229-1.575,0.345-2.415,0.345			c-1.221,0-2.301-0.2-3.24-0.6c-0.94-0.4-1.735-0.961-2.385-1.68c-0.65-0.721-1.141-1.58-1.471-2.58S54.48,14.88,54.48,13.68			c0-1.1,0.174-2.145,0.525-3.135c0.35-0.99,0.85-1.859,1.5-2.609c0.648-0.75,1.434-1.346,2.354-1.785			c0.919-0.439,1.96-0.66,3.12-0.66c1.219,0,2.314,0.255,3.285,0.765c0.969,0.511,1.774,1.185,2.414,2.024			c0.641,0.841,1.105,1.806,1.396,2.896c0.29,1.091,0.364,2.216,0.226,3.375H57.9z M65.881,12.3c-0.041-0.54-0.156-1.06-0.346-1.56			c-0.19-0.5-0.45-0.936-0.779-1.305c-0.33-0.371-0.73-0.67-1.201-0.9c-0.47-0.23-0.994-0.346-1.574-0.346			c-0.6,0-1.146,0.105-1.635,0.315c-0.49,0.21-0.91,0.5-1.261,0.87s-0.63,0.805-0.84,1.305S57.92,11.721,57.9,12.3H65.881z"/>		<path fill="#038342" d="M74.49,16.439c0.1,1.001,0.479,1.701,1.14,2.101c0.66,0.4,1.45,0.601,2.37,0.601			c0.319,0,0.685-0.025,1.095-0.076c0.409-0.049,0.795-0.145,1.155-0.285c0.359-0.139,0.654-0.344,0.885-0.614			s0.335-0.625,0.314-1.065c-0.02-0.439-0.18-0.799-0.479-1.08c-0.3-0.279-0.685-0.504-1.155-0.675			c-0.47-0.169-1.004-0.315-1.604-0.435c-0.601-0.12-1.21-0.25-1.83-0.391c-0.64-0.139-1.255-0.31-1.845-0.51			c-0.59-0.199-1.121-0.47-1.59-0.811c-0.471-0.34-0.846-0.773-1.125-1.305c-0.281-0.529-0.42-1.185-0.42-1.965			c0-0.84,0.204-1.545,0.614-2.115c0.409-0.569,0.931-1.029,1.56-1.379c0.631-0.35,1.33-0.596,2.101-0.736			c0.77-0.139,1.505-0.209,2.205-0.209c0.8,0,1.564,0.085,2.295,0.255c0.729,0.17,1.39,0.445,1.979,0.825s1.08,0.875,1.471,1.484			c0.39,0.61,0.635,1.346,0.734,2.205H80.79c-0.161-0.82-0.536-1.369-1.125-1.65c-0.591-0.279-1.265-0.42-2.025-0.42			c-0.239,0-0.524,0.021-0.854,0.061s-0.641,0.115-0.93,0.225c-0.291,0.11-0.536,0.271-0.736,0.48			c-0.199,0.21-0.299,0.484-0.299,0.824c0,0.42,0.145,0.761,0.435,1.021c0.29,0.261,0.67,0.476,1.14,0.646			C76.865,11.615,77.4,11.76,78,11.88s1.22,0.251,1.859,0.39c0.62,0.141,1.23,0.311,1.83,0.51c0.601,0.201,1.135,0.471,1.605,0.811			c0.47,0.34,0.85,0.77,1.141,1.29c0.289,0.521,0.434,1.16,0.434,1.92c0,0.921-0.209,1.7-0.629,2.341			c-0.42,0.64-0.965,1.16-1.635,1.559c-0.671,0.4-1.416,0.691-2.236,0.871s-1.629,0.27-2.43,0.27c-0.98,0-1.885-0.109-2.715-0.33			c-0.83-0.22-1.55-0.555-2.16-1.005c-0.609-0.45-1.09-1.01-1.439-1.681c-0.35-0.669-0.535-1.465-0.555-2.385H74.49z"/>		<path fill="#038342" d="M101.1,21.42H97.74v-2.16H97.68c-0.42,0.78-1.045,1.405-1.875,1.875s-1.676,0.705-2.535,0.705			c-2.04,0-3.516-0.505-4.425-1.516c-0.91-1.009-1.365-2.534-1.365-4.574V5.91H90.9v9.51c0,1.36,0.259,2.32,0.779,2.88			c0.52,0.56,1.25,0.841,2.189,0.841c0.721,0,1.32-0.11,1.801-0.33c0.48-0.221,0.869-0.516,1.17-0.886			c0.3-0.37,0.515-0.814,0.645-1.335c0.131-0.52,0.195-1.08,0.195-1.68v-9h3.42V21.42z"/>		<path fill="#038342" d="M104.699,5.91h3.24v2.16h0.09c0.26-0.38,0.54-0.73,0.84-1.051c0.301-0.319,0.635-0.59,1.006-0.81			c0.369-0.22,0.795-0.395,1.274-0.524c0.479-0.131,1.03-0.195,1.649-0.195c0.94,0,1.815,0.209,2.625,0.63			c0.811,0.42,1.385,1.069,1.726,1.95c0.58-0.801,1.249-1.43,2.01-1.891c0.761-0.459,1.71-0.689,2.851-0.689			c1.639,0,2.914,0.4,3.824,1.199c0.91,0.801,1.365,2.141,1.365,4.021v10.71h-3.42v-9.061c0-0.619-0.02-1.185-0.061-1.694			c-0.039-0.511-0.154-0.95-0.344-1.32c-0.191-0.37-0.477-0.655-0.855-0.854c-0.381-0.2-0.9-0.301-1.561-0.301			c-1.16,0-2,0.36-2.52,1.08c-0.521,0.721-0.78,1.74-0.78,3.061v9.09h-3.42v-9.96c0-1.08-0.194-1.895-0.585-2.444			c-0.39-0.551-1.105-0.826-2.145-0.826c-0.44,0-0.865,0.09-1.275,0.271s-0.77,0.44-1.08,0.78s-0.561,0.76-0.75,1.26			c-0.19,0.5-0.285,1.07-0.285,1.71v9.21h-3.42V5.91z"/>		<path fill="#038342" d="M133.47,14.55c0,0.601,0.085,1.181,0.255,1.74s0.425,1.05,0.766,1.47c0.34,0.42,0.77,0.756,1.289,1.006			s1.141,0.375,1.86,0.375c0.999,0,1.805-0.215,2.415-0.646c0.609-0.431,1.064-1.075,1.365-1.935h3.24			c-0.181,0.84-0.49,1.59-0.931,2.25c-0.44,0.659-0.97,1.215-1.59,1.664c-0.62,0.45-1.315,0.791-2.085,1.021			c-0.771,0.229-1.575,0.345-2.415,0.345c-1.22,0-2.3-0.2-3.24-0.6c-0.94-0.4-1.735-0.961-2.385-1.68			c-0.65-0.721-1.14-1.58-1.47-2.58s-0.496-2.101-0.496-3.301c0-1.1,0.176-2.145,0.525-3.135s0.85-1.859,1.5-2.609			s1.436-1.346,2.355-1.785s1.959-0.66,3.119-0.66c1.221,0,2.315,0.255,3.285,0.765c0.971,0.511,1.775,1.185,2.416,2.024			c0.639,0.841,1.104,1.806,1.395,2.896c0.289,1.091,0.365,2.216,0.225,3.375H133.47z M141.449,12.3			c-0.04-0.54-0.154-1.06-0.345-1.56s-0.45-0.936-0.78-1.305c-0.33-0.371-0.73-0.67-1.199-0.9c-0.471-0.23-0.996-0.346-1.576-0.346			c-0.6,0-1.145,0.105-1.635,0.315s-0.91,0.5-1.26,0.87s-0.63,0.805-0.84,1.305s-0.325,1.041-0.345,1.62H141.449z"/>		<path fill="#038342" d="M147.479,5.91h3.24v2.279l0.06,0.061c0.52-0.859,1.2-1.535,2.041-2.025c0.84-0.49,1.77-0.734,2.789-0.734			c1.7,0,3.04,0.439,4.021,1.32c0.979,0.88,1.47,2.199,1.47,3.959v10.65h-3.42v-9.75c-0.041-1.22-0.3-2.104-0.779-2.654			c-0.48-0.551-1.23-0.826-2.25-0.826c-0.581,0-1.102,0.105-1.561,0.315c-0.461,0.21-0.851,0.5-1.17,0.87			c-0.32,0.37-0.57,0.805-0.75,1.305s-0.27,1.031-0.27,1.59v9.15h-3.421V5.91z"/>		<path fill="#038342" d="M187.649,21.42h-3.24v-2.1h-0.06c-0.461,0.899-1.131,1.545-2.01,1.935			c-0.881,0.39-1.811,0.585-2.791,0.585c-1.22,0-2.285-0.215-3.194-0.645c-0.911-0.43-1.665-1.016-2.265-1.756			c-0.601-0.739-1.051-1.614-1.351-2.625c-0.3-1.01-0.45-2.094-0.45-3.254c0-1.4,0.189-2.611,0.57-3.631			c0.379-1.02,0.885-1.859,1.515-2.52s1.351-1.145,2.16-1.455s1.636-0.465,2.476-0.465c0.479,0,0.969,0.045,1.47,0.135			c0.499,0.09,0.979,0.235,1.44,0.436c0.459,0.199,0.885,0.455,1.274,0.764c0.39,0.311,0.715,0.676,0.976,1.096h0.06V0h3.42V21.42z			 M175.709,13.83c0,0.66,0.085,1.311,0.256,1.949c0.169,0.641,0.43,1.211,0.779,1.711s0.795,0.9,1.335,1.199			c0.54,0.301,1.181,0.451,1.92,0.451c0.761,0,1.415-0.16,1.966-0.48c0.549-0.32,0.999-0.74,1.35-1.26			c0.35-0.521,0.609-1.105,0.779-1.756c0.17-0.649,0.256-1.314,0.256-1.994c0-1.721-0.386-3.061-1.155-4.021			c-0.771-0.96-1.815-1.44-3.136-1.44c-0.799,0-1.475,0.166-2.024,0.496s-1,0.76-1.351,1.289c-0.35,0.53-0.6,1.131-0.75,1.801			C175.784,12.445,175.709,13.13,175.709,13.83z"/>		<path fill="#038342" d="M194.039,14.55c0,0.601,0.084,1.181,0.255,1.74c0.169,0.56,0.425,1.05,0.765,1.47s0.77,0.756,1.29,1.006			s1.14,0.375,1.86,0.375c1,0,1.805-0.215,2.415-0.646s1.065-1.075,1.364-1.935h3.24c-0.18,0.84-0.49,1.59-0.93,2.25			c-0.439,0.659-0.971,1.215-1.59,1.664c-0.62,0.45-1.315,0.791-2.085,1.021c-0.771,0.229-1.575,0.345-2.415,0.345			c-1.221,0-2.301-0.2-3.24-0.6c-0.94-0.4-1.735-0.961-2.385-1.68c-0.65-0.721-1.141-1.58-1.471-2.58s-0.494-2.101-0.494-3.301			c0-1.1,0.174-2.145,0.525-3.135c0.35-0.99,0.85-1.859,1.5-2.609c0.648-0.75,1.434-1.346,2.354-1.785			c0.919-0.439,1.96-0.66,3.12-0.66c1.219,0,2.314,0.255,3.285,0.765c0.969,0.511,1.774,1.185,2.414,2.024			c0.641,0.841,1.105,1.806,1.396,2.896c0.29,1.091,0.364,2.216,0.226,3.375H194.039z M202.02,12.3			c-0.041-0.54-0.156-1.06-0.346-1.56c-0.19-0.5-0.45-0.936-0.779-1.305c-0.33-0.371-0.73-0.67-1.201-0.9			c-0.47-0.23-0.994-0.346-1.574-0.346c-0.6,0-1.146,0.105-1.635,0.315c-0.49,0.21-0.91,0.5-1.261,0.87s-0.63,0.805-0.84,1.305			s-0.325,1.041-0.345,1.62H202.02z"/>		<path fill="#038342" d="M216.479,0h3.42v21.42h-3.42V0z"/>		<path fill="#038342" d="M230.729,21.84c-1.24,0-2.345-0.205-3.314-0.615c-0.971-0.409-1.791-0.975-2.461-1.695			c-0.67-0.719-1.18-1.579-1.529-2.58c-0.35-0.999-0.525-2.1-0.525-3.299c0-1.18,0.176-2.27,0.525-3.271			c0.35-1,0.859-1.86,1.529-2.58s1.49-1.284,2.461-1.694c0.97-0.41,2.074-0.615,3.314-0.615s2.346,0.205,3.315,0.615			s1.79,0.975,2.46,1.694s1.18,1.58,1.529,2.58c0.35,1.001,0.525,2.091,0.525,3.271c0,1.199-0.176,2.3-0.525,3.299			c-0.35,1.001-0.859,1.861-1.529,2.58c-0.67,0.721-1.49,1.286-2.46,1.695C233.074,21.635,231.969,21.84,230.729,21.84z			 M230.729,19.141c0.76,0,1.42-0.16,1.98-0.48c0.56-0.32,1.02-0.74,1.38-1.26c0.36-0.521,0.625-1.105,0.795-1.756			c0.17-0.649,0.255-1.314,0.255-1.994c0-0.66-0.085-1.32-0.255-1.98s-0.435-1.245-0.795-1.755c-0.36-0.511-0.82-0.925-1.38-1.245			c-0.561-0.32-1.221-0.48-1.98-0.48s-1.42,0.16-1.979,0.48c-0.561,0.32-1.021,0.734-1.38,1.245c-0.36,0.51-0.625,1.095-0.795,1.755			s-0.256,1.32-0.256,1.98c0,0.68,0.086,1.345,0.256,1.994c0.17,0.65,0.435,1.235,0.795,1.756c0.359,0.52,0.819,0.939,1.38,1.26			C229.309,18.98,229.969,19.141,230.729,19.141z"/>		<path fill="#038342" d="M243.988,16.439c0.1,1.001,0.48,1.701,1.141,2.101c0.66,0.4,1.449,0.601,2.369,0.601			c0.32,0,0.686-0.025,1.096-0.076c0.409-0.049,0.795-0.145,1.154-0.285c0.36-0.139,0.655-0.344,0.885-0.614			c0.23-0.271,0.336-0.625,0.315-1.065c-0.021-0.439-0.18-0.799-0.479-1.08c-0.301-0.279-0.686-0.504-1.155-0.675			c-0.47-0.169-1.005-0.315-1.604-0.435c-0.601-0.12-1.211-0.25-1.83-0.391c-0.641-0.139-1.256-0.31-1.846-0.51			c-0.59-0.199-1.12-0.47-1.59-0.811c-0.471-0.34-0.846-0.773-1.125-1.305c-0.28-0.529-0.42-1.185-0.42-1.965			c0-0.84,0.205-1.545,0.615-2.115c0.409-0.569,0.93-1.029,1.56-1.379s1.33-0.596,2.101-0.736c0.77-0.139,1.504-0.209,2.205-0.209			c0.799,0,1.564,0.085,2.295,0.255c0.729,0.17,1.39,0.445,1.979,0.825s1.08,0.875,1.47,1.484c0.391,0.61,0.635,1.346,0.735,2.205			h-3.569c-0.161-0.82-0.536-1.369-1.125-1.65c-0.591-0.279-1.266-0.42-2.025-0.42c-0.24,0-0.525,0.021-0.855,0.061			s-0.641,0.115-0.93,0.225c-0.29,0.11-0.535,0.271-0.735,0.48s-0.3,0.484-0.3,0.824c0,0.42,0.145,0.761,0.436,1.021			c0.289,0.261,0.67,0.476,1.14,0.646s1.005,0.314,1.604,0.435c0.601,0.12,1.221,0.251,1.86,0.39c0.62,0.141,1.229,0.311,1.83,0.51			c0.601,0.201,1.135,0.471,1.604,0.811c0.471,0.34,0.85,0.77,1.141,1.29c0.289,0.521,0.435,1.16,0.435,1.92			c0,0.921-0.21,1.7-0.63,2.341c-0.42,0.64-0.965,1.16-1.635,1.559c-0.67,0.4-1.415,0.691-2.235,0.871s-1.63,0.27-2.43,0.27			c-0.98,0-1.886-0.109-2.715-0.33c-0.831-0.22-1.55-0.555-2.16-1.005s-1.091-1.01-1.44-1.681c-0.35-0.669-0.535-1.465-0.555-2.385			H243.988z"/>		<path fill="#038342" d="M279.929,21.42h-3.24v-2.1h-0.06c-0.461,0.899-1.131,1.545-2.01,1.935			c-0.881,0.39-1.811,0.585-2.791,0.585c-1.22,0-2.285-0.215-3.194-0.645c-0.911-0.43-1.665-1.016-2.265-1.756			c-0.601-0.739-1.051-1.614-1.351-2.625c-0.3-1.01-0.45-2.094-0.45-3.254c0-1.4,0.189-2.611,0.57-3.631			c0.379-1.02,0.885-1.859,1.515-2.52s1.351-1.145,2.16-1.455s1.636-0.465,2.476-0.465c0.479,0,0.969,0.045,1.47,0.135			c0.499,0.09,0.979,0.235,1.44,0.436c0.459,0.199,0.885,0.455,1.274,0.764c0.39,0.311,0.715,0.676,0.976,1.096h0.06V0h3.42V21.42z			 M267.988,13.83c0,0.66,0.085,1.311,0.256,1.949c0.169,0.641,0.43,1.211,0.779,1.711s0.795,0.9,1.335,1.199			c0.54,0.301,1.181,0.451,1.92,0.451c0.761,0,1.415-0.16,1.966-0.48c0.549-0.32,0.999-0.74,1.35-1.26			c0.35-0.521,0.609-1.105,0.779-1.756c0.17-0.649,0.256-1.314,0.256-1.994c0-1.721-0.386-3.061-1.155-4.021			c-0.771-0.96-1.815-1.44-3.136-1.44c-0.799,0-1.475,0.166-2.024,0.496s-1,0.76-1.351,1.289c-0.35,0.53-0.6,1.131-0.75,1.801			C268.063,12.445,267.988,13.13,267.988,13.83z"/>		<path fill="#038342" d="M296.639,17.97c0,0.421,0.055,0.72,0.164,0.9c0.109,0.18,0.325,0.271,0.646,0.271c0.1,0,0.22,0,0.36,0			c0.139,0,0.299-0.021,0.479-0.061v2.369c-0.12,0.041-0.274,0.086-0.465,0.136s-0.386,0.095-0.585,0.135			c-0.2,0.04-0.4,0.069-0.6,0.091c-0.201,0.02-0.371,0.029-0.511,0.029c-0.7,0-1.28-0.141-1.739-0.42			c-0.461-0.279-0.761-0.77-0.9-1.471c-0.68,0.66-1.516,1.141-2.506,1.441c-0.989,0.299-1.945,0.449-2.864,0.449			c-0.7,0-1.37-0.096-2.011-0.285c-0.64-0.189-1.205-0.469-1.694-0.84c-0.49-0.369-0.88-0.84-1.17-1.41s-0.435-1.234-0.435-1.994			c0-0.961,0.174-1.74,0.524-2.341c0.35-0.6,0.81-1.069,1.38-1.409s1.21-0.586,1.92-0.736c0.71-0.149,1.426-0.264,2.146-0.344			c0.62-0.121,1.21-0.205,1.771-0.256c0.559-0.049,1.055-0.135,1.484-0.255s0.77-0.305,1.02-0.555s0.375-0.625,0.375-1.125			c0-0.44-0.104-0.8-0.314-1.08s-0.471-0.495-0.78-0.646c-0.31-0.149-0.655-0.25-1.034-0.299c-0.381-0.051-0.74-0.076-1.08-0.076			c-0.961,0-1.751,0.201-2.371,0.601c-0.619,0.4-0.97,1.021-1.049,1.86h-3.421c0.06-1,0.3-1.83,0.72-2.49s0.955-1.189,1.605-1.59			s1.385-0.68,2.205-0.84s1.66-0.24,2.52-0.24c0.76,0,1.51,0.08,2.25,0.24s1.405,0.42,1.996,0.779			c0.589,0.36,1.064,0.825,1.424,1.395c0.36,0.57,0.541,1.266,0.541,2.086V17.97z M293.219,13.65c-0.521,0.34-1.16,0.545-1.92,0.615			c-0.762,0.07-1.521,0.175-2.281,0.314c-0.359,0.061-0.709,0.145-1.049,0.255c-0.341,0.11-0.641,0.261-0.9,0.45			s-0.465,0.439-0.615,0.75s-0.225,0.686-0.225,1.125c0,0.38,0.109,0.7,0.33,0.96c0.219,0.26,0.484,0.465,0.795,0.614			c0.31,0.15,0.649,0.256,1.02,0.315s0.705,0.091,1.005,0.091c0.38,0,0.79-0.051,1.229-0.15c0.44-0.1,0.855-0.271,1.246-0.51			c0.39-0.24,0.715-0.545,0.975-0.916c0.26-0.369,0.391-0.824,0.391-1.365V13.65z"/>		<path fill="#038342" d="M298.769,5.91h2.579V1.26h3.421v4.65h3.09v2.55h-3.09v8.28c0,0.359,0.015,0.67,0.045,0.93			s0.1,0.48,0.21,0.66c0.109,0.18,0.274,0.314,0.495,0.404c0.22,0.09,0.52,0.136,0.899,0.136c0.24,0,0.48-0.005,0.721-0.015			s0.479-0.045,0.72-0.105v2.641c-0.38,0.039-0.75,0.079-1.11,0.119c-0.359,0.04-0.73,0.061-1.109,0.061			c-0.9,0-1.625-0.086-2.176-0.256c-0.55-0.17-0.979-0.42-1.289-0.75c-0.311-0.33-0.521-0.744-0.631-1.244s-0.175-1.07-0.195-1.711			V8.46h-2.579V5.91z"/>		<path fill="#038342" d="M317.428,21.84c-1.24,0-2.345-0.205-3.314-0.615c-0.971-0.409-1.791-0.975-2.461-1.695			c-0.67-0.719-1.18-1.579-1.529-2.58c-0.35-0.999-0.525-2.1-0.525-3.299c0-1.18,0.176-2.27,0.525-3.271			c0.35-1,0.859-1.86,1.529-2.58s1.49-1.284,2.461-1.694c0.97-0.41,2.074-0.615,3.314-0.615s2.346,0.205,3.315,0.615			s1.79,0.975,2.46,1.694s1.18,1.58,1.529,2.58c0.35,1.001,0.525,2.091,0.525,3.271c0,1.199-0.176,2.3-0.525,3.299			c-0.35,1.001-0.859,1.861-1.529,2.58c-0.67,0.721-1.49,1.286-2.46,1.695C319.773,21.635,318.668,21.84,317.428,21.84z			 M317.428,19.141c0.76,0,1.42-0.16,1.98-0.48c0.56-0.32,1.02-0.74,1.38-1.26c0.36-0.521,0.625-1.105,0.795-1.756			c0.17-0.649,0.255-1.314,0.255-1.994c0-0.66-0.085-1.32-0.255-1.98s-0.435-1.245-0.795-1.755c-0.36-0.511-0.82-0.925-1.38-1.245			c-0.561-0.32-1.221-0.48-1.98-0.48s-1.42,0.16-1.979,0.48c-0.561,0.32-1.021,0.734-1.38,1.245c-0.36,0.51-0.625,1.095-0.795,1.755			s-0.256,1.32-0.256,1.98c0,0.68,0.086,1.345,0.256,1.994c0.17,0.65,0.435,1.235,0.795,1.756c0.359,0.52,0.819,0.939,1.38,1.26			C316.008,18.98,316.668,19.141,317.428,19.141z"/>		<path fill="#038342" d="M330.688,16.439c0.1,1.001,0.48,1.701,1.141,2.101c0.66,0.4,1.449,0.601,2.369,0.601			c0.32,0,0.686-0.025,1.096-0.076c0.409-0.049,0.795-0.145,1.154-0.285c0.36-0.139,0.655-0.344,0.885-0.614			c0.23-0.271,0.336-0.625,0.315-1.065c-0.021-0.439-0.18-0.799-0.479-1.08c-0.301-0.279-0.686-0.504-1.155-0.675			c-0.47-0.169-1.005-0.315-1.604-0.435c-0.601-0.12-1.211-0.25-1.83-0.391c-0.641-0.139-1.256-0.31-1.846-0.51			c-0.59-0.199-1.12-0.47-1.59-0.811c-0.471-0.34-0.846-0.773-1.125-1.305c-0.28-0.529-0.42-1.185-0.42-1.965			c0-0.84,0.205-1.545,0.615-2.115c0.409-0.569,0.93-1.029,1.56-1.379s1.33-0.596,2.101-0.736c0.77-0.139,1.504-0.209,2.205-0.209			c0.799,0,1.564,0.085,2.295,0.255c0.729,0.17,1.39,0.445,1.979,0.825s1.08,0.875,1.47,1.484c0.391,0.61,0.635,1.346,0.735,2.205			h-3.569c-0.161-0.82-0.536-1.369-1.125-1.65c-0.591-0.279-1.266-0.42-2.025-0.42c-0.24,0-0.525,0.021-0.855,0.061			s-0.641,0.115-0.93,0.225c-0.29,0.11-0.535,0.271-0.735,0.48s-0.3,0.484-0.3,0.824c0,0.42,0.145,0.761,0.436,1.021			c0.289,0.261,0.67,0.476,1.14,0.646s1.005,0.314,1.604,0.435c0.601,0.12,1.221,0.251,1.86,0.39c0.62,0.141,1.229,0.311,1.83,0.51			c0.601,0.201,1.135,0.471,1.604,0.811c0.471,0.34,0.85,0.77,1.141,1.29c0.289,0.521,0.435,1.16,0.435,1.92			c0,0.921-0.21,1.7-0.63,2.341c-0.42,0.64-0.965,1.16-1.635,1.559c-0.67,0.4-1.415,0.691-2.235,0.871s-1.63,0.27-2.43,0.27			c-0.98,0-1.886-0.109-2.715-0.33c-0.831-0.22-1.55-0.555-2.16-1.005s-1.091-1.01-1.44-1.681c-0.35-0.669-0.535-1.465-0.555-2.385			H330.688z"/>		<path fill="#038342" d="M362.487,11.1c-0.14-0.959-0.524-1.685-1.155-2.175c-0.63-0.489-1.425-0.735-2.385-0.735			c-0.439,0-0.91,0.076-1.41,0.226s-0.96,0.431-1.38,0.84c-0.42,0.41-0.771,0.979-1.05,1.71c-0.28,0.73-0.42,1.686-0.42,2.865			c0,0.641,0.074,1.279,0.225,1.92s0.391,1.211,0.721,1.71c0.33,0.5,0.754,0.905,1.274,1.215c0.521,0.311,1.149,0.466,1.89,0.466			c1,0,1.825-0.311,2.476-0.931c0.649-0.62,1.055-1.489,1.215-2.61h3.42c-0.32,2.021-1.085,3.565-2.295,4.635			c-1.21,1.07-2.815,1.605-4.815,1.605c-1.22,0-2.295-0.205-3.225-0.615c-0.93-0.409-1.715-0.97-2.355-1.68			c-0.64-0.709-1.125-1.555-1.455-2.535c-0.33-0.979-0.494-2.04-0.494-3.18c0-1.16,0.16-2.25,0.479-3.27			c0.319-1.021,0.8-1.906,1.44-2.656c0.64-0.75,1.435-1.339,2.385-1.77c0.949-0.43,2.064-0.645,3.346-0.645			c0.899,0,1.754,0.115,2.564,0.345s1.529,0.575,2.16,1.035c0.63,0.46,1.145,1.04,1.545,1.739c0.399,0.701,0.64,1.531,0.72,2.49			H362.487z"/>		<path fill="#038342" d="M368.787,0h3.42v21.42h-3.42V0z"/>		<path fill="#038342" d="M388.918,17.97c0,0.421,0.055,0.72,0.164,0.9c0.109,0.18,0.325,0.271,0.646,0.271c0.1,0,0.22,0,0.36,0			c0.139,0,0.299-0.021,0.479-0.061v2.369c-0.12,0.041-0.274,0.086-0.465,0.136s-0.386,0.095-0.585,0.135			c-0.2,0.04-0.4,0.069-0.6,0.091c-0.201,0.02-0.371,0.029-0.511,0.029c-0.7,0-1.28-0.141-1.739-0.42			c-0.461-0.279-0.761-0.77-0.9-1.471c-0.68,0.66-1.516,1.141-2.506,1.441c-0.989,0.299-1.945,0.449-2.864,0.449			c-0.7,0-1.37-0.096-2.011-0.285c-0.64-0.189-1.205-0.469-1.694-0.84c-0.49-0.369-0.88-0.84-1.17-1.41s-0.435-1.234-0.435-1.994			c0-0.961,0.174-1.74,0.524-2.341c0.35-0.6,0.81-1.069,1.38-1.409s1.21-0.586,1.92-0.736c0.71-0.149,1.426-0.264,2.146-0.344			c0.62-0.121,1.21-0.205,1.771-0.256c0.559-0.049,1.055-0.135,1.484-0.255s0.77-0.305,1.02-0.555s0.375-0.625,0.375-1.125			c0-0.44-0.104-0.8-0.314-1.08s-0.471-0.495-0.78-0.646c-0.31-0.149-0.655-0.25-1.034-0.299c-0.381-0.051-0.74-0.076-1.08-0.076			c-0.961,0-1.751,0.201-2.371,0.601c-0.619,0.4-0.97,1.021-1.049,1.86h-3.421c0.06-1,0.3-1.83,0.72-2.49s0.955-1.189,1.605-1.59			s1.385-0.68,2.205-0.84s1.66-0.24,2.52-0.24c0.76,0,1.51,0.08,2.25,0.24s1.405,0.42,1.996,0.779			c0.589,0.36,1.064,0.825,1.424,1.395c0.36,0.57,0.541,1.266,0.541,2.086V17.97z M385.498,13.65c-0.521,0.34-1.16,0.545-1.92,0.615			c-0.762,0.07-1.521,0.175-2.281,0.314c-0.359,0.061-0.709,0.145-1.049,0.255c-0.341,0.11-0.641,0.261-0.9,0.45			s-0.465,0.439-0.615,0.75s-0.225,0.686-0.225,1.125c0,0.38,0.109,0.7,0.33,0.96c0.219,0.26,0.484,0.465,0.795,0.614			c0.31,0.15,0.649,0.256,1.02,0.315s0.705,0.091,1.005,0.091c0.38,0,0.79-0.051,1.229-0.15c0.44-0.1,0.855-0.271,1.246-0.51			c0.39-0.24,0.715-0.545,0.975-0.916c0.26-0.369,0.391-0.824,0.391-1.365V13.65z"/>		<path fill="#038342" d="M391.077,5.91h3.72l3.93,11.91h0.061l3.779-11.91h3.541l-5.551,15.51h-3.84L391.077,5.91z"/>		<path fill="#038342" d="M410.848,14.55c0,0.601,0.084,1.181,0.255,1.74c0.169,0.56,0.425,1.05,0.765,1.47s0.77,0.756,1.29,1.006			s1.14,0.375,1.86,0.375c1,0,1.805-0.215,2.415-0.646s1.065-1.075,1.364-1.935h3.24c-0.18,0.84-0.49,1.59-0.93,2.25			c-0.439,0.659-0.971,1.215-1.59,1.664c-0.62,0.45-1.315,0.791-2.085,1.021c-0.771,0.229-1.575,0.345-2.415,0.345			c-1.221,0-2.301-0.2-3.24-0.6c-0.94-0.4-1.735-0.961-2.385-1.68c-0.65-0.721-1.141-1.58-1.471-2.58s-0.494-2.101-0.494-3.301			c0-1.1,0.174-2.145,0.525-3.135c0.35-0.99,0.85-1.859,1.5-2.609c0.648-0.75,1.434-1.346,2.354-1.785			c0.919-0.439,1.96-0.66,3.12-0.66c1.219,0,2.314,0.255,3.285,0.765c0.969,0.511,1.774,1.185,2.414,2.024			c0.641,0.841,1.105,1.806,1.396,2.896c0.29,1.091,0.364,2.216,0.226,3.375H410.848z M418.828,12.3			c-0.041-0.54-0.156-1.06-0.346-1.56c-0.19-0.5-0.45-0.936-0.779-1.305c-0.33-0.371-0.73-0.67-1.201-0.9			c-0.47-0.23-0.994-0.346-1.574-0.346c-0.6,0-1.146,0.105-1.635,0.315c-0.49,0.21-0.91,0.5-1.261,0.87s-0.63,0.805-0.84,1.305			s-0.325,1.041-0.345,1.62H418.828z"/>	</g></g></svg>