<!-- Generator: Adobe Illustrator 17.0.0, SVG Export Plug-In  --><svg version="1.1"	 xmlns="http://www.w3.org/2000/svg" xmlns:xlink="http://www.w3.org/1999/xlink" xmlns:a="http://ns.adobe.com/AdobeSVGViewerExtensions/3.0/"	 x="0px" y="0px" width="304.438px" height="27.15px" viewBox="0 0 304.438 27.15" enable-background="new 0 0 304.438 27.15"	 xml:space="preserve"><defs></defs><g>	<g>		<path fill="#038342" d="M2.641,0.42H13.5V3.48H5.19L4.11,8.82l0.06,0.06c0.46-0.521,1.045-0.915,1.756-1.185			C6.635,7.425,7.34,7.29,8.04,7.29c1.04,0,1.97,0.175,2.79,0.524c0.82,0.351,1.51,0.84,2.07,1.471			c0.56,0.63,0.984,1.375,1.275,2.234c0.289,0.86,0.435,1.791,0.435,2.791c0,0.84-0.136,1.705-0.405,2.594			c-0.27,0.891-0.7,1.701-1.29,2.431c-0.59,0.73-1.345,1.33-2.265,1.8S8.63,21.84,7.35,21.84c-1.02,0-1.965-0.135-2.834-0.404			c-0.871-0.271-1.635-0.676-2.295-1.216s-1.186-1.204-1.576-1.995C0.256,17.436,0.04,16.51,0,15.449h3.42			c0.1,1.141,0.49,2.016,1.17,2.625c0.68,0.611,1.58,0.916,2.7,0.916c0.72,0,1.33-0.12,1.83-0.36c0.5-0.239,0.905-0.569,1.215-0.989			c0.31-0.421,0.53-0.91,0.66-1.471c0.13-0.56,0.195-1.16,0.195-1.8c0-0.58-0.081-1.136-0.24-1.665			c-0.16-0.529-0.4-0.994-0.72-1.395c-0.32-0.4-0.735-0.721-1.245-0.961C8.475,10.109,7.88,9.99,7.2,9.99			c-0.72,0-1.396,0.135-2.024,0.404C4.545,10.665,4.09,11.17,3.811,11.91h-3.42L2.641,0.42z"/>		<path fill="#038342" d="M17.7,17.37h4.171v4.05H17.7V17.37z"/>		<path fill="#038342" d="M34.59,0h15.42v3.24H38.34V8.85h10.801v3.061H38.34v6.27h11.881v3.24H34.59V0z"/>		<path fill="#038342" d="M53.1,0h3.42v21.42H53.1V0z"/>		<path fill="#038342" d="M68.67,5.91h3.24v2.1h0.06c0.479-0.9,1.149-1.545,2.011-1.936C74.84,5.686,75.77,5.49,76.77,5.49			c1.22,0,2.285,0.215,3.195,0.645c0.91,0.431,1.665,1.02,2.266,1.77c0.6,0.75,1.049,1.626,1.35,2.625			c0.3,1.001,0.449,2.07,0.449,3.211c0,1.04-0.135,2.05-0.404,3.029c-0.27,0.98-0.68,1.846-1.23,2.596s-1.244,1.35-2.085,1.8			c-0.84,0.45-1.829,0.675-2.97,0.675c-0.5,0-1-0.045-1.5-0.135s-0.98-0.235-1.439-0.436c-0.461-0.199-0.886-0.454-1.275-0.765			c-0.391-0.31-0.715-0.675-0.975-1.095H72.09v7.74h-3.42V5.91z M80.609,13.68c0-0.699-0.09-1.38-0.27-2.039			c-0.18-0.66-0.45-1.246-0.811-1.756c-0.359-0.51-0.81-0.92-1.35-1.23c-0.54-0.309-1.16-0.465-1.859-0.465			c-1.44,0-2.525,0.5-3.256,1.5c-0.73,1.001-1.095,2.33-1.095,3.99c0,0.78,0.095,1.506,0.285,2.176s0.475,1.244,0.854,1.725			s0.836,0.859,1.365,1.14s1.145,0.421,1.846,0.421c0.779,0,1.439-0.16,1.979-0.48s0.985-0.735,1.335-1.245			c0.35-0.511,0.6-1.09,0.75-1.74C80.535,15.025,80.609,14.359,80.609,13.68z"/>		<path fill="#038342" d="M86.909,5.91h3.21v3h0.061c0.1-0.42,0.295-0.83,0.584-1.23c0.291-0.399,0.641-0.765,1.051-1.095			S92.68,5.99,93.18,5.79s1.01-0.3,1.529-0.3c0.4,0,0.676,0.01,0.825,0.029C95.685,5.54,95.839,5.561,96,5.58v3.3			c-0.24-0.04-0.486-0.075-0.736-0.104c-0.25-0.03-0.494-0.045-0.734-0.045c-0.58,0-1.125,0.115-1.635,0.344			c-0.51,0.23-0.955,0.57-1.335,1.021s-0.681,1.005-0.9,1.665s-0.329,1.42-0.329,2.28v7.38h-3.421V5.91z"/>		<path fill="#038342" d="M104.039,21.84c-1.24,0-2.345-0.205-3.314-0.615c-0.971-0.409-1.791-0.975-2.461-1.695			c-0.67-0.719-1.18-1.579-1.529-2.58c-0.35-0.999-0.525-2.1-0.525-3.299c0-1.18,0.176-2.27,0.525-3.271			c0.35-1,0.859-1.86,1.529-2.58s1.49-1.284,2.461-1.694c0.97-0.41,2.074-0.615,3.314-0.615s2.346,0.205,3.315,0.615			s1.79,0.975,2.46,1.694s1.18,1.58,1.529,2.58c0.35,1.001,0.525,2.091,0.525,3.271c0,1.199-0.176,2.3-0.525,3.299			c-0.35,1.001-0.859,1.861-1.529,2.58c-0.67,0.721-1.49,1.286-2.46,1.695C106.385,21.635,105.279,21.84,104.039,21.84z			 M104.039,19.141c0.76,0,1.42-0.16,1.98-0.48c0.56-0.32,1.02-0.74,1.38-1.26c0.36-0.521,0.625-1.105,0.795-1.756			c0.17-0.649,0.255-1.314,0.255-1.994c0-0.66-0.085-1.32-0.255-1.98s-0.435-1.245-0.795-1.755c-0.36-0.511-0.82-0.925-1.38-1.245			c-0.561-0.32-1.221-0.48-1.98-0.48s-1.42,0.16-1.979,0.48c-0.561,0.32-1.021,0.734-1.38,1.245c-0.36,0.51-0.625,1.095-0.795,1.755			s-0.256,1.32-0.256,1.98c0,0.68,0.086,1.345,0.256,1.994c0.17,0.65,0.435,1.235,0.795,1.756c0.359,0.52,0.819,0.939,1.38,1.26			C102.619,18.98,103.279,19.141,104.039,19.141z"/>		<path fill="#038342" d="M129.329,21.42h-3.24v-2.1h-0.06c-0.461,0.899-1.131,1.545-2.01,1.935			c-0.881,0.39-1.811,0.585-2.791,0.585c-1.22,0-2.285-0.215-3.194-0.645c-0.911-0.43-1.665-1.016-2.265-1.756			c-0.601-0.739-1.051-1.614-1.351-2.625c-0.3-1.01-0.45-2.094-0.45-3.254c0-1.4,0.189-2.611,0.57-3.631			c0.379-1.02,0.885-1.859,1.515-2.52s1.351-1.145,2.16-1.455s1.636-0.465,2.476-0.465c0.479,0,0.969,0.045,1.47,0.135			c0.499,0.09,0.979,0.235,1.44,0.436c0.459,0.199,0.885,0.455,1.274,0.764c0.39,0.311,0.715,0.676,0.976,1.096h0.06V0h3.42V21.42z			 M117.389,13.83c0,0.66,0.085,1.311,0.256,1.949c0.169,0.641,0.43,1.211,0.779,1.711s0.795,0.9,1.335,1.199			c0.54,0.301,1.181,0.451,1.92,0.451c0.761,0,1.415-0.16,1.966-0.48c0.549-0.32,0.999-0.74,1.35-1.26			c0.35-0.521,0.609-1.105,0.779-1.756c0.17-0.649,0.256-1.314,0.256-1.994c0-1.721-0.386-3.061-1.155-4.021			c-0.771-0.96-1.815-1.44-3.136-1.44c-0.799,0-1.475,0.166-2.024,0.496s-1,0.76-1.351,1.289c-0.35,0.53-0.6,1.131-0.75,1.801			C117.464,12.445,117.389,13.13,117.389,13.83z"/>		<path fill="#038342" d="M146.669,21.42h-3.36v-2.16h-0.06c-0.42,0.78-1.046,1.405-1.875,1.875c-0.83,0.47-1.675,0.705-2.535,0.705			c-2.04,0-3.515-0.505-4.425-1.516c-0.91-1.009-1.365-2.534-1.365-4.574V5.91h3.42v9.51c0,1.36,0.26,2.32,0.78,2.88			s1.249,0.841,2.19,0.841c0.72,0,1.319-0.11,1.8-0.33c0.479-0.221,0.87-0.516,1.17-0.886s0.515-0.814,0.646-1.335			c0.129-0.52,0.194-1.08,0.194-1.68v-9h3.42V21.42z"/>		<path fill="#038342" d="M160.738,11.1c-0.14-0.959-0.524-1.685-1.154-2.175c-0.631-0.489-1.426-0.735-2.385-0.735			c-0.44,0-0.91,0.076-1.41,0.226s-0.961,0.431-1.381,0.84c-0.42,0.41-0.77,0.979-1.049,1.71c-0.281,0.73-0.42,1.686-0.42,2.865			c0,0.641,0.074,1.279,0.225,1.92s0.39,1.211,0.72,1.71c0.33,0.5,0.755,0.905,1.274,1.215c0.521,0.311,1.15,0.466,1.891,0.466			c1,0,1.824-0.311,2.475-0.931s1.055-1.489,1.215-2.61h3.42c-0.32,2.021-1.084,3.565-2.295,4.635			c-1.21,1.07-2.814,1.605-4.814,1.605c-1.221,0-2.295-0.205-3.225-0.615c-0.931-0.409-1.716-0.97-2.355-1.68			c-0.641-0.709-1.125-1.555-1.455-2.535c-0.33-0.979-0.495-2.04-0.495-3.18c0-1.16,0.16-2.25,0.479-3.27			c0.32-1.021,0.801-1.906,1.441-2.656c0.639-0.75,1.434-1.339,2.385-1.77c0.949-0.43,2.064-0.645,3.345-0.645			c0.899,0,1.755,0.115,2.565,0.345c0.81,0.229,1.529,0.575,2.159,1.035s1.146,1.04,1.546,1.739c0.398,0.701,0.639,1.531,0.719,2.49			H160.738z"/>		<path fill="#038342" d="M165.389,5.91h2.58V1.26h3.42v4.65h3.09v2.55h-3.09v8.28c0,0.359,0.015,0.67,0.045,0.93			c0.029,0.26,0.1,0.48,0.21,0.66c0.109,0.18,0.274,0.314,0.495,0.404c0.22,0.09,0.52,0.136,0.9,0.136			c0.239,0,0.479-0.005,0.719-0.015c0.24-0.01,0.48-0.045,0.721-0.105v2.641c-0.381,0.039-0.75,0.079-1.109,0.119			c-0.361,0.04-0.73,0.061-1.111,0.061c-0.899,0-1.625-0.086-2.174-0.256c-0.551-0.17-0.98-0.42-1.291-0.75s-0.52-0.744-0.629-1.244			c-0.111-0.5-0.176-1.07-0.195-1.711V8.46h-2.58V5.91z"/>		<path fill="#038342" d="M184.049,21.84c-1.24,0-2.346-0.205-3.315-0.615c-0.971-0.409-1.79-0.975-2.46-1.695			c-0.67-0.719-1.181-1.579-1.53-2.58c-0.351-0.999-0.524-2.1-0.524-3.299c0-1.18,0.174-2.27,0.524-3.271			c0.35-1,0.86-1.86,1.53-2.58s1.489-1.284,2.46-1.694c0.97-0.41,2.075-0.615,3.315-0.615c1.239,0,2.344,0.205,3.314,0.615			c0.97,0.41,1.789,0.975,2.46,1.694c0.67,0.72,1.18,1.58,1.53,2.58c0.35,1.001,0.525,2.091,0.525,3.271			c0,1.199-0.176,2.3-0.525,3.299c-0.351,1.001-0.86,1.861-1.53,2.58c-0.671,0.721-1.49,1.286-2.46,1.695			C186.393,21.635,185.288,21.84,184.049,21.84z M184.049,19.141c0.76,0,1.42-0.16,1.979-0.48s1.021-0.74,1.38-1.26			c0.359-0.521,0.625-1.105,0.795-1.756c0.17-0.649,0.255-1.314,0.255-1.994c0-0.66-0.085-1.32-0.255-1.98s-0.436-1.245-0.795-1.755			c-0.359-0.511-0.82-0.925-1.38-1.245s-1.22-0.48-1.979-0.48c-0.761,0-1.421,0.16-1.98,0.48c-0.561,0.32-1.02,0.734-1.381,1.245			c-0.359,0.51-0.625,1.095-0.795,1.755s-0.254,1.32-0.254,1.98c0,0.68,0.084,1.345,0.254,1.994c0.17,0.65,0.436,1.235,0.795,1.756			c0.361,0.52,0.82,0.939,1.381,1.26C182.628,18.98,183.288,19.141,184.049,19.141z"/>		<path fill="#038342" d="M201.118,0h3.899l5.371,16.949h0.06L215.938,0h3.811l-7.32,21.42h-4.17L201.118,0z"/>		<path fill="#038342" d="M221.787,0h3.42v3.24h-3.42V0z M221.787,5.91h3.42v15.51h-3.42V5.91z"/>		<path fill="#038342" d="M227.367,5.91h2.58V1.26h3.42v4.65h3.09v2.55h-3.09v8.28c0,0.359,0.016,0.67,0.045,0.93			c0.03,0.26,0.1,0.48,0.211,0.66c0.109,0.18,0.273,0.314,0.494,0.404s0.52,0.136,0.9,0.136c0.24,0,0.48-0.005,0.72-0.015			c0.24-0.01,0.479-0.045,0.72-0.105v2.641c-0.38,0.039-0.75,0.079-1.109,0.119c-0.36,0.04-0.73,0.061-1.11,0.061			c-0.899,0-1.625-0.086-2.175-0.256c-0.551-0.17-0.98-0.42-1.29-0.75c-0.311-0.33-0.521-0.744-0.63-1.244			c-0.11-0.5-0.176-1.07-0.195-1.711V8.46h-2.58V5.91z"/>		<path fill="#038342" d="M251.907,17.97c0,0.421,0.055,0.72,0.165,0.9c0.109,0.18,0.324,0.271,0.645,0.271c0.1,0,0.221,0,0.36,0			s0.3-0.021,0.479-0.061v2.369c-0.119,0.041-0.274,0.086-0.465,0.136c-0.189,0.05-0.385,0.095-0.584,0.135			c-0.201,0.04-0.4,0.069-0.601,0.091c-0.2,0.02-0.37,0.029-0.511,0.029c-0.699,0-1.279-0.141-1.739-0.42s-0.761-0.77-0.899-1.471			c-0.681,0.66-1.516,1.141-2.506,1.441c-0.99,0.299-1.945,0.449-2.865,0.449c-0.699,0-1.369-0.096-2.01-0.285			s-1.205-0.469-1.695-0.84c-0.49-0.369-0.88-0.84-1.17-1.41c-0.289-0.57-0.435-1.234-0.435-1.994c0-0.961,0.175-1.74,0.524-2.341			c0.35-0.6,0.811-1.069,1.381-1.409s1.209-0.586,1.92-0.736c0.709-0.149,1.425-0.264,2.145-0.344			c0.62-0.121,1.21-0.205,1.771-0.256c0.56-0.049,1.055-0.135,1.485-0.255c0.43-0.12,0.77-0.305,1.02-0.555s0.375-0.625,0.375-1.125			c0-0.44-0.105-0.8-0.314-1.08c-0.211-0.28-0.471-0.495-0.781-0.646c-0.31-0.149-0.654-0.25-1.034-0.299			c-0.38-0.051-0.74-0.076-1.08-0.076c-0.96,0-1.751,0.201-2.37,0.601c-0.62,0.4-0.971,1.021-1.05,1.86h-3.421			c0.061-1,0.301-1.83,0.721-2.49s0.955-1.189,1.605-1.59c0.649-0.4,1.385-0.68,2.205-0.84c0.819-0.16,1.659-0.24,2.52-0.24			c0.76,0,1.51,0.08,2.25,0.24s1.404,0.42,1.995,0.779c0.589,0.36,1.065,0.825,1.425,1.395c0.359,0.57,0.54,1.266,0.54,2.086V17.97z			 M248.487,13.65c-0.521,0.34-1.16,0.545-1.92,0.615c-0.761,0.07-1.521,0.175-2.28,0.314c-0.359,0.061-0.71,0.145-1.05,0.255			c-0.341,0.11-0.641,0.261-0.899,0.45c-0.261,0.189-0.466,0.439-0.615,0.75c-0.15,0.311-0.226,0.686-0.226,1.125			c0,0.38,0.11,0.7,0.33,0.96s0.485,0.465,0.795,0.614c0.31,0.15,0.649,0.256,1.021,0.315c0.369,0.06,0.705,0.091,1.004,0.091			c0.381,0,0.791-0.051,1.23-0.15s0.855-0.271,1.245-0.51c0.39-0.24,0.715-0.545,0.976-0.916c0.26-0.369,0.39-0.824,0.39-1.365			V13.65z"/>		<path fill="#038342" d="M255.598,5.91h3.24v2.279l0.06,0.061c0.52-0.859,1.2-1.535,2.04-2.025s1.77-0.734,2.79-0.734			c1.7,0,3.04,0.439,4.021,1.32c0.979,0.88,1.469,2.199,1.469,3.959v10.65h-3.42v-9.75c-0.04-1.22-0.299-2.104-0.779-2.654			c-0.48-0.551-1.23-0.826-2.25-0.826c-0.58,0-1.101,0.105-1.561,0.315s-0.85,0.5-1.17,0.87s-0.57,0.805-0.75,1.305			s-0.27,1.031-0.27,1.59v9.15h-3.42V5.91z"/>		<path fill="#038342" d="M283.287,11.1c-0.141-0.959-0.525-1.685-1.154-2.175c-0.631-0.489-1.426-0.735-2.386-0.735			c-0.44,0-0.91,0.076-1.41,0.226s-0.96,0.431-1.38,0.84c-0.42,0.41-0.77,0.979-1.05,1.71s-0.42,1.686-0.42,2.865			c0,0.641,0.075,1.279,0.225,1.92c0.15,0.641,0.39,1.211,0.72,1.71c0.33,0.5,0.756,0.905,1.275,1.215			c0.52,0.311,1.15,0.466,1.891,0.466c1,0,1.824-0.311,2.475-0.931c0.649-0.62,1.055-1.489,1.215-2.61h3.42			c-0.32,2.021-1.085,3.565-2.295,4.635c-1.211,1.07-2.815,1.605-4.814,1.605c-1.221,0-2.295-0.205-3.226-0.615			c-0.931-0.409-1.716-0.97-2.354-1.68c-0.641-0.709-1.125-1.555-1.455-2.535c-0.33-0.979-0.496-2.04-0.496-3.18			c0-1.16,0.16-2.25,0.48-3.27c0.32-1.021,0.8-1.906,1.44-2.656c0.64-0.75,1.435-1.339,2.385-1.77			c0.95-0.43,2.065-0.645,3.345-0.645c0.9,0,1.756,0.115,2.565,0.345s1.53,0.575,2.159,1.035c0.631,0.46,1.146,1.04,1.546,1.739			c0.399,0.701,0.64,1.531,0.72,2.49H283.287z"/>		<path fill="#038342" d="M296.607,21.84c-1.24,0-2.346-0.205-3.315-0.615c-0.971-0.409-1.79-0.975-2.46-1.695			c-0.67-0.719-1.181-1.579-1.53-2.58c-0.351-0.999-0.524-2.1-0.524-3.299c0-1.18,0.174-2.27,0.524-3.271			c0.35-1,0.86-1.86,1.53-2.58s1.489-1.284,2.46-1.694c0.97-0.41,2.075-0.615,3.315-0.615c1.239,0,2.344,0.205,3.314,0.615			c0.97,0.41,1.789,0.975,2.46,1.694c0.67,0.72,1.18,1.58,1.53,2.58c0.35,1.001,0.525,2.091,0.525,3.271			c0,1.199-0.176,2.3-0.525,3.299c-0.351,1.001-0.86,1.861-1.53,2.58c-0.671,0.721-1.49,1.286-2.46,1.695			C298.951,21.635,297.847,21.84,296.607,21.84z M296.607,19.141c0.76,0,1.42-0.16,1.979-0.48s1.021-0.74,1.38-1.26			c0.359-0.521,0.625-1.105,0.795-1.756c0.17-0.649,0.255-1.314,0.255-1.994c0-0.66-0.085-1.32-0.255-1.98s-0.436-1.245-0.795-1.755			c-0.359-0.511-0.82-0.925-1.38-1.245s-1.22-0.48-1.979-0.48c-0.761,0-1.421,0.16-1.98,0.48c-0.561,0.32-1.02,0.734-1.381,1.245			c-0.359,0.51-0.625,1.095-0.795,1.755s-0.254,1.32-0.254,1.98c0,0.68,0.084,1.345,0.254,1.994c0.17,0.65,0.436,1.235,0.795,1.756			c0.361,0.52,0.82,0.939,1.381,1.26C295.187,18.98,295.847,19.141,296.607,19.141z"/>	</g></g></svg>