<!-- Generator: Adobe Illustrator 20.1.0, SVG Export Plug-In  -->
<svg version="1.1"
	 xmlns="http://www.w3.org/2000/svg" xmlns:xlink="http://www.w3.org/1999/xlink" xmlns:a="http://ns.adobe.com/AdobeSVGViewerExtensions/3.0/"
	 x="0px" y="0px" width="94px" height="34.8px" viewBox="0 0 94 34.8" style="overflow:scroll;enable-background:new 0 0 94 34.8;"
	 xml:space="preserve">
<style type="text/css">
	.st0{fill:url(#SVGID_1_);}
	.st1{fill:#A10000;}
	.st2{fill:url(#SVGID_2_);}
	.st3{fill:#FFFFFF;}
	.st4{fill:url(#SVGID_3_);}
	.st5{fill:url(#SVGID_4_);}
</style>
<defs>
</defs>
<g>
	<g>
		<linearGradient id="SVGID_1_" gradientUnits="userSpaceOnUse" x1="47.0105" y1="0.5003" x2="47.0105" y2="34.3079">
			<stop  offset="0" style="stop-color:#FFD400"/>
			<stop  offset="1" style="stop-color:#FF5100"/>
		</linearGradient>
		<path class="st0" d="M6.4,34.3c-3.2,0-5.9-2.6-5.9-5.9V6.4c0-3.2,2.6-5.9,5.9-5.9h81.3c3.2,0,5.9,2.6,5.9,5.9v22.1
			c0,3.2-2.6,5.9-5.9,5.9H6.4z"/>
		<path class="st1" d="M87.6,1c3,0,5.4,2.4,5.4,5.4v22.1c0,3-2.4,5.4-5.4,5.4H6.4c-3,0-5.4-2.4-5.4-5.4V6.4C1,3.4,3.4,1,6.4,1H87.6
			 M87.6,0H6.4C2.9,0,0,2.9,0,6.4v22.1c0,3.5,2.9,6.4,6.4,6.4h81.3c3.5,0,6.4-2.9,6.4-6.4V6.4C94,2.9,91.2,0,87.6,0L87.6,0z"/>
	</g>
	<linearGradient id="SVGID_2_" gradientUnits="userSpaceOnUse" x1="49.6346" y1="6.9782" x2="49.6346" y2="33.8076">
		<stop  offset="0" style="stop-color:#E55F00"/>
		<stop  offset="1" style="stop-color:#FF5100"/>
	</linearGradient>
	<path class="st2" d="M87.8,33.8H6.2C63.4,31.7,83.9,30.4,93,7v20.9C93,31.1,90.7,33.8,87.8,33.8z"/>
	<path class="st3" d="M86.6,1.9c1.1,0,2.2,0,3.2,0c-1-0.5-2.1-0.8-3.2-0.8h-80L4.3,1.9H86.6z"/>
</g>
<g>
	<path class="st3" d="M23.4,14.8l0.9-1.1c0.8,0.7,1.6,1.1,2.7,1.1c0.9,0,1.5-0.4,1.5-1.1v0c0-0.6-0.3-0.9-1.9-1.3
		c-1.8-0.4-2.9-1-2.9-2.6v0c0-1.5,1.2-2.5,2.9-2.5c1.2,0,2.2,0.4,3.1,1.1L29,9.6c-0.8-0.6-1.5-0.9-2.3-0.9c-0.9,0-1.4,0.5-1.4,1v0
		c0,0.7,0.4,1,2,1.3c1.8,0.4,2.8,1.1,2.8,2.5v0c0,1.6-1.3,2.6-3.1,2.6C25.7,16.2,24.4,15.8,23.4,14.8z"/>
	<path class="st3" d="M34.7,7.5h1.4l3.8,8.6h-1.6L37.4,14h-4l-0.9,2.1h-1.5L34.7,7.5z M36.8,12.7l-1.5-3.4l-1.5,3.4H36.8z"/>
	<path class="st3" d="M41.3,7.5h1.5v7.2h4.5v1.4h-6V7.5z"/>
	<path class="st3" d="M49.7,8.9H47V7.5H54v1.4h-2.7v7.2h-1.5V8.9z"/>
	<path class="st3" d="M57.5,7.5h1.4l3.8,8.6h-1.6L60.2,14h-4l-0.9,2.1h-1.5L57.5,7.5z M59.7,12.7l-1.5-3.4l-1.5,3.4H59.7z"/>
	<path class="st3" d="M64.1,7.5h3.8c1.1,0,1.9,0.3,2.5,0.9c0.5,0.5,0.7,1.1,0.7,1.8v0c0,1.4-0.8,2.3-2,2.6l2.3,3.2h-1.8l-2.1-3h-1.9
		v3h-1.5V7.5z M67.8,11.8c1.1,0,1.8-0.6,1.8-1.4v0c0-0.9-0.7-1.4-1.8-1.4h-2.2v2.9H67.8z"/>
	<path class="st3" d="M13.5,19.7h1.4l3.8,8.6h-1.6l-0.9-2.1h-4l-0.9,2.1H9.8L13.5,19.7z M15.7,24.9l-1.5-3.4l-1.5,3.4H15.7z"/>
	<path class="st3" d="M20.2,19.8h1.4l4.6,5.9v-5.9h1.5v8.6h-1.3l-4.7-6.1v6.1h-1.5V19.8z"/>
	<path class="st3" d="M29.9,19.8h1.5v8.6h-1.5V19.8z"/>
	<path class="st3" d="M33.7,19.8h1.6l2.6,4l2.6-4h1.6v8.6h-1.5v-6.1l-2.7,4h0l-2.7-4v6.1h-1.5V19.8z"/>
	<path class="st3" d="M47.4,19.7h1.4l3.8,8.6h-1.6l-0.9-2.1h-4l-0.9,2.1h-1.5L47.4,19.7z M49.5,24.9L48,21.5l-1.5,3.4H49.5z"/>
	<path class="st3" d="M53.1,24.1L53.1,24.1c0-2.5,1.8-4.5,4.4-4.5c1.6,0,2.5,0.6,3.4,1.3l-1,1.1c-0.7-0.6-1.4-1.1-2.4-1.1
		c-1.6,0-2.8,1.3-2.8,3v0c0,1.7,1.2,3,2.8,3c1.1,0,1.7-0.4,2.5-1.1l1,1c-0.9,0.9-1.9,1.5-3.5,1.5C55,28.5,53.1,26.5,53.1,24.1z"/>
	<path class="st3" d="M62.6,19.8h1.5v8.6h-1.5V19.8z"/>
	<path class="st3" d="M66,24.1L66,24.1c0-2.4,1.9-4.5,4.5-4.5s4.5,2,4.5,4.4v0c0,2.4-1.9,4.4-4.5,4.4S66,26.5,66,24.1z M73.4,24.1
		L73.4,24.1c0-1.7-1.2-3.1-2.9-3.1c-1.7,0-2.9,1.4-2.9,3v0c0,1.7,1.2,3,2.9,3C72.2,27.1,73.4,25.7,73.4,24.1z M71.2,17.1l1.3,0.6
		L71,18.9h-1.2L71.2,17.1z"/>
	<path class="st3" d="M76.8,19.8h1.4l4.6,5.9v-5.9h1.5v8.6H83l-4.7-6.1v6.1h-1.5V19.8z"/>
</g>
</svg>
