<!-- Generator: Adobe Illustrator 20.1.0, SVG Export Plug-In  -->
<svg version="1.1"
	 xmlns="http://www.w3.org/2000/svg" xmlns:xlink="http://www.w3.org/1999/xlink" xmlns:a="http://ns.adobe.com/AdobeSVGViewerExtensions/3.0/"
	 x="0px" y="0px" width="129.7px" height="21.6px" viewBox="0 0 129.7 21.6"
	 style="overflow:scroll;enable-background:new 0 0 129.7 21.6;" xml:space="preserve">
<style type="text/css">
	.st0{fill:#038342;}
</style>
<defs>
</defs>
<g>
	<g>
		<path class="st0" d="M15.3,20.6c-1,0.5-2.9,1-5.3,1C4.3,21.6,0,18,0,11.4C0,5,4.3,0.8,10.6,0.8c2.5,0,4.1,0.5,4.8,0.9l-0.6,2.1
			c-1-0.5-2.4-0.8-4.1-0.8c-4.7,0-7.9,3-7.9,8.3c0,4.9,2.8,8.1,7.8,8.1c1.6,0,3.2-0.3,4.3-0.8L15.3,20.6z"/>
		<path class="st0" d="M31.3,13.9c0,5.4-3.7,7.7-7.2,7.7c-3.9,0-7-2.9-7-7.5c0-4.9,3.2-7.7,7.2-7.7C28.5,6.4,31.3,9.5,31.3,13.9z
			 M19.8,14.1c0,3.2,1.8,5.6,4.4,5.6c2.5,0,4.4-2.4,4.4-5.6c0-2.5-1.2-5.6-4.3-5.6C21.1,8.4,19.8,11.3,19.8,14.1z"/>
		<path class="st0" d="M34.6,10.7c0-1.5,0-2.7-0.1-3.9h2.3L37,9.2h0.1c0.7-1.4,2.4-2.7,4.8-2.7c2,0,5.1,1.2,5.1,6.2v8.7h-2.6v-8.4
			c0-2.3-0.9-4.3-3.4-4.3c-1.7,0-3.1,1.2-3.5,2.7c-0.1,0.3-0.2,0.8-0.2,1.2v8.7h-2.6V10.7z"/>
		<path class="st0" d="M54.4,2.6v4.2h3.8v2h-3.8v7.8c0,1.8,0.5,2.8,2,2.8c0.7,0,1.2-0.1,1.5-0.2l0.1,2c-0.5,0.2-1.3,0.4-2.3,0.4
			c-1.2,0-2.2-0.4-2.8-1.1c-0.8-0.8-1-2.1-1-3.8V8.8h-2.3v-2h2.3V3.3L54.4,2.6z"/>
		<path class="st0" d="M62.4,14.5c0.1,3.6,2.3,5,5,5c1.9,0,3-0.3,4-0.8l0.5,1.9c-0.9,0.4-2.5,0.9-4.8,0.9c-4.5,0-7.1-2.9-7.1-7.3
			c0-4.4,2.6-7.8,6.8-7.8c4.7,0,6,4.2,6,6.8c0,0.5-0.1,1-0.1,1.2H62.4z M70.1,12.6c0-1.7-0.7-4.3-3.7-4.3c-2.7,0-3.8,2.5-4,4.3H70.1
			z"/>
		<path class="st0" d="M76,10.7c0-1.5,0-2.7-0.1-3.9h2.3l0.2,2.4h0.1c0.7-1.4,2.4-2.7,4.8-2.7c2,0,5.1,1.2,5.1,6.2v8.7h-2.6v-8.4
			c0-2.3-0.9-4.3-3.4-4.3c-1.7,0-3.1,1.2-3.5,2.7c-0.1,0.3-0.2,0.8-0.2,1.2v8.7H76V10.7z"/>
		<path class="st0" d="M95.5,2.7c0,0.9-0.6,1.6-1.7,1.6c-0.9,0-1.6-0.7-1.6-1.6c0-0.9,0.7-1.6,1.6-1.6C94.9,1.1,95.5,1.8,95.5,2.7z
			 M92.6,21.3V6.8h2.6v14.5H92.6z"/>
		<path class="st0" d="M112.2,0v17.5c0,1.3,0,2.8,0.1,3.8h-2.4l-0.1-2.5h-0.1c-0.8,1.6-2.6,2.9-4.9,2.9c-3.5,0-6.2-3-6.2-7.4
			c0-4.8,3-7.8,6.5-7.8c2.2,0,3.7,1.1,4.4,2.2h0.1V0H112.2z M109.5,12.7c0-0.3,0-0.8-0.1-1.1c-0.4-1.7-1.8-3.1-3.8-3.1
			c-2.7,0-4.3,2.4-4.3,5.6c0,2.9,1.4,5.4,4.3,5.4c1.8,0,3.4-1.2,3.9-3.1c0.1-0.4,0.1-0.7,0.1-1.1V12.7z"/>
		<path class="st0" d="M129.7,13.9c0,5.4-3.7,7.7-7.2,7.7c-3.9,0-7-2.9-7-7.5c0-4.9,3.2-7.7,7.2-7.7C126.9,6.4,129.7,9.5,129.7,13.9
			z M118.2,14.1c0,3.2,1.8,5.6,4.4,5.6c2.5,0,4.4-2.4,4.4-5.6c0-2.5-1.2-5.6-4.3-5.6C119.5,8.4,118.2,11.3,118.2,14.1z"/>
	</g>
</g>
</svg>
