<!-- Generator: Adobe Illustrator 20.1.0, SVG Export Plug-In  -->
<svg version="1.1"
	 xmlns="http://www.w3.org/2000/svg" xmlns:xlink="http://www.w3.org/1999/xlink" xmlns:a="http://ns.adobe.com/AdobeSVGViewerExtensions/3.0/"
	 x="0px" y="0px" width="193.6px" height="193.6px" viewBox="0 0 193.6 193.6"
	 style="overflow:scroll;enable-background:new 0 0 193.6 193.6;" xml:space="preserve">
<style type="text/css">
	.st0{filter:url(#Adobe_OpacityMaskFilter);}
	.st1{filter:url(#Adobe_OpacityMaskFilter_1_);}
	.st2{mask:url(#SVGID_1_);fill:url(#SVGID_2_);}
	.st3{fill:url(#SVGID_3_);}
	.st4{filter:url(#Adobe_OpacityMaskFilter_2_);}
	.st5{filter:url(#Adobe_OpacityMaskFilter_3_);}
	.st6{mask:url(#SVGID_4_);fill:url(#SVGID_5_);}
	.st7{fill:url(#SVGID_6_);}
	.st8{fill:#DBDCDD;}
	.st9{fill:#FFFFFF;}
	.st10{filter:url(#Adobe_OpacityMaskFilter_4_);}
	.st11{filter:url(#Adobe_OpacityMaskFilter_5_);}
	.st12{mask:url(#SVGID_7_);fill:url(#SVGID_8_);}
	.st13{fill:url(#SVGID_9_);}
	.st14{filter:url(#Adobe_OpacityMaskFilter_6_);}
	.st15{filter:url(#Adobe_OpacityMaskFilter_7_);}
	.st16{mask:url(#SVGID_10_);fill:url(#SVGID_11_);}
	.st17{fill:url(#SVGID_12_);}
	.st18{filter:url(#Adobe_OpacityMaskFilter_8_);}
	.st19{filter:url(#Adobe_OpacityMaskFilter_9_);}
	.st20{mask:url(#SVGID_13_);fill:url(#SVGID_14_);}
	.st21{fill:url(#SVGID_15_);}
	.st22{filter:url(#Adobe_OpacityMaskFilter_10_);}
	.st23{filter:url(#Adobe_OpacityMaskFilter_11_);}
	.st24{mask:url(#SVGID_16_);fill:url(#SVGID_17_);}
	.st25{fill:url(#SVGID_18_);}
	.st26{filter:url(#Adobe_OpacityMaskFilter_12_);}
	.st27{filter:url(#Adobe_OpacityMaskFilter_13_);}
	.st28{mask:url(#SVGID_19_);fill:url(#SVGID_20_);}
	.st29{fill:url(#SVGID_21_);}
	.st30{filter:url(#Adobe_OpacityMaskFilter_14_);}
	.st31{filter:url(#Adobe_OpacityMaskFilter_15_);}
	.st32{mask:url(#SVGID_22_);fill:url(#SVGID_23_);}
	.st33{fill:url(#SVGID_24_);}
	.st34{filter:url(#Adobe_OpacityMaskFilter_16_);}
	.st35{filter:url(#Adobe_OpacityMaskFilter_17_);}
	.st36{mask:url(#SVGID_25_);fill:url(#SVGID_26_);}
	.st37{fill:url(#SVGID_27_);}
	.st38{filter:url(#Adobe_OpacityMaskFilter_18_);}
	.st39{filter:url(#Adobe_OpacityMaskFilter_19_);}
	.st40{mask:url(#SVGID_28_);fill:url(#SVGID_29_);}
	.st41{fill:url(#SVGID_30_);}
	.st42{filter:url(#Adobe_OpacityMaskFilter_20_);}
	.st43{filter:url(#Adobe_OpacityMaskFilter_21_);}
	.st44{mask:url(#SVGID_31_);fill:url(#SVGID_32_);}
	.st45{fill:url(#SVGID_33_);}
	.st46{filter:url(#Adobe_OpacityMaskFilter_22_);}
	.st47{filter:url(#Adobe_OpacityMaskFilter_23_);}
	.st48{mask:url(#SVGID_34_);fill:url(#SVGID_35_);}
	.st49{fill:url(#SVGID_36_);}
	.st50{fill:url(#SVGID_37_);}
	.st51{fill:#BBBDBF;}
	.st52{fill:#777777;}
	.st53{fill:url(#SVGID_38_);}
	.st54{fill:url(#SVGID_39_);}
	.st55{fill:url(#SVGID_40_);}
	.st56{fill:url(#SVGID_41_);}
	.st57{fill:url(#SVGID_42_);}
	.st58{fill:url(#SVGID_43_);}
	.st59{fill:url(#SVGID_44_);}
	.st60{fill:url(#SVGID_45_);}
	.st61{fill:url(#SVGID_46_);}
	.st62{filter:url(#Adobe_OpacityMaskFilter_24_);}
	.st63{filter:url(#Adobe_OpacityMaskFilter_25_);}
	.st64{mask:url(#SVGID_47_);fill:url(#SVGID_48_);}
	.st65{fill:url(#SVGID_49_);}
	.st66{filter:url(#Adobe_OpacityMaskFilter_26_);}
	.st67{filter:url(#Adobe_OpacityMaskFilter_27_);}
	.st68{mask:url(#SVGID_50_);fill:url(#SVGID_51_);}
	.st69{fill:url(#SVGID_52_);}
	.st70{filter:url(#Adobe_OpacityMaskFilter_28_);}
	.st71{filter:url(#Adobe_OpacityMaskFilter_29_);}
	.st72{mask:url(#SVGID_53_);fill:url(#SVGID_54_);}
	.st73{fill:url(#SVGID_55_);}
	.st74{filter:url(#Adobe_OpacityMaskFilter_30_);}
	.st75{filter:url(#Adobe_OpacityMaskFilter_31_);}
	.st76{mask:url(#SVGID_56_);fill:url(#SVGID_57_);}
	.st77{fill:url(#SVGID_58_);}
	.st78{filter:url(#Adobe_OpacityMaskFilter_32_);}
	.st79{filter:url(#Adobe_OpacityMaskFilter_33_);}
	.st80{mask:url(#SVGID_59_);fill:url(#SVGID_60_);}
	.st81{fill:url(#SVGID_61_);}
	.st82{filter:url(#Adobe_OpacityMaskFilter_34_);}
	.st83{filter:url(#Adobe_OpacityMaskFilter_35_);}
	.st84{mask:url(#SVGID_62_);fill:url(#SVGID_63_);}
	.st85{fill:url(#SVGID_64_);}
	.st86{filter:url(#Adobe_OpacityMaskFilter_36_);}
	.st87{filter:url(#Adobe_OpacityMaskFilter_37_);}
	.st88{mask:url(#SVGID_65_);fill:url(#SVGID_66_);}
	.st89{fill:url(#SVGID_67_);}
	.st90{filter:url(#Adobe_OpacityMaskFilter_38_);}
	.st91{filter:url(#Adobe_OpacityMaskFilter_39_);}
	.st92{mask:url(#SVGID_68_);fill:url(#SVGID_69_);}
	.st93{fill:url(#SVGID_70_);}
	.st94{filter:url(#Adobe_OpacityMaskFilter_40_);}
	.st95{filter:url(#Adobe_OpacityMaskFilter_41_);}
	.st96{mask:url(#SVGID_71_);fill:url(#SVGID_72_);}
	.st97{fill:url(#SVGID_73_);}
	.st98{filter:url(#Adobe_OpacityMaskFilter_42_);}
	.st99{filter:url(#Adobe_OpacityMaskFilter_43_);}
	.st100{mask:url(#SVGID_74_);fill:url(#SVGID_75_);}
	.st101{fill:url(#SVGID_76_);}
	.st102{filter:url(#Adobe_OpacityMaskFilter_44_);}
	.st103{filter:url(#Adobe_OpacityMaskFilter_45_);}
	.st104{mask:url(#SVGID_77_);fill:url(#SVGID_78_);}
	.st105{fill:url(#SVGID_79_);}
	.st106{filter:url(#Adobe_OpacityMaskFilter_46_);}
	.st107{filter:url(#Adobe_OpacityMaskFilter_47_);}
	.st108{mask:url(#SVGID_80_);fill:url(#SVGID_81_);}
	.st109{fill:url(#SVGID_82_);}
	.st110{fill:url(#SVGID_83_);}
	.st111{fill:url(#SVGID_84_);}
	.st112{fill:url(#SVGID_85_);}
	.st113{fill:url(#SVGID_86_);}
	.st114{fill:url(#SVGID_87_);}
	.st115{fill:url(#SVGID_88_);}
	.st116{fill:url(#SVGID_89_);}
	.st117{fill:url(#SVGID_90_);}
	.st118{fill:url(#SVGID_91_);}
	.st119{fill:url(#SVGID_92_);}
</style>
<defs>
</defs>
<defs>
	<filter id="Adobe_OpacityMaskFilter" filterUnits="userSpaceOnUse" x="0" y="0" width="193.6" height="193.6">
		<feFlood  style="flood-color:white;flood-opacity:1" result="back"/>
		<feBlend  in="SourceGraphic" in2="back" mode="normal"/>
	</filter>
</defs>
<mask maskUnits="userSpaceOnUse" x="0" y="0" width="193.6" height="193.6" id="SVGID_1_">
	<g class="st0">
		<defs>
			<filter id="Adobe_OpacityMaskFilter_1_" filterUnits="userSpaceOnUse" x="0" y="0" width="193.6" height="193.6">
				<feFlood  style="flood-color:white;flood-opacity:1" result="back"/>
				<feBlend  in="SourceGraphic" in2="back" mode="normal"/>
			</filter>
		</defs>
		<mask maskUnits="userSpaceOnUse" x="0" y="0" width="193.6" height="193.6" id="SVGID_1_">
			<g class="st1">
			</g>
		</mask>
		<radialGradient id="SVGID_2_" cx="7.9751" cy="15.9178" r="233.8988" gradientUnits="userSpaceOnUse">
			<stop  offset="0" style="stop-color:#666666"/>
			<stop  offset="0.1679" style="stop-color:#606060"/>
			<stop  offset="0.3876" style="stop-color:#505050"/>
			<stop  offset="0.6361" style="stop-color:#353535"/>
			<stop  offset="0.9038" style="stop-color:#0F0F0F"/>
			<stop  offset="1" style="stop-color:#000000"/>
		</radialGradient>
		<circle class="st2" cx="96.8" cy="96.8" r="96.8"/>
	</g>
</mask>
<radialGradient id="SVGID_3_" cx="7.9751" cy="15.9178" r="233.8988" gradientUnits="userSpaceOnUse">
	<stop  offset="0" style="stop-color:#FFFFFF"/>
	<stop  offset="0.3547" style="stop-color:#F9F9F9"/>
	<stop  offset="0.8177" style="stop-color:#E9E9E9"/>
	<stop  offset="1" style="stop-color:#E0E0E0"/>
</radialGradient>
<circle class="st3" cx="96.8" cy="96.8" r="96.8"/>
<defs>
	<filter id="Adobe_OpacityMaskFilter_2_" filterUnits="userSpaceOnUse" x="0" y="0" width="123.8" height="156.7">
		<feFlood  style="flood-color:white;flood-opacity:1" result="back"/>
		<feBlend  in="SourceGraphic" in2="back" mode="normal"/>
	</filter>
</defs>
<mask maskUnits="userSpaceOnUse" x="0" y="0" width="123.8" height="156.7" id="SVGID_4_">
	<g class="st4">
		<defs>
			<filter id="Adobe_OpacityMaskFilter_3_" filterUnits="userSpaceOnUse" x="0" y="0" width="123.8" height="156.7">
				<feFlood  style="flood-color:white;flood-opacity:1" result="back"/>
				<feBlend  in="SourceGraphic" in2="back" mode="normal"/>
			</filter>
		</defs>
		<mask maskUnits="userSpaceOnUse" x="0" y="0" width="123.8" height="156.7" id="SVGID_4_">
			<g class="st5">
			</g>
		</mask>
		<radialGradient id="SVGID_5_" cx="7.975" cy="15.918" r="233.9017" gradientUnits="userSpaceOnUse">
			<stop  offset="0" style="stop-color:#666666"/>
			<stop  offset="0.1679" style="stop-color:#606060"/>
			<stop  offset="0.3876" style="stop-color:#505050"/>
			<stop  offset="0.6361" style="stop-color:#353535"/>
			<stop  offset="0.9038" style="stop-color:#0F0F0F"/>
			<stop  offset="1" style="stop-color:#000000"/>
		</radialGradient>
		<path class="st6" d="M123.8,3.8c-8.6-2.5-17.6-3.8-27-3.8C43.4,0,0,43.3,0,96.8c0,22.6,7.8,43.4,20.8,59.9
			C77.2,127,117.2,70.3,123.8,3.8z"/>
	</g>
</mask>
<radialGradient id="SVGID_6_" cx="7.975" cy="15.918" r="233.9017" gradientUnits="userSpaceOnUse">
	<stop  offset="0" style="stop-color:#FFFFFF"/>
	<stop  offset="0.3547" style="stop-color:#F9F9F9"/>
	<stop  offset="0.8177" style="stop-color:#E9E9E9"/>
	<stop  offset="1" style="stop-color:#E0E0E0"/>
</radialGradient>
<path class="st7" d="M123.8,3.8c-8.6-2.5-17.6-3.8-27-3.8C43.4,0,0,43.3,0,96.8c0,22.6,7.8,43.4,20.8,59.9
	C77.2,127,117.2,70.3,123.8,3.8z"/>
<path class="st8" d="M164.8,27.9c17.2,17.5,27.9,41.5,27.9,68c0,53.5-43.3,96.8-96.8,96.8c-26.5,0-50.5-10.6-68-27.9
	c17.6,17.8,42,28.8,68.9,28.8c53.5,0,96.8-43.3,96.8-96.8C193.6,69.8,182.6,45.4,164.8,27.9z"/>
<path class="st9" d="M1.9,98.8c0-53.5,43.3-96.8,96.8-96.8c26.2,0,50,10.4,67.5,27.4C148.7,11.2,124.1,0,96.8,0
	C43.4,0,0,43.3,0,96.8c0,27.2,11.2,51.8,29.3,69.4C12.4,148.8,1.9,125,1.9,98.8z"/>
<defs>
	<filter id="Adobe_OpacityMaskFilter_4_" filterUnits="userSpaceOnUse" x="36.3" y="36.3" width="130.7" height="130.7">
		<feFlood  style="flood-color:white;flood-opacity:1" result="back"/>
		<feBlend  in="SourceGraphic" in2="back" mode="normal"/>
	</filter>
</defs>
<mask maskUnits="userSpaceOnUse" x="36.3" y="36.3" width="130.7" height="130.7" id="SVGID_7_">
	<g class="st10">
		<defs>
			<filter id="Adobe_OpacityMaskFilter_5_" filterUnits="userSpaceOnUse" x="36.3" y="36.3" width="130.7" height="130.7">
				<feFlood  style="flood-color:white;flood-opacity:1" result="back"/>
				<feBlend  in="SourceGraphic" in2="back" mode="normal"/>
			</filter>
		</defs>
		<mask maskUnits="userSpaceOnUse" x="36.3" y="36.3" width="130.7" height="130.7" id="SVGID_7_">
			<g class="st11">
			</g>
		</mask>
		<radialGradient id="SVGID_8_" cx="101.6791" cy="101.6786" r="65.3548" gradientUnits="userSpaceOnUse">
			<stop  offset="0" style="stop-color:#FFFFFF"/>
			<stop  offset="0.3726" style="stop-color:#FDFDFD"/>
			<stop  offset="0.5069" style="stop-color:#F6F6F6"/>
			<stop  offset="0.6026" style="stop-color:#EBEBEB"/>
			<stop  offset="0.68" style="stop-color:#DADADA"/>
			<stop  offset="0.7463" style="stop-color:#C4C4C4"/>
			<stop  offset="0.805" style="stop-color:#A8A8A8"/>
			<stop  offset="0.8581" style="stop-color:#888888"/>
			<stop  offset="0.9069" style="stop-color:#626262"/>
			<stop  offset="0.9523" style="stop-color:#373737"/>
			<stop  offset="0.9926" style="stop-color:#090909"/>
			<stop  offset="1" style="stop-color:#000000"/>
		</radialGradient>
		<circle class="st12" cx="101.7" cy="101.7" r="65.4"/>
	</g>
</mask>
<radialGradient id="SVGID_9_" cx="101.6791" cy="101.6786" r="65.3548" gradientUnits="userSpaceOnUse">
	<stop  offset="0" style="stop-color:#000000;stop-opacity:0.3"/>
	<stop  offset="0.8587" style="stop-color:#000000;stop-opacity:4.240200e-02"/>
	<stop  offset="1" style="stop-color:#000000;stop-opacity:0"/>
</radialGradient>
<circle class="st13" cx="101.7" cy="101.7" r="65.4"/>
<defs>
	<filter id="Adobe_OpacityMaskFilter_6_" filterUnits="userSpaceOnUse" x="36.3" y="36.3" width="130.7" height="130.7">
		<feFlood  style="flood-color:white;flood-opacity:1" result="back"/>
		<feBlend  in="SourceGraphic" in2="back" mode="normal"/>
	</filter>
</defs>
<mask maskUnits="userSpaceOnUse" x="36.3" y="36.3" width="130.7" height="130.7" id="SVGID_10_">
	<g class="st14">
		<defs>
			<filter id="Adobe_OpacityMaskFilter_7_" filterUnits="userSpaceOnUse" x="36.3" y="36.3" width="130.7" height="130.7">
				<feFlood  style="flood-color:white;flood-opacity:1" result="back"/>
				<feBlend  in="SourceGraphic" in2="back" mode="normal"/>
			</filter>
		</defs>
		<mask maskUnits="userSpaceOnUse" x="36.3" y="36.3" width="130.7" height="130.7" id="SVGID_10_">
			<g class="st15">
			</g>
		</mask>
		<radialGradient id="SVGID_11_" cx="101.6791" cy="101.6786" r="65.3548" gradientUnits="userSpaceOnUse">
			<stop  offset="0" style="stop-color:#FFFFFF"/>
			<stop  offset="0.3726" style="stop-color:#FDFDFD"/>
			<stop  offset="0.5069" style="stop-color:#F6F6F6"/>
			<stop  offset="0.6026" style="stop-color:#EBEBEB"/>
			<stop  offset="0.68" style="stop-color:#DADADA"/>
			<stop  offset="0.7463" style="stop-color:#C4C4C4"/>
			<stop  offset="0.805" style="stop-color:#A8A8A8"/>
			<stop  offset="0.8581" style="stop-color:#888888"/>
			<stop  offset="0.9069" style="stop-color:#626262"/>
			<stop  offset="0.9523" style="stop-color:#373737"/>
			<stop  offset="0.9926" style="stop-color:#090909"/>
			<stop  offset="1" style="stop-color:#000000"/>
		</radialGradient>
		<circle class="st16" cx="101.7" cy="101.7" r="65.4"/>
	</g>
</mask>
<radialGradient id="SVGID_12_" cx="101.6791" cy="101.6786" r="65.3548" gradientUnits="userSpaceOnUse">
	<stop  offset="0" style="stop-color:#000000;stop-opacity:0.3"/>
	<stop  offset="0.8587" style="stop-color:#000000;stop-opacity:4.240200e-02"/>
	<stop  offset="1" style="stop-color:#000000;stop-opacity:0"/>
</radialGradient>
<circle class="st17" cx="101.7" cy="101.7" r="65.4"/>
<defs>
	<filter id="Adobe_OpacityMaskFilter_8_" filterUnits="userSpaceOnUse" x="36.3" y="36.3" width="130.7" height="130.7">
		<feFlood  style="flood-color:white;flood-opacity:1" result="back"/>
		<feBlend  in="SourceGraphic" in2="back" mode="normal"/>
	</filter>
</defs>
<mask maskUnits="userSpaceOnUse" x="36.3" y="36.3" width="130.7" height="130.7" id="SVGID_13_">
	<g class="st18">
		<defs>
			<filter id="Adobe_OpacityMaskFilter_9_" filterUnits="userSpaceOnUse" x="36.3" y="36.3" width="130.7" height="130.7">
				<feFlood  style="flood-color:white;flood-opacity:1" result="back"/>
				<feBlend  in="SourceGraphic" in2="back" mode="normal"/>
			</filter>
		</defs>
		<mask maskUnits="userSpaceOnUse" x="36.3" y="36.3" width="130.7" height="130.7" id="SVGID_13_">
			<g class="st19">
			</g>
		</mask>
		<radialGradient id="SVGID_14_" cx="101.6791" cy="101.6786" r="65.3548" gradientUnits="userSpaceOnUse">
			<stop  offset="0" style="stop-color:#FFFFFF"/>
			<stop  offset="0.3726" style="stop-color:#FDFDFD"/>
			<stop  offset="0.5069" style="stop-color:#F6F6F6"/>
			<stop  offset="0.6026" style="stop-color:#EBEBEB"/>
			<stop  offset="0.68" style="stop-color:#DADADA"/>
			<stop  offset="0.7463" style="stop-color:#C4C4C4"/>
			<stop  offset="0.805" style="stop-color:#A8A8A8"/>
			<stop  offset="0.8581" style="stop-color:#888888"/>
			<stop  offset="0.9069" style="stop-color:#626262"/>
			<stop  offset="0.9523" style="stop-color:#373737"/>
			<stop  offset="0.9926" style="stop-color:#090909"/>
			<stop  offset="1" style="stop-color:#000000"/>
		</radialGradient>
		<circle class="st20" cx="101.7" cy="101.7" r="65.4"/>
	</g>
</mask>
<radialGradient id="SVGID_15_" cx="101.6791" cy="101.6786" r="65.3548" gradientUnits="userSpaceOnUse">
	<stop  offset="0" style="stop-color:#000000;stop-opacity:0.3"/>
	<stop  offset="0.8587" style="stop-color:#000000;stop-opacity:4.240200e-02"/>
	<stop  offset="1" style="stop-color:#000000;stop-opacity:0"/>
</radialGradient>
<circle class="st21" cx="101.7" cy="101.7" r="65.4"/>
<defs>
	<filter id="Adobe_OpacityMaskFilter_10_" filterUnits="userSpaceOnUse" x="36.3" y="36.3" width="130.7" height="130.7">
		<feFlood  style="flood-color:white;flood-opacity:1" result="back"/>
		<feBlend  in="SourceGraphic" in2="back" mode="normal"/>
	</filter>
</defs>
<mask maskUnits="userSpaceOnUse" x="36.3" y="36.3" width="130.7" height="130.7" id="SVGID_16_">
	<g class="st22">
		<defs>
			<filter id="Adobe_OpacityMaskFilter_11_" filterUnits="userSpaceOnUse" x="36.3" y="36.3" width="130.7" height="130.7">
				<feFlood  style="flood-color:white;flood-opacity:1" result="back"/>
				<feBlend  in="SourceGraphic" in2="back" mode="normal"/>
			</filter>
		</defs>
		<mask maskUnits="userSpaceOnUse" x="36.3" y="36.3" width="130.7" height="130.7" id="SVGID_16_">
			<g class="st23">
			</g>
		</mask>
		<radialGradient id="SVGID_17_" cx="101.6791" cy="101.6786" r="65.3548" gradientUnits="userSpaceOnUse">
			<stop  offset="0" style="stop-color:#FFFFFF"/>
			<stop  offset="0.3726" style="stop-color:#FDFDFD"/>
			<stop  offset="0.5069" style="stop-color:#F6F6F6"/>
			<stop  offset="0.6026" style="stop-color:#EBEBEB"/>
			<stop  offset="0.68" style="stop-color:#DADADA"/>
			<stop  offset="0.7463" style="stop-color:#C4C4C4"/>
			<stop  offset="0.805" style="stop-color:#A8A8A8"/>
			<stop  offset="0.8581" style="stop-color:#888888"/>
			<stop  offset="0.9069" style="stop-color:#626262"/>
			<stop  offset="0.9523" style="stop-color:#373737"/>
			<stop  offset="0.9926" style="stop-color:#090909"/>
			<stop  offset="1" style="stop-color:#000000"/>
		</radialGradient>
		<circle class="st24" cx="101.7" cy="101.7" r="65.4"/>
	</g>
</mask>
<radialGradient id="SVGID_18_" cx="101.6791" cy="101.6786" r="65.3548" gradientUnits="userSpaceOnUse">
	<stop  offset="0" style="stop-color:#000000;stop-opacity:0.3"/>
	<stop  offset="0.8587" style="stop-color:#000000;stop-opacity:4.240200e-02"/>
	<stop  offset="1" style="stop-color:#000000;stop-opacity:0"/>
</radialGradient>
<circle class="st25" cx="101.7" cy="101.7" r="65.4"/>
<defs>
	<filter id="Adobe_OpacityMaskFilter_12_" filterUnits="userSpaceOnUse" x="36.3" y="36.3" width="130.7" height="130.7">
		<feFlood  style="flood-color:white;flood-opacity:1" result="back"/>
		<feBlend  in="SourceGraphic" in2="back" mode="normal"/>
	</filter>
</defs>
<mask maskUnits="userSpaceOnUse" x="36.3" y="36.3" width="130.7" height="130.7" id="SVGID_19_">
	<g class="st26">
		<defs>
			<filter id="Adobe_OpacityMaskFilter_13_" filterUnits="userSpaceOnUse" x="36.3" y="36.3" width="130.7" height="130.7">
				<feFlood  style="flood-color:white;flood-opacity:1" result="back"/>
				<feBlend  in="SourceGraphic" in2="back" mode="normal"/>
			</filter>
		</defs>
		<mask maskUnits="userSpaceOnUse" x="36.3" y="36.3" width="130.7" height="130.7" id="SVGID_19_">
			<g class="st27">
			</g>
		</mask>
		<radialGradient id="SVGID_20_" cx="101.6791" cy="101.6786" r="65.3548" gradientUnits="userSpaceOnUse">
			<stop  offset="0" style="stop-color:#FFFFFF"/>
			<stop  offset="0.3726" style="stop-color:#FDFDFD"/>
			<stop  offset="0.5069" style="stop-color:#F6F6F6"/>
			<stop  offset="0.6026" style="stop-color:#EBEBEB"/>
			<stop  offset="0.68" style="stop-color:#DADADA"/>
			<stop  offset="0.7463" style="stop-color:#C4C4C4"/>
			<stop  offset="0.805" style="stop-color:#A8A8A8"/>
			<stop  offset="0.8581" style="stop-color:#888888"/>
			<stop  offset="0.9069" style="stop-color:#626262"/>
			<stop  offset="0.9523" style="stop-color:#373737"/>
			<stop  offset="0.9926" style="stop-color:#090909"/>
			<stop  offset="1" style="stop-color:#000000"/>
		</radialGradient>
		<circle class="st28" cx="101.7" cy="101.7" r="65.4"/>
	</g>
</mask>
<radialGradient id="SVGID_21_" cx="101.6791" cy="101.6786" r="65.3548" gradientUnits="userSpaceOnUse">
	<stop  offset="0" style="stop-color:#000000;stop-opacity:0.3"/>
	<stop  offset="0.8587" style="stop-color:#000000;stop-opacity:4.240200e-02"/>
	<stop  offset="1" style="stop-color:#000000;stop-opacity:0"/>
</radialGradient>
<circle class="st29" cx="101.7" cy="101.7" r="65.4"/>
<defs>
	<filter id="Adobe_OpacityMaskFilter_14_" filterUnits="userSpaceOnUse" x="36.3" y="36.3" width="130.7" height="130.7">
		<feFlood  style="flood-color:white;flood-opacity:1" result="back"/>
		<feBlend  in="SourceGraphic" in2="back" mode="normal"/>
	</filter>
</defs>
<mask maskUnits="userSpaceOnUse" x="36.3" y="36.3" width="130.7" height="130.7" id="SVGID_22_">
	<g class="st30">
		<defs>
			<filter id="Adobe_OpacityMaskFilter_15_" filterUnits="userSpaceOnUse" x="36.3" y="36.3" width="130.7" height="130.7">
				<feFlood  style="flood-color:white;flood-opacity:1" result="back"/>
				<feBlend  in="SourceGraphic" in2="back" mode="normal"/>
			</filter>
		</defs>
		<mask maskUnits="userSpaceOnUse" x="36.3" y="36.3" width="130.7" height="130.7" id="SVGID_22_">
			<g class="st31">
			</g>
		</mask>
		<radialGradient id="SVGID_23_" cx="101.6791" cy="101.6786" r="65.3548" gradientUnits="userSpaceOnUse">
			<stop  offset="0" style="stop-color:#FFFFFF"/>
			<stop  offset="0.3726" style="stop-color:#FDFDFD"/>
			<stop  offset="0.5069" style="stop-color:#F6F6F6"/>
			<stop  offset="0.6026" style="stop-color:#EBEBEB"/>
			<stop  offset="0.68" style="stop-color:#DADADA"/>
			<stop  offset="0.7463" style="stop-color:#C4C4C4"/>
			<stop  offset="0.805" style="stop-color:#A8A8A8"/>
			<stop  offset="0.8581" style="stop-color:#888888"/>
			<stop  offset="0.9069" style="stop-color:#626262"/>
			<stop  offset="0.9523" style="stop-color:#373737"/>
			<stop  offset="0.9926" style="stop-color:#090909"/>
			<stop  offset="1" style="stop-color:#000000"/>
		</radialGradient>
		<circle class="st32" cx="101.7" cy="101.7" r="65.4"/>
	</g>
</mask>
<radialGradient id="SVGID_24_" cx="101.6791" cy="101.6786" r="65.3548" gradientUnits="userSpaceOnUse">
	<stop  offset="0" style="stop-color:#000000;stop-opacity:0.3"/>
	<stop  offset="0.8587" style="stop-color:#000000;stop-opacity:4.240200e-02"/>
	<stop  offset="1" style="stop-color:#000000;stop-opacity:0"/>
</radialGradient>
<circle class="st33" cx="101.7" cy="101.7" r="65.4"/>
<defs>
	<filter id="Adobe_OpacityMaskFilter_16_" filterUnits="userSpaceOnUse" x="36.3" y="36.3" width="130.7" height="130.7">
		<feFlood  style="flood-color:white;flood-opacity:1" result="back"/>
		<feBlend  in="SourceGraphic" in2="back" mode="normal"/>
	</filter>
</defs>
<mask maskUnits="userSpaceOnUse" x="36.3" y="36.3" width="130.7" height="130.7" id="SVGID_25_">
	<g class="st34">
		<defs>
			<filter id="Adobe_OpacityMaskFilter_17_" filterUnits="userSpaceOnUse" x="36.3" y="36.3" width="130.7" height="130.7">
				<feFlood  style="flood-color:white;flood-opacity:1" result="back"/>
				<feBlend  in="SourceGraphic" in2="back" mode="normal"/>
			</filter>
		</defs>
		<mask maskUnits="userSpaceOnUse" x="36.3" y="36.3" width="130.7" height="130.7" id="SVGID_25_">
			<g class="st35">
			</g>
		</mask>
		<radialGradient id="SVGID_26_" cx="101.6791" cy="101.6786" r="65.3548" gradientUnits="userSpaceOnUse">
			<stop  offset="0" style="stop-color:#FFFFFF"/>
			<stop  offset="0.3726" style="stop-color:#FDFDFD"/>
			<stop  offset="0.5069" style="stop-color:#F6F6F6"/>
			<stop  offset="0.6026" style="stop-color:#EBEBEB"/>
			<stop  offset="0.68" style="stop-color:#DADADA"/>
			<stop  offset="0.7463" style="stop-color:#C4C4C4"/>
			<stop  offset="0.805" style="stop-color:#A8A8A8"/>
			<stop  offset="0.8581" style="stop-color:#888888"/>
			<stop  offset="0.9069" style="stop-color:#626262"/>
			<stop  offset="0.9523" style="stop-color:#373737"/>
			<stop  offset="0.9926" style="stop-color:#090909"/>
			<stop  offset="1" style="stop-color:#000000"/>
		</radialGradient>
		<circle class="st36" cx="101.7" cy="101.7" r="65.4"/>
	</g>
</mask>
<radialGradient id="SVGID_27_" cx="101.6791" cy="101.6786" r="65.3548" gradientUnits="userSpaceOnUse">
	<stop  offset="0" style="stop-color:#000000;stop-opacity:0.3"/>
	<stop  offset="0.8587" style="stop-color:#000000;stop-opacity:4.240200e-02"/>
	<stop  offset="1" style="stop-color:#000000;stop-opacity:0"/>
</radialGradient>
<circle class="st37" cx="101.7" cy="101.7" r="65.4"/>
<defs>
	<filter id="Adobe_OpacityMaskFilter_18_" filterUnits="userSpaceOnUse" x="36.3" y="36.3" width="130.7" height="130.7">
		<feFlood  style="flood-color:white;flood-opacity:1" result="back"/>
		<feBlend  in="SourceGraphic" in2="back" mode="normal"/>
	</filter>
</defs>
<mask maskUnits="userSpaceOnUse" x="36.3" y="36.3" width="130.7" height="130.7" id="SVGID_28_">
	<g class="st38">
		<defs>
			<filter id="Adobe_OpacityMaskFilter_19_" filterUnits="userSpaceOnUse" x="36.3" y="36.3" width="130.7" height="130.7">
				<feFlood  style="flood-color:white;flood-opacity:1" result="back"/>
				<feBlend  in="SourceGraphic" in2="back" mode="normal"/>
			</filter>
		</defs>
		<mask maskUnits="userSpaceOnUse" x="36.3" y="36.3" width="130.7" height="130.7" id="SVGID_28_">
			<g class="st39">
			</g>
		</mask>
		<radialGradient id="SVGID_29_" cx="101.6791" cy="101.6786" r="65.3548" gradientUnits="userSpaceOnUse">
			<stop  offset="0" style="stop-color:#FFFFFF"/>
			<stop  offset="0.3726" style="stop-color:#FDFDFD"/>
			<stop  offset="0.5069" style="stop-color:#F6F6F6"/>
			<stop  offset="0.6026" style="stop-color:#EBEBEB"/>
			<stop  offset="0.68" style="stop-color:#DADADA"/>
			<stop  offset="0.7463" style="stop-color:#C4C4C4"/>
			<stop  offset="0.805" style="stop-color:#A8A8A8"/>
			<stop  offset="0.8581" style="stop-color:#888888"/>
			<stop  offset="0.9069" style="stop-color:#626262"/>
			<stop  offset="0.9523" style="stop-color:#373737"/>
			<stop  offset="0.9926" style="stop-color:#090909"/>
			<stop  offset="1" style="stop-color:#000000"/>
		</radialGradient>
		<circle class="st40" cx="101.7" cy="101.7" r="65.4"/>
	</g>
</mask>
<radialGradient id="SVGID_30_" cx="101.6791" cy="101.6786" r="65.3548" gradientUnits="userSpaceOnUse">
	<stop  offset="0" style="stop-color:#000000;stop-opacity:0.3"/>
	<stop  offset="0.8587" style="stop-color:#000000;stop-opacity:4.240200e-02"/>
	<stop  offset="1" style="stop-color:#000000;stop-opacity:0"/>
</radialGradient>
<circle class="st41" cx="101.7" cy="101.7" r="65.4"/>
<defs>
	<filter id="Adobe_OpacityMaskFilter_20_" filterUnits="userSpaceOnUse" x="29.3" y="29.8" width="133.7" height="133.7">
		<feFlood  style="flood-color:white;flood-opacity:1" result="back"/>
		<feBlend  in="SourceGraphic" in2="back" mode="normal"/>
	</filter>
</defs>
<mask maskUnits="userSpaceOnUse" x="29.3" y="29.8" width="133.7" height="133.7" id="SVGID_31_">
	<g class="st42">
		<defs>
			<filter id="Adobe_OpacityMaskFilter_21_" filterUnits="userSpaceOnUse" x="29.3" y="29.8" width="133.7" height="133.7">
				<feFlood  style="flood-color:white;flood-opacity:1" result="back"/>
				<feBlend  in="SourceGraphic" in2="back" mode="normal"/>
			</filter>
		</defs>
		<mask maskUnits="userSpaceOnUse" x="29.3" y="29.8" width="133.7" height="133.7" id="SVGID_31_">
			<g class="st43">
			</g>
		</mask>
		<radialGradient id="SVGID_32_" cx="96.1618" cy="96.6786" r="66.8374" gradientUnits="userSpaceOnUse">
			<stop  offset="0" style="stop-color:#FFFFFF"/>
			<stop  offset="0.3726" style="stop-color:#FDFDFD"/>
			<stop  offset="0.5069" style="stop-color:#F6F6F6"/>
			<stop  offset="0.6026" style="stop-color:#EBEBEB"/>
			<stop  offset="0.68" style="stop-color:#DADADA"/>
			<stop  offset="0.7463" style="stop-color:#C4C4C4"/>
			<stop  offset="0.805" style="stop-color:#A8A8A8"/>
			<stop  offset="0.8581" style="stop-color:#888888"/>
			<stop  offset="0.9069" style="stop-color:#626262"/>
			<stop  offset="0.9523" style="stop-color:#373737"/>
			<stop  offset="0.9926" style="stop-color:#090909"/>
			<stop  offset="1" style="stop-color:#000000"/>
		</radialGradient>
		<circle class="st44" cx="96.2" cy="96.7" r="66.8"/>
	</g>
</mask>
<radialGradient id="SVGID_33_" cx="96.1618" cy="96.6786" r="66.8374" gradientUnits="userSpaceOnUse">
	<stop  offset="0" style="stop-color:#000000;stop-opacity:0.3"/>
	<stop  offset="0.8587" style="stop-color:#000000;stop-opacity:4.240200e-02"/>
	<stop  offset="1" style="stop-color:#000000;stop-opacity:0"/>
</radialGradient>
<circle class="st45" cx="96.2" cy="96.7" r="66.8"/>
<defs>
	<filter id="Adobe_OpacityMaskFilter_22_" filterUnits="userSpaceOnUse" x="29.3" y="29.8" width="133.7" height="133.7">
		<feFlood  style="flood-color:white;flood-opacity:1" result="back"/>
		<feBlend  in="SourceGraphic" in2="back" mode="normal"/>
	</filter>
</defs>
<mask maskUnits="userSpaceOnUse" x="29.3" y="29.8" width="133.7" height="133.7" id="SVGID_34_">
	<g class="st46">
		<defs>
			<filter id="Adobe_OpacityMaskFilter_23_" filterUnits="userSpaceOnUse" x="29.3" y="29.8" width="133.7" height="133.7">
				<feFlood  style="flood-color:white;flood-opacity:1" result="back"/>
				<feBlend  in="SourceGraphic" in2="back" mode="normal"/>
			</filter>
		</defs>
		<mask maskUnits="userSpaceOnUse" x="29.3" y="29.8" width="133.7" height="133.7" id="SVGID_34_">
			<g class="st47">
			</g>
		</mask>
		<radialGradient id="SVGID_35_" cx="96.1618" cy="96.6786" r="66.8374" gradientUnits="userSpaceOnUse">
			<stop  offset="0" style="stop-color:#FFFFFF"/>
			<stop  offset="0.3726" style="stop-color:#FDFDFD"/>
			<stop  offset="0.5069" style="stop-color:#F6F6F6"/>
			<stop  offset="0.6026" style="stop-color:#EBEBEB"/>
			<stop  offset="0.68" style="stop-color:#DADADA"/>
			<stop  offset="0.7463" style="stop-color:#C4C4C4"/>
			<stop  offset="0.805" style="stop-color:#A8A8A8"/>
			<stop  offset="0.8581" style="stop-color:#888888"/>
			<stop  offset="0.9069" style="stop-color:#626262"/>
			<stop  offset="0.9523" style="stop-color:#373737"/>
			<stop  offset="0.9926" style="stop-color:#090909"/>
			<stop  offset="1" style="stop-color:#000000"/>
		</radialGradient>
		<circle class="st48" cx="96.2" cy="96.7" r="66.8"/>
	</g>
</mask>
<radialGradient id="SVGID_36_" cx="96.1618" cy="96.6786" r="66.8374" gradientUnits="userSpaceOnUse">
	<stop  offset="0" style="stop-color:#000000;stop-opacity:0.3"/>
	<stop  offset="0.8587" style="stop-color:#000000;stop-opacity:4.240200e-02"/>
	<stop  offset="1" style="stop-color:#000000;stop-opacity:0"/>
</radialGradient>
<circle class="st49" cx="96.2" cy="96.7" r="66.8"/>
<radialGradient id="SVGID_37_" cx="96.8226" cy="96.822" r="65.3548" gradientUnits="userSpaceOnUse">
	<stop  offset="0" style="stop-color:#CCCCCC"/>
	<stop  offset="0.3972" style="stop-color:#D2D2D2"/>
	<stop  offset="0.9158" style="stop-color:#E2E2E2"/>
	<stop  offset="1" style="stop-color:#E6E6E6"/>
</radialGradient>
<circle class="st50" cx="96.8" cy="96.8" r="65.4"/>
<path class="st51" d="M142.5,50.1c11.5,11.8,18.7,27.9,18.7,45.7c0,36.1-29.3,65.4-65.4,65.4c-17.8,0-33.9-7.1-45.7-18.7
	c11.9,12.1,28.4,19.6,46.7,19.6c36.1,0,65.4-29.3,65.4-65.4C162.2,78.5,154.7,62,142.5,50.1z"/>
<path class="st9" d="M33.4,98.8c0-36.1,29.3-65.4,65.4-65.4c17.6,0,33.5,6.9,45.2,18.2c-11.9-12.4-28.6-20.1-47.2-20.1
	c-36.1,0-65.4,29.3-65.4,65.4c0,18.5,7.7,35.3,20.1,47.2C40.3,132.2,33.4,116.3,33.4,98.8z"/>
<g id="GfW3Aw_1_">
	<g>
		<path class="st52" d="M115.9,59.6c0,1.6,0,3.1,0,4.7c0,2.1,0,4.3,0,6.4c0,2,0.8,2.8,2.7,2.8c3.6,0,7.2,0,10.9,0c0.4,0,0.7,0,1.2,0
			c0,0.4,0,0.8,0,1.1c0,17.7,0,35.4,0,53.1c0,2.3-0.6,2.9-2.9,2.9c-15.8,0-31.5,0-47.3,0c-2.2,0-3.1-0.9-3.1-3.1
			c0-21.8,0-43.5,0-65.3c0-1.8,0.8-2.7,2.6-2.7c11.8,0,23.6,0,35.4,0C115.5,59.6,115.6,59.6,115.9,59.6z"/>
		<path class="st52" d="M75.9,130.7c-1.4,0-2.7,0-4.1,0c-0.8,0-1.2-0.7-1.4-1.3c-0.1-0.5-0.2-1-0.2-1.6c0-21.8,0-43.7,0-65.5
			c0-0.4,0-0.8,0.1-1.2c0.2-0.8,0.8-1.4,1.6-1.5c1.2-0.1,2.4,0,3.9,0c-1.3,0.6-1.3,1.5-1.3,2.5c0,20.7,0,41.4,0,62.1
			c0,1.1,0,2.2,0,3.4C74.8,129.1,74.9,129.5,75.9,130.7z"/>
		<path class="st52" d="M68.3,59.6c-1.1,0.6-1,1.6-1,2.7c0.1,4.7,0.1,9.5,0.1,14.2c0,16.2-0.1,32.3-0.1,48.5c0,1-0.1,2,0.1,3
			c0.1,0.9,0.5,1.8,0.8,2.8c-1.1,0-2.5,0.1-3.8,0c-0.4,0-0.9-0.4-1-0.8c-0.3-0.6-0.4-1.3-0.4-1.9c0-22,0-44,0-66
			c0-1.8,0.7-2.4,2.4-2.4C66.3,59.6,67.3,59.6,68.3,59.6z"/>
		<path class="st52" d="M120.4,60.3c3.2,3,6.2,5.8,9.3,8.7c-3.2,0-6.2,0-9.3,0C120.4,66.2,120.4,63.3,120.4,60.3z"/>
	</g>
</g>
<radialGradient id="SVGID_38_" cx="95.938" cy="75.2457" r="9.3102" gradientUnits="userSpaceOnUse">
	<stop  offset="0" style="stop-color:#FAFAFA"/>
	<stop  offset="0.4563" style="stop-color:#F4F4F4"/>
	<stop  offset="1" style="stop-color:#E6E6E6"/>
</radialGradient>
<rect x="84.3" y="69" class="st53" width="23.2" height="12.5"/>
<g>
	<g id="_x35_ih0e1_4_">
		<g>
			<radialGradient id="SVGID_39_" cx="88.5391" cy="92.6889" r="3.367" gradientUnits="userSpaceOnUse">
				<stop  offset="0" style="stop-color:#FAFAFA"/>
				<stop  offset="0.4563" style="stop-color:#F4F4F4"/>
				<stop  offset="1" style="stop-color:#E6E6E6"/>
			</radialGradient>
			<path class="st54" d="M84.9,93.2c0.4-0.4,0.8-0.8,1.1-1.2c0.4,0.4,0.9,0.9,1.3,1.3c1.3-1.3,2.5-2.5,3.7-3.7
				c0.4,0.4,0.8,0.8,1.2,1.2c-1.6,1.6-3.2,3.3-4.8,4.9C86.5,94.8,85.7,94,84.9,93.2z"/>
		</g>
	</g>
	
		<radialGradient id="SVGID_40_" cx="251.1041" cy="21.8097" r="6.2594" gradientTransform="matrix(1.6091 0 0 1.2899 -293.0818 65.4485)" gradientUnits="userSpaceOnUse">
		<stop  offset="0" style="stop-color:#FAFAFA"/>
		<stop  offset="0.4563" style="stop-color:#F4F4F4"/>
		<stop  offset="1" style="stop-color:#E6E6E6"/>
	</radialGradient>
	<rect x="96.8" y="92.2" class="st55" width="28.3" height="2.7"/>
	<g id="_x35_ih0e1_3_">
		<g>
			<radialGradient id="SVGID_41_" cx="88.5391" cy="100.7276" r="3.367" gradientUnits="userSpaceOnUse">
				<stop  offset="0" style="stop-color:#FAFAFA"/>
				<stop  offset="0.4563" style="stop-color:#F4F4F4"/>
				<stop  offset="1" style="stop-color:#E6E6E6"/>
			</radialGradient>
			<path class="st56" d="M84.9,101.3c0.4-0.4,0.8-0.8,1.1-1.2c0.4,0.4,0.9,0.9,1.3,1.3c1.3-1.3,2.5-2.5,3.7-3.7
				c0.4,0.4,0.8,0.8,1.2,1.2c-1.6,1.6-3.2,3.3-4.8,4.9C86.5,102.9,85.7,102.1,84.9,101.3z"/>
		</g>
	</g>
	
		<radialGradient id="SVGID_42_" cx="251.1041" cy="28.0418" r="6.2594" gradientTransform="matrix(1.6091 0 0 1.2899 -293.0818 65.4485)" gradientUnits="userSpaceOnUse">
		<stop  offset="0" style="stop-color:#FAFAFA"/>
		<stop  offset="0.4563" style="stop-color:#F4F4F4"/>
		<stop  offset="1" style="stop-color:#E6E6E6"/>
	</radialGradient>
	<rect x="96.8" y="100.2" class="st57" width="28.3" height="2.7"/>
	<g id="_x35_ih0e1_2_">
		<g>
			<radialGradient id="SVGID_43_" cx="88.5391" cy="108.7663" r="3.367" gradientUnits="userSpaceOnUse">
				<stop  offset="0" style="stop-color:#FAFAFA"/>
				<stop  offset="0.4563" style="stop-color:#F4F4F4"/>
				<stop  offset="1" style="stop-color:#E6E6E6"/>
			</radialGradient>
			<path class="st58" d="M84.9,109.3c0.4-0.4,0.8-0.8,1.1-1.2c0.4,0.4,0.9,0.9,1.3,1.3c1.3-1.3,2.5-2.5,3.7-3.7
				c0.4,0.4,0.8,0.8,1.2,1.2c-1.6,1.6-3.2,3.3-4.8,4.9C86.5,110.9,85.7,110.1,84.9,109.3z"/>
		</g>
	</g>
	
		<radialGradient id="SVGID_44_" cx="251.1041" cy="34.274" r="6.2594" gradientTransform="matrix(1.6091 0 0 1.2899 -293.0818 65.4485)" gradientUnits="userSpaceOnUse">
		<stop  offset="0" style="stop-color:#FAFAFA"/>
		<stop  offset="0.4563" style="stop-color:#F4F4F4"/>
		<stop  offset="1" style="stop-color:#E6E6E6"/>
	</radialGradient>
	<rect x="96.8" y="108.3" class="st59" width="28.3" height="2.7"/>
	<g id="_x35_ih0e1_1_">
		<g>
			<radialGradient id="SVGID_45_" cx="88.5391" cy="116.805" r="3.367" gradientUnits="userSpaceOnUse">
				<stop  offset="0" style="stop-color:#FAFAFA"/>
				<stop  offset="0.4563" style="stop-color:#F4F4F4"/>
				<stop  offset="1" style="stop-color:#E6E6E6"/>
			</radialGradient>
			<path class="st60" d="M84.9,117.4c0.4-0.4,0.8-0.8,1.1-1.2c0.4,0.4,0.9,0.9,1.3,1.3c1.3-1.3,2.5-2.5,3.7-3.7
				c0.4,0.4,0.8,0.8,1.2,1.2c-1.6,1.6-3.2,3.3-4.8,4.9C86.5,119,85.7,118.1,84.9,117.4z"/>
		</g>
	</g>
	
		<radialGradient id="SVGID_46_" cx="251.1041" cy="40.5061" r="6.2594" gradientTransform="matrix(1.6091 0 0 1.2899 -293.0818 65.4485)" gradientUnits="userSpaceOnUse">
		<stop  offset="0" style="stop-color:#FAFAFA"/>
		<stop  offset="0.4563" style="stop-color:#F4F4F4"/>
		<stop  offset="1" style="stop-color:#E6E6E6"/>
	</radialGradient>
	<rect x="96.8" y="116.3" class="st61" width="28.3" height="2.7"/>
</g>
</svg>
