<!-- Generator: Adobe Illustrator 20.1.0, SVG Export Plug-In  -->
<svg version="1.1"
	 xmlns="http://www.w3.org/2000/svg" xmlns:xlink="http://www.w3.org/1999/xlink" xmlns:a="http://ns.adobe.com/AdobeSVGViewerExtensions/3.0/"
	 x="0px" y="0px" width="313.1px" height="27.9px" viewBox="0 0 313.1 27.9"
	 style="overflow:scroll;enable-background:new 0 0 313.1 27.9;" xml:space="preserve">
<style type="text/css">
	.st0{fill:#038342;}
</style>
<defs>
</defs>
<g>
	<g>
		<path class="st0" d="M0.7,18.6c0.8,0.5,2.5,1.2,4.3,1.2c3.4,0,4.4-2.2,4.4-3.8c0-2.7-2.5-3.9-5-3.9H2.9v-2h1.5
			c1.9,0,4.3-1,4.3-3.3c0-1.6-1-2.9-3.4-2.9c-1.6,0-3.1,0.7-3.9,1.3L0.8,3.3c1-0.8,3-1.5,5.1-1.5c3.8,0,5.6,2.3,5.6,4.7
			c0,2-1.2,3.7-3.6,4.6v0.1c2.4,0.5,4.3,2.3,4.3,5c0,3.1-2.4,5.9-7.1,5.9C2.9,22,1,21.3,0,20.6L0.7,18.6z"/>
		<path class="st0" d="M15.7,20.1c0-1.1,0.8-1.9,1.8-1.9s1.8,0.8,1.8,1.9c0,1.1-0.7,1.9-1.8,1.9C16.4,22,15.7,21.1,15.7,20.1z"/>
		<path class="st0" d="M39.4,12.1h-7.9v7.3h8.8v2.2H29V1.4h10.9v2.2h-8.3V10h7.9V12.1z"/>
		<path class="st0" d="M43.9,21.6V9.1h-2v-2h2V6.4c0-2,0.5-3.9,1.7-5.1c1-1,2.3-1.3,3.5-1.3c0.9,0,1.7,0.2,2.3,0.4l-0.4,2
			c-0.4-0.2-0.9-0.3-1.7-0.3c-2.3,0-2.8,2-2.8,4.2v0.8H50v2h-3.5v12.5H43.9z"/>
		<path class="st0" d="M53.5,14.8c0.1,3.6,2.3,5,5,5c1.9,0,3-0.3,4-0.8l0.4,1.9c-0.9,0.4-2.5,0.9-4.8,0.9c-4.5,0-7.1-2.9-7.1-7.3
			s2.6-7.8,6.8-7.8c4.7,0,6,4.2,6,6.8c0,0.5-0.1,1-0.1,1.2H53.5z M61.2,13c0-1.7-0.7-4.3-3.7-4.3c-2.7,0-3.8,2.5-4,4.3H61.2z"/>
		<path class="st0" d="M77.4,21.1c-0.7,0.4-2.2,0.8-4.2,0.8c-4.4,0-7.2-3-7.2-7.4c0-4.5,3.1-7.7,7.8-7.7c1.6,0,2.9,0.4,3.7,0.8
			l-0.6,2c-0.6-0.4-1.6-0.7-3.1-0.7c-3.3,0-5.1,2.5-5.1,5.5c0,3.4,2.2,5.4,5,5.4c1.5,0,2.5-0.4,3.2-0.7L77.4,21.1z"/>
		<path class="st0" d="M84.1,2.9v4.2h3.8v2h-3.8v7.8c0,1.8,0.5,2.8,2,2.8c0.7,0,1.2-0.1,1.5-0.2l0.1,2c-0.5,0.2-1.3,0.4-2.3,0.4
			c-1.2,0-2.2-0.4-2.8-1.1c-0.8-0.8-1-2.1-1-3.8V9.1h-2.3v-2h2.3V3.6L84.1,2.9z"/>
		<path class="st0" d="M103.8,14.2c0,5.4-3.7,7.7-7.2,7.7c-3.9,0-7-2.9-7-7.5c0-4.9,3.2-7.7,7.2-7.7C100.9,6.8,103.8,9.8,103.8,14.2
			z M92.2,14.4c0,3.2,1.8,5.6,4.4,5.6c2.5,0,4.4-2.4,4.4-5.6c0-2.5-1.2-5.6-4.3-5.6S92.2,11.6,92.2,14.4z"/>
		<path class="st0" d="M106.7,18.9c0.8,0.5,2.2,1.1,3.5,1.1c1.9,0,2.8-1,2.8-2.2c0-1.3-0.8-2-2.7-2.7c-2.6-0.9-3.8-2.4-3.8-4.1
			c0-2.3,1.9-4.3,5-4.3c1.5,0,2.8,0.4,3.6,0.9l-0.7,1.9c-0.6-0.4-1.6-0.8-3-0.8c-1.6,0-2.4,0.9-2.4,2c0,1.2,0.9,1.7,2.8,2.5
			c2.5,1,3.8,2.2,3.8,4.4c0,2.5-2,4.3-5.4,4.3c-1.6,0-3.1-0.4-4.1-1L106.7,18.9z"/>
		<path class="st0" d="M125.6,21.6V9.1h-2v-2h2V6.4c0-2,0.4-3.9,1.7-5.1c1-1,2.3-1.3,3.5-1.3c0.9,0,1.7,0.2,2.3,0.4l-0.4,2
			c-0.4-0.2-0.9-0.3-1.7-0.3c-2.3,0-2.8,2-2.8,4.2v0.8h3.5v2h-3.5v12.5H125.6z"/>
		<path class="st0" d="M142.1,21.6l-0.2-1.8h-0.1c-0.8,1.1-2.4,2.2-4.4,2.2c-2.9,0-4.4-2.1-4.4-4.2c0-3.5,3.1-5.4,8.7-5.4v-0.3
			c0-1.2-0.3-3.4-3.3-3.4c-1.3,0-2.8,0.4-3.8,1.1L134,8.1c1.2-0.8,2.9-1.3,4.8-1.3c4.4,0,5.5,3,5.5,5.9v5.4c0,1.3,0.1,2.5,0.2,3.5
			H142.1z M141.7,14.2c-2.9-0.1-6.1,0.4-6.1,3.3c0,1.7,1.1,2.5,2.5,2.5c1.9,0,3.1-1.2,3.5-2.4c0.1-0.3,0.1-0.6,0.1-0.8V14.2z"/>
		<path class="st0" d="M148.6,11.6c0-1.7,0-3.2-0.1-4.5h2.3l0.1,2.9h0.1c0.7-2,2.3-3.2,4-3.2c0.3,0,0.5,0,0.8,0.1v2.5
			c-0.3-0.1-0.5-0.1-0.9-0.1c-1.9,0-3.2,1.4-3.5,3.4c-0.1,0.4-0.1,0.8-0.1,1.2v7.7h-2.6V11.6z"/>
		<path class="st0" d="M158.5,11c0-1.5,0-2.7-0.1-3.9h2.3l0.1,2.3h0.1c0.8-1.4,2.2-2.7,4.6-2.7c2,0,3.5,1.2,4.1,2.9h0.1
			c0.5-0.8,1-1.4,1.6-1.9c0.9-0.7,1.8-1,3.2-1c1.9,0,4.8,1.3,4.8,6.3v8.5h-2.6v-8.2c0-2.8-1-4.5-3.2-4.5c-1.5,0-2.7,1.1-3.1,2.4
			c-0.1,0.4-0.2,0.8-0.2,1.3v9h-2.6v-8.7c0-2.3-1-4-3-4c-1.7,0-2.8,1.3-3.3,2.6c-0.2,0.4-0.2,0.8-0.2,1.3v8.8h-2.6V11z"/>
		<path class="st0" d="M191.5,21.6l-0.2-1.8h-0.1c-0.8,1.1-2.4,2.2-4.4,2.2c-2.9,0-4.4-2.1-4.4-4.2c0-3.5,3.1-5.4,8.7-5.4v-0.3
			c0-1.2-0.3-3.4-3.3-3.4c-1.3,0-2.8,0.4-3.8,1.1l-0.6-1.7c1.2-0.8,2.9-1.3,4.8-1.3c4.4,0,5.5,3,5.5,5.9v5.4c0,1.3,0.1,2.5,0.2,3.5
			H191.5z M191.2,14.2c-2.9-0.1-6.1,0.4-6.1,3.3c0,1.7,1.1,2.5,2.5,2.5c1.9,0,3.1-1.2,3.5-2.4c0.1-0.3,0.2-0.6,0.2-0.8V14.2z"/>
		<path class="st0" d="M208.3,21.1c-0.7,0.4-2.2,0.8-4.2,0.8c-4.4,0-7.2-3-7.2-7.4c0-4.5,3.1-7.7,7.8-7.7c1.6,0,2.9,0.4,3.7,0.8
			l-0.6,2c-0.6-0.4-1.6-0.7-3.1-0.7c-3.3,0-5.1,2.5-5.1,5.5c0,3.4,2.2,5.4,5,5.4c1.5,0,2.5-0.4,3.2-0.7L208.3,21.1z"/>
		<path class="st0" d="M224.4,14.2c0,5.4-3.7,7.7-7.2,7.7c-3.9,0-7-2.9-7-7.5c0-4.9,3.2-7.7,7.2-7.7C221.5,6.8,224.4,9.8,224.4,14.2
			z M212.8,14.4c0,3.2,1.8,5.6,4.4,5.6c2.5,0,4.4-2.4,4.4-5.6c0-2.5-1.2-5.6-4.3-5.6C214.2,8.8,212.8,11.6,212.8,14.4z"/>
		<path class="st0" d="M227.7,0.3h2.6v21.3h-2.6V0.3z"/>
		<path class="st0" d="M247.9,14.2c0,5.4-3.7,7.7-7.2,7.7c-3.9,0-7-2.9-7-7.5c0-4.9,3.2-7.7,7.2-7.7C245.1,6.8,247.9,9.8,247.9,14.2
			z M236.4,14.4c0,3.2,1.8,5.6,4.4,5.6c2.5,0,4.4-2.4,4.4-5.6c0-2.5-1.2-5.6-4.3-5.6S236.4,11.6,236.4,14.4z M244.8,0.8l-3.7,4.3
			h-1.9l2.6-4.3H244.8z"/>
		<path class="st0" d="M263.8,7.1c-0.1,1-0.1,2.2-0.1,4v8.4c0,3.3-0.7,5.4-2.1,6.6c-1.4,1.3-3.5,1.7-5.3,1.7c-1.7,0-3.7-0.4-4.8-1.2
			l0.7-2c1,0.6,2.5,1.1,4.3,1.1c2.7,0,4.7-1.4,4.7-5.1v-1.6H261c-0.8,1.3-2.4,2.4-4.6,2.4c-3.6,0-6.2-3.1-6.2-7.1
			c0-4.9,3.2-7.7,6.5-7.7c2.5,0,3.9,1.3,4.5,2.5h0.1l0.1-2.2H263.8z M261,12.8c0-0.4,0-0.8-0.2-1.2c-0.5-1.5-1.8-2.8-3.7-2.8
			c-2.5,0-4.3,2.1-4.3,5.5c0,2.8,1.4,5.2,4.3,5.2c1.6,0,3.1-1,3.7-2.7c0.1-0.4,0.2-1,0.2-1.4V12.8z"/>
		<path class="st0" d="M270.8,3c0,0.9-0.6,1.6-1.7,1.6c-0.9,0-1.6-0.7-1.6-1.6c0-0.9,0.7-1.7,1.6-1.7C270.1,1.4,270.8,2.1,270.8,3z
			 M267.8,21.6V7.1h2.6v14.5H267.8z"/>
		<path class="st0" d="M285.2,21.1c-0.7,0.4-2.2,0.8-4.2,0.8c-4.4,0-7.2-3-7.2-7.4c0-4.5,3.1-7.7,7.8-7.7c1.6,0,2.9,0.4,3.7,0.8
			l-0.6,2c-0.6-0.4-1.6-0.7-3.1-0.7c-3.3,0-5.1,2.5-5.1,5.5c0,3.4,2.2,5.4,5,5.4c1.5,0,2.5-0.4,3.2-0.7L285.2,21.1z"/>
		<path class="st0" d="M301.3,14.2c0,5.4-3.7,7.7-7.2,7.7c-3.9,0-7-2.9-7-7.5c0-4.9,3.2-7.7,7.2-7.7C298.4,6.8,301.3,9.8,301.3,14.2
			z M289.7,14.4c0,3.2,1.8,5.6,4.4,5.6c2.5,0,4.4-2.4,4.4-5.6c0-2.5-1.2-5.6-4.3-5.6C291.1,8.8,289.7,11.6,289.7,14.4z"/>
		<path class="st0" d="M304.2,18.9c0.8,0.5,2.2,1.1,3.5,1.1c1.9,0,2.8-1,2.8-2.2c0-1.3-0.8-2-2.7-2.7c-2.6-0.9-3.8-2.4-3.8-4.1
			c0-2.3,1.9-4.3,5-4.3c1.5,0,2.8,0.4,3.6,0.9l-0.7,1.9c-0.6-0.4-1.6-0.8-3-0.8c-1.6,0-2.4,0.9-2.4,2c0,1.2,0.9,1.7,2.8,2.5
			c2.5,1,3.8,2.2,3.8,4.4c0,2.5-2,4.3-5.4,4.3c-1.6,0-3.1-0.4-4.1-1L304.2,18.9z"/>
	</g>
</g>
</svg>
