<!-- Generator: Adobe Illustrator 20.1.0, SVG Export Plug-In  -->
<svg version="1.1"
	 xmlns="http://www.w3.org/2000/svg" xmlns:xlink="http://www.w3.org/1999/xlink" xmlns:a="http://ns.adobe.com/AdobeSVGViewerExtensions/3.0/"
	 x="0px" y="0px" width="124.9px" height="21.4px" viewBox="0 0 124.9 21.4"
	 style="overflow:scroll;enable-background:new 0 0 124.9 21.4;" xml:space="preserve">
<style type="text/css">
	.st0{fill:#038342;}
</style>
<defs>
</defs>
<g>
	<g>
		<path class="st0" d="M6.6,21.1L0,0.9h2.8l3.1,10c0.9,2.7,1.6,5.2,2.2,7.6h0.1c0.6-2.3,1.4-4.9,2.3-7.5l3.4-10h2.8L9.5,21.1H6.6z"
			/>
		<path class="st0" d="M21.5,0.9v20.2h-2.6V0.9H21.5z"/>
		<path class="st0" d="M29.9,3.1h-6.2V0.9h15v2.2h-6.2v18h-2.6V3.1z"/>
		<path class="st0" d="M42,14.7l-2.1,6.4h-2.7l6.9-20.2h3.1l6.9,20.2h-2.8l-2.2-6.4H42z M48.6,12.7l-2-5.8c-0.4-1.3-0.8-2.5-1-3.7
			h-0.1c-0.3,1.2-0.6,2.4-1,3.7l-2,5.9H48.6z"/>
		<path class="st0" d="M57.1,21.1V0.9h2.8l6.5,10.2c1.5,2.4,2.7,4.5,3.6,6.6l0.1,0c-0.2-2.7-0.3-5.2-0.3-8.3V0.9h2.5v20.2h-2.6
			l-6.4-10.3c-1.4-2.2-2.8-4.6-3.8-6.7l-0.1,0c0.1,2.6,0.2,5,0.2,8.3v8.6H57.1z"/>
		<path class="st0" d="M91,20.4c-1,0.5-2.9,1-5.3,1c-5.7,0-10-3.6-10-10.2c0-6.3,4.3-10.6,10.6-10.6c2.5,0,4.1,0.5,4.8,0.9l-0.6,2.1
			c-1-0.5-2.4-0.8-4.1-0.8c-4.7,0-7.9,3-7.9,8.3c0,4.9,2.8,8.1,7.8,8.1c1.6,0,3.2-0.3,4.3-0.8L91,20.4z"/>
		<path class="st0" d="M110.9,10.8c0,7-4.2,10.6-9.4,10.6c-5.3,0-9.1-4.1-9.1-10.3c0-6.4,4-10.6,9.4-10.6
			C107.3,0.5,110.9,4.8,110.9,10.8z M95.2,11.1c0,4.3,2.3,8.2,6.4,8.2c4.1,0,6.5-3.8,6.5-8.4c0-4-2.1-8.2-6.4-8.2
			C97.3,2.7,95.2,6.6,95.2,11.1z"/>
	</g>
</g>
<g>
	<path class="st0" d="M124.9,5.4c0,3.1-2.4,5.5-5.6,5.5c-3.1,0-5.6-2.4-5.6-5.5c0-3,2.5-5.4,5.6-5.4C122.5,0,124.9,2.4,124.9,5.4z
		 M115.1,5.4c0,2.4,1.8,4.3,4.2,4.3c2.4,0,4.1-1.9,4.1-4.3c0-2.4-1.8-4.4-4.2-4.4C116.9,1.1,115.1,3,115.1,5.4z M118.5,8.3h-1.3V2.8
		c0.5-0.1,1.2-0.2,2.1-0.2c1,0,1.5,0.2,1.9,0.4c0.3,0.2,0.5,0.7,0.5,1.2c0,0.6-0.5,1.1-1.1,1.3v0.1c0.5,0.2,0.8,0.6,1,1.3
		c0.2,0.8,0.3,1.2,0.4,1.4h-1.4c-0.2-0.2-0.3-0.7-0.4-1.3c-0.1-0.6-0.4-0.9-1.1-0.9h-0.6V8.3z M118.5,5.2h0.6c0.7,0,1.3-0.2,1.3-0.8
		c0-0.5-0.4-0.8-1.2-0.8c-0.3,0-0.6,0-0.7,0.1V5.2z"/>
</g>
</svg>
