<!-- Generator: Adobe Illustrator 20.1.0, SVG Export Plug-In  -->
<svg version="1.1"
	 xmlns="http://www.w3.org/2000/svg" xmlns:xlink="http://www.w3.org/1999/xlink" xmlns:a="http://ns.adobe.com/AdobeSVGViewerExtensions/3.0/"
	 x="0px" y="0px" width="389.8px" height="27.2px" viewBox="0 0 389.8 27.2"
	 style="overflow:scroll;enable-background:new 0 0 389.8 27.2;" xml:space="preserve">
<style type="text/css">
	.st0{fill:#038342;}
</style>
<defs>
</defs>
<g>
	<g>
		<path class="st0" d="M4,4.3L4,4.3L0.5,6.1L0,4.1l4.3-2.3h2.3v19.5H4V4.3z"/>
		<path class="st0" d="M13.8,19.7c0-1.1,0.8-1.9,1.8-1.9s1.8,0.8,1.8,1.9c0,1.1-0.7,1.9-1.8,1.9C14.5,21.6,13.8,20.8,13.8,19.7z"/>
		<path class="st0" d="M37.6,11.8h-7.9v7.3h8.8v2.2H27.1V1.1H38v2.2h-8.3v6.4h7.9V11.8z"/>
		<path class="st0" d="M41.4,18.6c0.8,0.5,2.2,1.1,3.5,1.1c1.9,0,2.8-1,2.8-2.2c0-1.3-0.8-2-2.7-2.7c-2.6-0.9-3.8-2.4-3.8-4.1
			c0-2.3,1.9-4.3,5-4.3c1.5,0,2.8,0.4,3.6,0.9l-0.7,1.9c-0.6-0.4-1.6-0.8-3-0.8c-1.6,0-2.4,0.9-2.4,2c0,1.2,0.9,1.7,2.8,2.5
			c2.5,1,3.8,2.2,3.8,4.4c0,2.5-2,4.3-5.4,4.3c-1.6,0-3.1-0.4-4.1-1L41.4,18.6z"/>
		<path class="st0" d="M56.8,2.6v4.2h3.8v2h-3.8v7.8c0,1.8,0.5,2.8,2,2.8c0.7,0,1.2-0.1,1.5-0.2l0.1,2c-0.5,0.2-1.3,0.4-2.3,0.4
			c-1.2,0-2.2-0.4-2.8-1.1c-0.8-0.8-1-2.1-1-3.8V8.8H52v-2h2.3V3.3L56.8,2.6z"/>
		<path class="st0" d="M63.6,11.3c0-1.7,0-3.2-0.1-4.5h2.3l0.1,2.9H66c0.7-2,2.3-3.2,4-3.2c0.3,0,0.5,0,0.7,0.1V9
			c-0.3-0.1-0.5-0.1-0.9-0.1c-1.9,0-3.2,1.4-3.5,3.4c-0.1,0.4-0.1,0.8-0.1,1.2v7.7h-2.6V11.3z"/>
		<path class="st0" d="M74.6,14.5c0.1,3.6,2.3,5,5,5c1.9,0,3-0.3,4-0.8l0.5,1.9c-0.9,0.4-2.5,0.9-4.8,0.9c-4.5,0-7.1-2.9-7.1-7.3
			s2.6-7.8,6.8-7.8c4.7,0,6,4.2,6,6.8c0,0.5-0.1,1-0.1,1.2H74.6z M82.3,12.6c0-1.7-0.7-4.3-3.7-4.3c-2.7,0-3.8,2.5-4,4.3H82.3z
			 M82.9,0.5l-3.7,4.3h-1.9L80,0.5H82.9z"/>
		<path class="st0" d="M87.8,18.6c0.8,0.5,2.2,1.1,3.5,1.1c1.9,0,2.8-1,2.8-2.2c0-1.3-0.8-2-2.7-2.7c-2.6-0.9-3.8-2.4-3.8-4.1
			c0-2.3,1.9-4.3,5-4.3c1.5,0,2.8,0.4,3.6,0.9l-0.7,1.9c-0.6-0.4-1.6-0.8-3-0.8c-1.6,0-2.4,0.9-2.4,2c0,1.2,0.9,1.7,2.8,2.5
			c2.5,1,3.8,2.2,3.8,4.4c0,2.5-2,4.3-5.4,4.3c-1.6,0-3.1-0.4-4.1-1L87.8,18.6z"/>
		<path class="st0" d="M99.4,9.2c0-1.1,0.8-1.9,1.8-1.9s1.7,0.8,1.8,1.9c0,1.1-0.7,1.9-1.8,1.9C100.1,11,99.4,10.2,99.4,9.2z
			 M99.4,19.8c0-1.1,0.8-1.9,1.8-1.9s1.7,0.8,1.8,1.9c0,1.1-0.7,1.9-1.8,1.9C100.1,21.6,99.4,20.8,99.4,19.8z"/>
		<path class="st0" d="M124.7,17.3c0,1.5,0,2.8,0.1,4h-2.3l-0.2-2.4h-0.1c-0.7,1.2-2.2,2.7-4.8,2.7c-2.3,0-5-1.3-5-6.4V6.8h2.6v8
			c0,2.8,0.8,4.6,3.2,4.6c1.8,0,3-1.2,3.5-2.4c0.2-0.4,0.2-0.9,0.2-1.4V6.8h2.6V17.3z"/>
		<path class="st0" d="M129.1,10.7c0-1.5,0-2.7-0.1-3.9h2.3l0.2,2.4h0.1c0.7-1.4,2.4-2.7,4.8-2.7c2,0,5.1,1.2,5.1,6.2v8.7h-2.6v-8.4
			c0-2.3-0.9-4.3-3.4-4.3c-1.7,0-3.1,1.2-3.5,2.7c-0.1,0.3-0.2,0.8-0.2,1.2v8.7h-2.6V10.7z"/>
		<path class="st0" d="M153.8,21.3l-0.2-1.8h-0.1c-0.8,1.1-2.4,2.2-4.4,2.2c-2.9,0-4.4-2.1-4.4-4.2c0-3.5,3.1-5.4,8.7-5.4v-0.3
			c0-1.2-0.3-3.4-3.3-3.4c-1.3,0-2.8,0.4-3.8,1.1l-0.6-1.7c1.2-0.8,2.9-1.3,4.8-1.3c4.4,0,5.5,3,5.5,5.9v5.4c0,1.3,0.1,2.5,0.2,3.5
			H153.8z M153.4,13.9c-2.9-0.1-6.2,0.4-6.2,3.3c0,1.7,1.1,2.5,2.5,2.5c1.9,0,3.1-1.2,3.5-2.4c0.1-0.3,0.2-0.6,0.2-0.8V13.9z"/>
		<path class="st0" d="M168.1,14.5c0.1,3.6,2.3,5,5,5c1.9,0,3-0.3,4-0.8l0.5,1.9c-0.9,0.4-2.5,0.9-4.8,0.9c-4.5,0-7.1-2.9-7.1-7.3
			s2.6-7.8,6.8-7.8c4.7,0,6,4.2,6,6.8c0,0.5-0.1,1-0.1,1.2H168.1z M175.8,12.6c0-1.7-0.7-4.3-3.7-4.3c-2.7,0-3.8,2.5-4,4.3H175.8z"
			/>
		<path class="st0" d="M181.6,11.5c0-1.9-0.1-3.4-0.1-4.7h2.4l0.1,2.5h0.1c1.1-1.8,2.8-2.8,5.2-2.8c3.5,0,6.1,3,6.1,7.4
			c0,5.2-3.2,7.8-6.6,7.8c-1.9,0-3.6-0.8-4.5-2.3h-0.1v7.9h-2.6V11.5z M184.2,15.4c0,0.4,0.1,0.8,0.1,1.1c0.5,1.8,2.1,3.1,4,3.1
			c2.8,0,4.4-2.3,4.4-5.6c0-2.9-1.5-5.4-4.3-5.4c-1.8,0-3.5,1.3-4,3.3c-0.1,0.3-0.2,0.7-0.2,1.1V15.4z"/>
		<path class="st0" d="M201.6,2.7c0,0.9-0.6,1.6-1.7,1.6c-0.9,0-1.6-0.7-1.6-1.6c0-0.9,0.7-1.7,1.6-1.7C201,1.1,201.6,1.8,201.6,2.7
			z M198.7,21.3V6.8h2.6v14.5H198.7z"/>
		<path class="st0" d="M218.2,0v17.5c0,1.3,0,2.8,0.1,3.8H216l-0.1-2.5h-0.1c-0.8,1.6-2.6,2.9-5,2.9c-3.5,0-6.2-3-6.2-7.4
			c0-4.8,3-7.8,6.5-7.8c2.2,0,3.7,1,4.4,2.2h0.1V0H218.2z M215.6,12.7c0-0.3,0-0.8-0.1-1.1c-0.4-1.7-1.8-3.1-3.8-3.1
			c-2.7,0-4.3,2.4-4.3,5.6c0,2.9,1.4,5.4,4.3,5.4c1.8,0,3.4-1.2,3.9-3.2c0.1-0.4,0.1-0.7,0.1-1.1V12.7z"/>
		<path class="st0" d="M224.1,14.5c0.1,3.6,2.3,5,5,5c1.9,0,3-0.3,4-0.8l0.5,1.9c-0.9,0.4-2.5,0.9-4.8,0.9c-4.5,0-7.1-2.9-7.1-7.3
			s2.6-7.8,6.8-7.8c4.7,0,6,4.2,6,6.8c0,0.5-0.1,1-0.1,1.2H224.1z M231.8,12.6c0-1.7-0.7-4.3-3.7-4.3c-2.7,0-3.8,2.5-4,4.3H231.8z"
			/>
		<path class="st0" d="M237.7,10.7c0-1.5,0-2.7-0.1-3.9h2.3l0.1,2.3h0.1c0.8-1.4,2.2-2.7,4.6-2.7c2,0,3.5,1.2,4.1,2.9h0.1
			c0.5-0.8,1-1.4,1.6-1.9c0.9-0.7,1.8-1,3.2-1c1.9,0,4.8,1.3,4.8,6.3v8.5h-2.6v-8.2c0-2.8-1-4.5-3.1-4.5c-1.5,0-2.7,1.1-3.1,2.4
			c-0.1,0.4-0.2,0.8-0.2,1.3v9h-2.6v-8.7c0-2.3-1-4-3-4c-1.6,0-2.8,1.3-3.3,2.6c-0.2,0.4-0.2,0.8-0.2,1.3v8.8h-2.6V10.7z"/>
		<path class="st0" d="M265.6,2.7c0,0.9-0.6,1.6-1.7,1.6c-0.9,0-1.6-0.7-1.6-1.6c0-0.9,0.7-1.7,1.7-1.7C265,1.1,265.6,1.8,265.6,2.7
			z M262.7,21.3V6.8h2.6v14.5H262.7z"/>
		<path class="st0" d="M277.7,21.3l-0.2-1.8h-0.1c-0.8,1.1-2.4,2.2-4.4,2.2c-2.9,0-4.4-2.1-4.4-4.2c0-3.5,3.1-5.4,8.7-5.4v-0.3
			c0-1.2-0.3-3.4-3.3-3.4c-1.3,0-2.8,0.4-3.8,1.1l-0.6-1.7c1.2-0.8,2.9-1.3,4.8-1.3c4.4,0,5.5,3,5.5,5.9v5.4c0,1.3,0.1,2.5,0.2,3.5
			H277.7z M277.3,13.9c-2.9-0.1-6.1,0.4-6.1,3.3c0,1.7,1.1,2.5,2.5,2.5c1.9,0,3.1-1.2,3.5-2.4c0.1-0.3,0.2-0.6,0.2-0.8V13.9z"/>
		<path class="st0" d="M290.5,10.7c0-1.5,0-2.7-0.1-3.9h2.3l0.1,2.3h0.1c0.8-1.4,2.2-2.7,4.6-2.7c2,0,3.5,1.2,4.1,2.9h0.1
			c0.5-0.8,1-1.4,1.6-1.9c0.9-0.7,1.8-1,3.2-1c1.9,0,4.8,1.3,4.8,6.3v8.5h-2.6v-8.2c0-2.8-1-4.5-3.2-4.5c-1.5,0-2.7,1.1-3.1,2.4
			c-0.1,0.4-0.2,0.8-0.2,1.3v9h-2.6v-8.7c0-2.3-1-4-3-4c-1.7,0-2.8,1.3-3.3,2.6c-0.2,0.4-0.2,0.8-0.2,1.3v8.8h-2.6V10.7z"/>
		<path class="st0" d="M327.7,17.3c0,1.5,0,2.8,0.1,4h-2.3l-0.1-2.4h-0.1c-0.7,1.2-2.2,2.7-4.8,2.7c-2.3,0-5-1.3-5-6.4V6.8h2.6v8
			c0,2.8,0.8,4.6,3.2,4.6c1.8,0,3-1.2,3.5-2.4c0.1-0.4,0.2-0.9,0.2-1.4V6.8h2.6V17.3z"/>
		<path class="st0" d="M332.1,10.7c0-1.5,0-2.7-0.1-3.9h2.3l0.2,2.4h0.1c0.7-1.4,2.4-2.7,4.8-2.7c2,0,5.1,1.2,5.1,6.2v8.7h-2.6v-8.4
			c0-2.3-0.9-4.3-3.4-4.3c-1.7,0-3.1,1.2-3.5,2.7c-0.1,0.3-0.2,0.8-0.2,1.2v8.7h-2.6V10.7z"/>
		<path class="st0" d="M361.3,0v17.5c0,1.3,0,2.8,0.1,3.8H359l-0.1-2.5h-0.1c-0.8,1.6-2.6,2.9-5,2.9c-3.5,0-6.2-3-6.2-7.4
			c0-4.8,3-7.8,6.5-7.8c2.2,0,3.7,1,4.4,2.2h0.1V0H361.3z M358.6,12.7c0-0.3,0-0.8-0.1-1.1c-0.4-1.7-1.8-3.1-3.8-3.1
			c-2.7,0-4.3,2.4-4.3,5.6c0,2.9,1.4,5.4,4.3,5.4c1.8,0,3.4-1.2,3.9-3.2c0.1-0.4,0.1-0.7,0.1-1.1V12.7z"/>
		<path class="st0" d="M368.6,2.7c0,0.9-0.6,1.6-1.7,1.6c-0.9,0-1.6-0.7-1.6-1.6c0-0.9,0.7-1.7,1.6-1.7
			C367.9,1.1,368.6,1.8,368.6,2.7z M365.6,21.3V6.8h2.6v14.5H365.6z"/>
		<path class="st0" d="M380.7,21.3l-0.2-1.8h-0.1c-0.8,1.1-2.4,2.2-4.4,2.2c-2.9,0-4.4-2.1-4.4-4.2c0-3.5,3.1-5.4,8.7-5.4v-0.3
			c0-1.2-0.3-3.4-3.3-3.4c-1.3,0-2.8,0.4-3.8,1.1l-0.6-1.7c1.2-0.8,2.9-1.3,4.8-1.3c4.4,0,5.5,3,5.5,5.9v5.4c0,1.3,0.1,2.5,0.2,3.5
			H380.7z M380.3,13.9c-2.9-0.1-6.1,0.4-6.1,3.3c0,1.7,1.1,2.5,2.5,2.5c1.9,0,3.1-1.2,3.5-2.4c0.1-0.3,0.1-0.6,0.1-0.8V13.9z"/>
		<path class="st0" d="M387.1,0h2.6v21.3h-2.6V0z"/>
	</g>
</g>
</svg>
