<!-- Generator: Adobe Illustrator 20.1.0, SVG Export Plug-In  -->
<svg version="1.1"
	 xmlns="http://www.w3.org/2000/svg" xmlns:xlink="http://www.w3.org/1999/xlink" xmlns:a="http://ns.adobe.com/AdobeSVGViewerExtensions/3.0/"
	 x="0px" y="0px" width="566.8px" height="27.7px" viewBox="0 0 566.8 27.7"
	 style="overflow:scroll;enable-background:new 0 0 566.8 27.7;" xml:space="preserve">
<style type="text/css">
	.st0{fill:#038342;}
</style>
<defs>
</defs>
<g>
	<g>
		<path class="st0" d="M0,21.4v-1.6l2.1-2C7,13,9.3,10.5,9.3,7.6c0-2-1-3.8-3.9-3.8c-1.8,0-3.2,0.9-4.1,1.7L0.5,3.6
			c1.3-1.1,3.3-2,5.5-2c4.2,0,6,2.9,6,5.7c0,3.6-2.6,6.5-6.7,10.5l-1.6,1.4v0.1h8.8v2.2H0z"/>
		<path class="st0" d="M15.6,19.9c0-1.1,0.8-1.9,1.8-1.9s1.8,0.8,1.8,1.9c0,1.1-0.7,1.9-1.8,1.9C16.3,21.8,15.6,20.9,15.6,19.9z"/>
		<path class="st0" d="M31.1,0h9.3c0.5,0,1.1,0,1.8,0.1s1.5,0.3,2.2,0.7c0.7,0.4,1.4,0.9,1.9,1.6s0.8,1.7,0.8,3c0,1.7-0.4,3-1.3,4
			c-0.9,1-2,1.6-3.6,1.8v0.1c0.9,0.3,1.5,0.8,1.8,1.5c0.3,0.7,0.5,1.5,0.5,2.4c0,0.7-0.1,1.5-0.2,2.2c-0.1,0.7-0.2,1.5-0.2,2.2
			c0,0.3,0,0.6,0.1,0.9c0,0.3,0.2,0.6,0.3,0.9h-3.9c-0.1-0.3-0.2-0.5-0.2-0.8c0-0.3,0-0.5,0-0.8c0-0.8,0.1-1.6,0.2-2.4
			s0.2-1.5,0.2-2.3c0-0.6-0.1-1.1-0.3-1.4c-0.2-0.3-0.5-0.6-0.9-0.7s-0.8-0.2-1.3-0.3c-0.5,0-1,0-1.5,0h-4.5l-1.8,8.8h-3.8L31.1,0z
			 M32.8,9.8h5.5c1.6,0,2.8-0.3,3.7-1c0.9-0.7,1.3-1.6,1.3-2.9c0-0.6-0.1-1.1-0.3-1.4c-0.2-0.4-0.5-0.7-0.9-0.9
			c-0.4-0.2-0.8-0.3-1.2-0.4S40,3.1,39.5,3.1h-5.3L32.8,9.8z"/>
		<path class="st0" d="M51.8,0h3.4l-1.7,8.1h0.1c0.6-0.8,1.3-1.4,2.3-1.9s1.9-0.7,2.9-0.7c1.6,0,2.7,0.4,3.4,1.1
			c0.7,0.7,1.1,1.7,1.1,3c0,0.3,0,0.6,0,1c0,0.4-0.1,0.7-0.1,1L61,21.4h-3.4l2-9.6c0.1-0.3,0.1-0.5,0.2-0.8c0-0.2,0.1-0.5,0.1-0.7
			c0-0.1,0-0.3,0-0.6c0-0.3-0.1-0.5-0.2-0.8c-0.1-0.3-0.4-0.5-0.7-0.6s-0.8-0.3-1.4-0.3c-0.7,0-1.3,0.1-1.8,0.4
			c-0.5,0.3-1,0.6-1.4,1.1c-0.4,0.4-0.7,0.9-1,1.5c-0.3,0.6-0.5,1.2-0.6,1.8l-1.7,8.4h-3.4L51.8,0z"/>
		<path class="st0" d="M72.1,21.8c-2.1,0-3.8-0.6-5-1.8c-1.2-1.2-1.8-2.8-1.8-5c0-1.3,0.2-2.5,0.6-3.6c0.4-1.2,1-2.2,1.8-3
			c0.8-0.9,1.7-1.6,2.8-2.1c1.1-0.5,2.3-0.8,3.6-0.8c2.1,0,3.8,0.6,5,1.7c1.2,1.1,1.8,2.8,1.8,5c0,1.4-0.2,2.6-0.6,3.8
			s-1,2.2-1.8,3.1s-1.7,1.6-2.8,2.1C74.7,21.6,73.5,21.8,72.1,21.8z M73.9,8.2c-0.9,0-1.6,0.2-2.3,0.7c-0.7,0.4-1.2,1-1.6,1.7
			c-0.4,0.7-0.8,1.4-1,2.2c-0.2,0.8-0.3,1.6-0.3,2.4c0,1.1,0.3,2.1,0.9,2.9c0.6,0.8,1.5,1.1,2.7,1.1c0.9,0,1.6-0.2,2.3-0.6
			c0.6-0.4,1.2-1,1.6-1.7c0.4-0.7,0.8-1.4,1-2.3s0.3-1.6,0.3-2.4c0-1.1-0.3-2.1-0.9-2.8C76.1,8.6,75.2,8.2,73.9,8.2z"/>
		<path class="st0" d="M96.8,21.4h-3.3l0.5-2.1l-0.1-0.1c-0.7,1-1.4,1.7-2.3,2c-0.8,0.4-1.7,0.5-2.6,0.5c-0.4,0-1-0.1-1.7-0.2
			c-0.7-0.1-1.3-0.4-2-0.8s-1.2-1.1-1.7-1.9c-0.5-0.8-0.7-2-0.7-3.5c0-1.3,0.2-2.5,0.6-3.7c0.4-1.2,0.9-2.3,1.7-3.2
			c0.7-0.9,1.6-1.7,2.6-2.3c1-0.6,2.2-0.9,3.6-0.9c1,0,2,0.2,2.8,0.6c0.8,0.4,1.5,1,1.9,2h0.1l1.7-8h3.4L96.8,21.4z M95.3,11.9
			c0-0.5-0.1-1-0.2-1.4C95,10,94.8,9.6,94.5,9.3c-0.3-0.3-0.6-0.6-1.1-0.8c-0.4-0.2-1-0.3-1.6-0.3c-1,0-1.8,0.2-2.5,0.6
			s-1.2,1-1.7,1.7c-0.4,0.7-0.8,1.5-1,2.4c-0.2,0.9-0.3,1.7-0.3,2.6c0,1.2,0.3,2.1,0.9,2.7c0.6,0.6,1.5,1,2.7,1
			c0.9,0,1.7-0.2,2.3-0.7c0.7-0.5,1.2-1,1.7-1.8c0.5-0.7,0.8-1.5,1-2.3C95.2,13.5,95.3,12.7,95.3,11.9z"/>
		<path class="st0" d="M103.9,5.9h3.4l-3.2,15.5h-3.4L103.9,5.9z M105.1,0h3.4l-0.7,3.2h-3.4L105.1,0z"/>
		<path class="st0" d="M115.4,21.8c-2.1,0-3.8-0.6-5-1.8c-1.2-1.2-1.8-2.8-1.8-5c0-1.3,0.2-2.5,0.6-3.6s1-2.2,1.8-3s1.7-1.6,2.8-2.1
			c1.1-0.5,2.3-0.8,3.6-0.8c2.1,0,3.8,0.6,5,1.7c1.2,1.1,1.8,2.8,1.8,5c0,1.4-0.2,2.6-0.6,3.8s-1,2.2-1.8,3.1
			c-0.8,0.9-1.7,1.6-2.8,2.1C118.1,21.6,116.8,21.8,115.4,21.8z M117.3,8.2c-0.9,0-1.6,0.2-2.3,0.7c-0.7,0.4-1.2,1-1.6,1.7
			s-0.8,1.4-1,2.2c-0.2,0.8-0.3,1.6-0.3,2.4c0,1.1,0.3,2.1,0.9,2.9c0.6,0.8,1.5,1.1,2.7,1.1c0.9,0,1.6-0.2,2.3-0.6
			c0.6-0.4,1.2-1,1.6-1.7s0.8-1.4,1-2.3c0.2-0.8,0.3-1.6,0.3-2.4c0-1.1-0.3-2.1-0.9-2.8C119.4,8.6,118.5,8.2,117.3,8.2z"/>
		<path class="st0" d="M130.2,0h3.4l-4.4,21.4h-3.4L130.2,0z"/>
		<path class="st0" d="M146.8,16.9c-0.1,0.3-0.1,0.5-0.2,0.8c-0.1,0.3-0.1,0.5-0.1,0.7s0,0.4,0.2,0.5c0.1,0.1,0.3,0.2,0.6,0.2
			c0.2,0,0.4,0,0.6-0.1c0.2-0.1,0.4-0.1,0.6-0.1l-0.5,2.5c-0.4,0.1-0.9,0.2-1.3,0.3c-0.4,0.1-0.9,0.1-1.4,0.1
			c-0.6,0-1.1-0.2-1.4-0.5c-0.4-0.4-0.6-0.8-0.6-1.4c-0.7,0.7-1.5,1.2-2.4,1.5c-0.9,0.3-1.9,0.5-2.8,0.5c-0.6,0-1.3-0.1-1.8-0.3
			c-0.6-0.2-1.1-0.4-1.5-0.8c-0.5-0.3-0.8-0.8-1.1-1.3s-0.4-1.1-0.4-1.8c0-1,0.2-1.8,0.5-2.4s0.8-1.2,1.4-1.6
			c0.6-0.4,1.3-0.7,2.1-0.9s1.6-0.3,2.5-0.4c0.6,0,1.2-0.1,1.7-0.1c0.6-0.1,1.1-0.1,1.7-0.1c0.6,0,1.1-0.2,1.4-0.6
			c0.3-0.4,0.4-0.8,0.4-1.4c0-0.7-0.3-1.2-0.8-1.5c-0.5-0.3-1.1-0.4-1.8-0.4c-0.9,0-1.8,0.2-2.5,0.5c-0.7,0.3-1.2,1-1.4,1.9h-3.2
			c0.2-1,0.5-1.8,0.9-2.4c0.4-0.6,1-1.2,1.6-1.6c0.6-0.4,1.4-0.7,2.2-0.9c0.8-0.2,1.7-0.3,2.6-0.3c1.4,0,2.5,0.1,3.3,0.4
			c0.8,0.3,1.4,0.6,1.7,1c0.4,0.4,0.6,0.8,0.7,1.2c0.1,0.4,0.1,0.8,0.1,1c0,0.6-0.1,1.4-0.3,2.3L146.8,16.9z M136.5,17.2
			c0,0.4,0.1,0.7,0.3,0.9c0.2,0.3,0.4,0.5,0.6,0.6c0.3,0.1,0.5,0.3,0.9,0.3s0.6,0.1,1,0.1c0.8,0,1.5-0.1,2.1-0.4
			c0.6-0.3,1-0.7,1.4-1.1s0.7-1,0.9-1.7c0.2-0.6,0.4-1.3,0.5-2.1l-0.1-0.1c-0.2,0.2-0.6,0.4-1,0.5s-0.8,0.2-1.2,0.2
			c-0.5,0-1,0.1-1.7,0.1c-0.6,0-1.2,0.1-1.8,0.3s-1,0.4-1.4,0.8S136.5,16.5,136.5,17.2z"/>
		<path class="st0" d="M161.2,5.9h3.2l-0.6,3l0.1,0.1c0.2-0.4,0.5-0.8,0.9-1.3c0.3-0.4,0.7-0.8,1.2-1.1c0.4-0.3,0.9-0.6,1.4-0.8
			c0.5-0.2,1-0.3,1.5-0.3c0.3,0,0.6,0,0.8,0s0.5,0,0.8,0.1l-0.7,3.3c-0.2,0-0.4-0.1-0.6-0.1c-0.2,0-0.4,0-0.6,0
			c-0.9,0-1.6,0.2-2.3,0.5c-0.7,0.3-1.2,0.7-1.7,1.3c-0.4,0.5-0.8,1.2-1.1,1.9s-0.5,1.4-0.7,2.2l-1.4,6.9H158L161.2,5.9z"/>
		<path class="st0" d="M176.6,21.8c-2.1,0-3.8-0.6-5-1.8s-1.8-2.8-1.8-5c0-1.3,0.2-2.5,0.6-3.6c0.4-1.2,1-2.2,1.8-3s1.7-1.6,2.8-2.1
			c1.1-0.5,2.3-0.8,3.6-0.8c2.1,0,3.8,0.6,5,1.7c1.2,1.1,1.8,2.8,1.8,5c0,1.4-0.2,2.6-0.6,3.8c-0.4,1.2-1,2.2-1.8,3.1
			c-0.8,0.9-1.7,1.6-2.8,2.1C179.2,21.6,178,21.8,176.6,21.8z M178.4,8.2c-0.9,0-1.6,0.2-2.3,0.7c-0.7,0.4-1.2,1-1.6,1.7
			s-0.8,1.4-1,2.2c-0.2,0.8-0.3,1.6-0.3,2.4c0,1.1,0.3,2.1,0.9,2.9c0.6,0.8,1.5,1.1,2.7,1.1c0.9,0,1.6-0.2,2.3-0.6s1.2-1,1.6-1.7
			s0.8-1.4,1-2.3c0.2-0.8,0.3-1.6,0.3-2.4c0-1.1-0.3-2.1-0.9-2.8C180.6,8.6,179.7,8.2,178.4,8.2z"/>
		<path class="st0" d="M197.8,10.4c0-0.8-0.3-1.4-0.9-1.7c-0.6-0.4-1.3-0.5-2.2-0.5c-0.3,0-0.7,0-1,0.1c-0.3,0.1-0.6,0.2-0.8,0.3
			c-0.3,0.2-0.5,0.4-0.6,0.6c-0.1,0.3-0.2,0.6-0.2,0.9c0,0.4,0.1,0.7,0.4,0.9c0.3,0.2,0.6,0.4,1.1,0.6c0.4,0.2,0.9,0.3,1.5,0.5
			s1.1,0.3,1.6,0.5c0.5,0.2,0.9,0.4,1.3,0.6s0.8,0.5,1.2,0.8c0.3,0.3,0.6,0.7,0.8,1.2c0.2,0.4,0.3,1,0.3,1.6c0,0.9-0.2,1.7-0.6,2.3
			c-0.4,0.6-0.9,1.2-1.6,1.6c-0.6,0.4-1.4,0.7-2.2,0.9c-0.8,0.2-1.7,0.3-2.5,0.3c-0.9,0-1.7-0.1-2.5-0.3s-1.5-0.5-2-0.9
			c-0.6-0.4-1-1-1.4-1.6c-0.3-0.7-0.5-1.6-0.5-2.6h3.2c0,0.5,0.1,0.9,0.2,1.2c0.2,0.4,0.4,0.6,0.7,0.8c0.3,0.2,0.7,0.4,1.1,0.5
			c0.4,0.1,0.9,0.2,1.4,0.2c0.4,0,0.7,0,1.1-0.1c0.4-0.1,0.7-0.2,1.1-0.3c0.3-0.2,0.6-0.4,0.8-0.7c0.2-0.3,0.3-0.7,0.3-1.1
			c0-0.4-0.1-0.7-0.4-1c-0.3-0.3-0.7-0.5-1.1-0.7c-0.4-0.2-1-0.4-1.5-0.5s-1.1-0.3-1.7-0.5c-0.5-0.2-0.9-0.3-1.3-0.6
			s-0.8-0.5-1.1-0.8c-0.3-0.3-0.6-0.7-0.8-1.1s-0.3-0.9-0.3-1.5c0-0.8,0.2-1.6,0.6-2.2c0.4-0.6,0.9-1.1,1.5-1.5
			c0.6-0.4,1.3-0.7,2-0.8c0.8-0.2,1.5-0.3,2.3-0.3c0.8,0,1.6,0.1,2.4,0.2c0.7,0.1,1.4,0.4,1.9,0.8s1,0.9,1.3,1.5s0.5,1.4,0.4,2.4
			H197.8z"/>
		<path class="st0" d="M216.8,16.6c-0.5,1.8-1.5,3.1-2.7,4c-1.3,0.8-2.9,1.2-4.7,1.2c-1,0-1.9-0.2-2.7-0.5s-1.5-0.8-2.1-1.4
			c-0.6-0.6-1.1-1.3-1.4-2.1c-0.3-0.8-0.5-1.8-0.5-2.8c0-1.2,0.2-2.4,0.6-3.5c0.4-1.1,0.9-2.2,1.7-3.1c0.7-0.9,1.6-1.6,2.7-2.2
			c1.1-0.6,2.3-0.8,3.7-0.8c1.4,0,2.5,0.2,3.4,0.7c0.9,0.5,1.5,1,2,1.7c0.5,0.7,0.8,1.5,1,2.3s0.3,1.6,0.3,2.4c0,0.4,0,0.7-0.1,1
			c0,0.3-0.1,0.6-0.1,0.9H206c0,0.2-0.1,0.3-0.1,0.5s0,0.3,0,0.5c0,1.1,0.3,1.9,0.9,2.6s1.5,1,2.8,1c0.9,0,1.7-0.2,2.4-0.6
			c0.7-0.4,1.1-1.1,1.4-1.9H216.8z M214.3,12.3c0-0.2,0-0.3,0-0.5c0-0.2,0-0.3,0-0.5c0-0.9-0.3-1.7-0.9-2.3
			c-0.6-0.6-1.4-0.9-2.4-0.9c-1.3,0-2.3,0.4-3.1,1.2c-0.8,0.8-1.3,1.8-1.7,3H214.3z"/>
		<path class="st0" d="M232.3,16.9c-0.1,0.3-0.1,0.5-0.2,0.8c-0.1,0.3-0.1,0.5-0.1,0.7s0,0.4,0.2,0.5c0.1,0.1,0.3,0.2,0.6,0.2
			c0.2,0,0.4,0,0.6-0.1c0.2-0.1,0.4-0.1,0.6-0.1l-0.5,2.5c-0.4,0.1-0.9,0.2-1.3,0.3c-0.4,0.1-0.9,0.1-1.4,0.1
			c-0.6,0-1.1-0.2-1.4-0.5c-0.4-0.4-0.6-0.8-0.6-1.4c-0.7,0.7-1.5,1.2-2.4,1.5c-0.9,0.3-1.9,0.5-2.8,0.5c-0.6,0-1.3-0.1-1.8-0.3
			c-0.6-0.2-1.1-0.4-1.5-0.8c-0.5-0.3-0.8-0.8-1.1-1.3s-0.4-1.1-0.4-1.8c0-1,0.2-1.8,0.5-2.4s0.8-1.2,1.4-1.6
			c0.6-0.4,1.3-0.7,2.1-0.9s1.6-0.3,2.5-0.4c0.6,0,1.2-0.1,1.7-0.1c0.6-0.1,1.1-0.1,1.7-0.1c0.6,0,1.1-0.2,1.4-0.6
			c0.3-0.4,0.4-0.8,0.4-1.4c0-0.7-0.3-1.2-0.8-1.5c-0.5-0.3-1.1-0.4-1.8-0.4c-0.9,0-1.8,0.2-2.5,0.5c-0.7,0.3-1.2,1-1.4,1.9h-3.2
			c0.2-1,0.5-1.8,0.9-2.4c0.4-0.6,1-1.2,1.6-1.6c0.6-0.4,1.4-0.7,2.2-0.9c0.8-0.2,1.7-0.3,2.6-0.3c1.4,0,2.5,0.1,3.3,0.4
			c0.8,0.3,1.4,0.6,1.7,1c0.4,0.4,0.6,0.8,0.7,1.2c0.1,0.4,0.1,0.8,0.1,1c0,0.6-0.1,1.4-0.3,2.3L232.3,16.9z M222.1,17.2
			c0,0.4,0.1,0.7,0.3,0.9c0.2,0.3,0.4,0.5,0.6,0.6c0.3,0.1,0.5,0.3,0.9,0.3s0.6,0.1,1,0.1c0.8,0,1.5-0.1,2.1-0.4
			c0.6-0.3,1-0.7,1.4-1.1s0.7-1,0.9-1.7c0.2-0.6,0.4-1.3,0.5-2.1l-0.1-0.1c-0.2,0.2-0.6,0.4-1,0.5s-0.8,0.2-1.2,0.2
			c-0.5,0-1,0.1-1.7,0.1c-0.6,0-1.2,0.1-1.8,0.3s-1,0.4-1.4,0.8S222.1,16.5,222.1,17.2z"/>
		<path class="st0" d="M237.1,9.3c0-1.1,0.8-1.9,1.8-1.9s1.7,0.8,1.8,1.9c0,1.1-0.7,1.9-1.8,1.9C237.9,11.2,237.1,10.4,237.1,9.3z
			 M237.1,19.9c0-1.1,0.8-1.9,1.8-1.9s1.7,0.8,1.8,1.9c0,1.1-0.7,1.9-1.8,1.9C237.9,21.8,237.1,20.9,237.1,19.9z"/>
		<path class="st0" d="M262.5,17.5c0,1.5,0,2.8,0.1,4h-2.3l-0.2-2.4h-0.1c-0.7,1.2-2.2,2.7-4.8,2.7c-2.3,0-5-1.3-5-6.4V6.9h2.6v8
			c0,2.8,0.8,4.6,3.2,4.6c1.8,0,3-1.2,3.5-2.4c0.2-0.4,0.2-0.9,0.2-1.4V6.9h2.6V17.5z"/>
		<path class="st0" d="M266.9,10.8c0-1.5,0-2.7-0.1-3.9h2.3l0.2,2.4h0.1c0.7-1.4,2.4-2.7,4.8-2.7c2,0,5.1,1.2,5.1,6.2v8.7h-2.6V13
			c0-2.3-0.9-4.3-3.4-4.3c-1.7,0-3.1,1.2-3.5,2.7c-0.1,0.3-0.2,0.8-0.2,1.2v8.7h-2.6V10.8z"/>
		<path class="st0" d="M297.9,21.4l-0.2-1.8h-0.1c-0.8,1.1-2.4,2.2-4.4,2.2c-2.9,0-4.4-2.1-4.4-4.2c0-3.5,3.1-5.4,8.7-5.4v-0.3
			c0-1.2-0.3-3.4-3.3-3.4c-1.4,0-2.8,0.4-3.8,1.1l-0.6-1.7c1.2-0.8,2.9-1.3,4.8-1.3c4.4,0,5.5,3,5.5,5.9v5.4c0,1.3,0.1,2.5,0.2,3.5
			H297.9z M297.5,14c-2.9-0.1-6.2,0.4-6.2,3.3c0,1.7,1.1,2.5,2.5,2.5c1.9,0,3.1-1.2,3.5-2.4c0.1-0.3,0.2-0.6,0.2-0.8V14z"/>
		<path class="st0" d="M316.9,0.1v17.5c0,1.3,0,2.8,0.1,3.8h-2.4l-0.1-2.5h-0.1c-0.8,1.6-2.6,2.9-5,2.9c-3.5,0-6.2-3-6.2-7.4
			c0-4.8,3-7.8,6.5-7.8c2.2,0,3.7,1,4.4,2.2h0.1V0.1H316.9z M314.2,12.8c0-0.3,0-0.8-0.1-1.1c-0.4-1.7-1.8-3.1-3.8-3.1
			c-2.7,0-4.3,2.4-4.3,5.6c0,2.9,1.4,5.4,4.3,5.4c1.8,0,3.4-1.2,3.9-3.2c0.1-0.4,0.1-0.7,0.1-1.1V12.8z"/>
		<path class="st0" d="M329.3,21.4l-0.2-1.8H329c-0.8,1.1-2.4,2.2-4.4,2.2c-2.9,0-4.4-2.1-4.4-4.2c0-3.5,3.1-5.4,8.7-5.4v-0.3
			c0-1.2-0.3-3.4-3.3-3.4c-1.3,0-2.8,0.4-3.8,1.1l-0.6-1.7c1.2-0.8,2.9-1.3,4.8-1.3c4.4,0,5.5,3,5.5,5.9v5.4c0,1.3,0.1,2.5,0.2,3.5
			H329.3z M328.9,14c-2.9-0.1-6.1,0.4-6.1,3.3c0,1.7,1.1,2.5,2.5,2.5c1.9,0,3.1-1.2,3.5-2.4c0.1-0.3,0.1-0.6,0.1-0.8V14z"/>
		<path class="st0" d="M335.7,11.6c0-1.9-0.1-3.4-0.1-4.7h2.4l0.1,2.5h0.1c1.1-1.8,2.8-2.8,5.2-2.8c3.5,0,6.2,3,6.2,7.4
			c0,5.2-3.2,7.8-6.6,7.8c-1.9,0-3.6-0.8-4.5-2.3h-0.1v7.9h-2.6V11.6z M338.3,15.5c0,0.4,0.1,0.8,0.1,1.1c0.5,1.8,2.1,3.1,4,3.1
			c2.8,0,4.4-2.3,4.4-5.6c0-2.9-1.5-5.4-4.3-5.4c-1.8,0-3.5,1.3-4,3.3c-0.1,0.3-0.2,0.7-0.2,1.1V15.5z"/>
		<path class="st0" d="M356,2.7v4.2h3.8v2H356v7.8c0,1.8,0.5,2.8,2,2.8c0.7,0,1.2-0.1,1.5-0.2l0.1,2c-0.5,0.2-1.3,0.4-2.3,0.4
			c-1.2,0-2.2-0.4-2.8-1.1c-0.8-0.8-1-2.1-1-3.8V8.9h-2.3v-2h2.3V3.4L356,2.7z"/>
		<path class="st0" d="M375.7,14c0,5.4-3.7,7.7-7.2,7.7c-3.9,0-7-2.9-7-7.5c0-4.9,3.2-7.7,7.2-7.7C372.9,6.6,375.7,9.6,375.7,14z
			 M364.2,14.2c0,3.2,1.8,5.6,4.4,5.6c2.5,0,4.4-2.4,4.4-5.6c0-2.5-1.2-5.6-4.3-5.6C365.5,8.5,364.2,11.4,364.2,14.2z M372.5,0.6
			l-3.7,4.3H367l2.6-4.3H372.5z"/>
		<path class="st0" d="M391.5,6.9c-0.1,1-0.1,2.2-0.1,4v8.4c0,3.3-0.7,5.4-2.1,6.6c-1.4,1.3-3.5,1.7-5.3,1.7c-1.7,0-3.7-0.4-4.8-1.2
			l0.7-2c1,0.6,2.5,1.1,4.3,1.1c2.7,0,4.7-1.4,4.7-5.1v-1.6h-0.1c-0.8,1.3-2.4,2.4-4.6,2.4c-3.6,0-6.2-3.1-6.2-7.1
			c0-4.9,3.2-7.7,6.5-7.7c2.5,0,3.9,1.3,4.5,2.5h0.1l0.1-2.2H391.5z M388.8,12.6c0-0.4,0-0.8-0.2-1.2c-0.5-1.5-1.8-2.8-3.7-2.8
			c-2.5,0-4.3,2.1-4.3,5.5c0,2.8,1.4,5.2,4.3,5.2c1.6,0,3.1-1,3.7-2.7c0.2-0.4,0.2-1,0.2-1.4V12.6z"/>
		<path class="st0" d="M397.3,14.6c0.1,3.6,2.3,5,5,5c1.9,0,3-0.3,4-0.8l0.4,1.9c-0.9,0.4-2.5,0.9-4.8,0.9c-4.5,0-7.1-2.9-7.1-7.3
			s2.6-7.8,6.8-7.8c4.7,0,6,4.2,6,6.8c0,0.5-0.1,1-0.1,1.2H397.3z M405,12.8c0-1.7-0.7-4.3-3.7-4.3c-2.7,0-3.8,2.5-4.1,4.3H405z"/>
		<path class="st0" d="M410.8,10.8c0-1.5,0-2.7-0.1-3.9h2.3l0.2,2.4h0.1c0.7-1.4,2.4-2.7,4.8-2.7c2,0,5.1,1.2,5.1,6.2v8.7h-2.6V13
			c0-2.3-0.9-4.3-3.4-4.3c-1.7,0-3.1,1.2-3.5,2.7c-0.1,0.3-0.2,0.8-0.2,1.2v8.7h-2.6V10.8z"/>
		<path class="st0" d="M440.6,14c0,5.4-3.7,7.7-7.2,7.7c-3.9,0-7-2.9-7-7.5c0-4.9,3.2-7.7,7.2-7.7C437.8,6.6,440.6,9.6,440.6,14z
			 M429.1,14.2c0,3.2,1.8,5.6,4.4,5.6c2.5,0,4.4-2.4,4.4-5.6c0-2.5-1.2-5.6-4.3-5.6C430.4,8.5,429.1,11.4,429.1,14.2z"/>
		<path class="st0" d="M450.3,11.6c0-1.9-0.1-3.4-0.1-4.7h2.4l0.1,2.5h0.1c1.1-1.8,2.8-2.8,5.2-2.8c3.5,0,6.1,3,6.1,7.4
			c0,5.2-3.2,7.8-6.6,7.8c-1.9,0-3.6-0.8-4.5-2.3h-0.1v7.9h-2.6V11.6z M452.9,15.5c0,0.4,0.1,0.8,0.1,1.1c0.5,1.8,2.1,3.1,4,3.1
			c2.8,0,4.4-2.3,4.4-5.6c0-2.9-1.5-5.4-4.3-5.4c-1.8,0-3.5,1.3-4,3.3c-0.1,0.3-0.2,0.7-0.2,1.1V15.5z"/>
		<path class="st0" d="M480.5,14c0,5.4-3.7,7.7-7.2,7.7c-3.9,0-7-2.9-7-7.5c0-4.9,3.2-7.7,7.2-7.7C477.7,6.6,480.5,9.6,480.5,14z
			 M469,14.2c0,3.2,1.8,5.6,4.4,5.6c2.5,0,4.4-2.4,4.4-5.6c0-2.5-1.2-5.6-4.3-5.6S469,11.4,469,14.2z"/>
		<path class="st0" d="M496.4,0.1v17.5c0,1.3,0,2.8,0.1,3.8h-2.4l-0.1-2.5h-0.1c-0.8,1.6-2.6,2.9-4.9,2.9c-3.5,0-6.2-3-6.2-7.4
			c0-4.8,3-7.8,6.5-7.8c2.2,0,3.7,1,4.4,2.2h0.1V0.1H496.4z M493.7,12.8c0-0.3,0-0.8-0.1-1.1c-0.4-1.7-1.8-3.1-3.8-3.1
			c-2.7,0-4.3,2.4-4.3,5.6c0,2.9,1.4,5.4,4.3,5.4c1.8,0,3.4-1.2,3.9-3.2c0.1-0.4,0.1-0.7,0.1-1.1V12.8z"/>
		<path class="st0" d="M502.2,14.6c0.1,3.6,2.3,5,5,5c1.9,0,3-0.3,4-0.8l0.5,1.9c-0.9,0.4-2.5,0.9-4.8,0.9c-4.5,0-7.1-2.9-7.1-7.3
			s2.6-7.8,6.8-7.8c4.7,0,6,4.2,6,6.8c0,0.5-0.1,1-0.1,1.2H502.2z M510,12.8c0-1.7-0.7-4.3-3.7-4.3c-2.7,0-3.8,2.5-4,4.3H510z"/>
		<path class="st0" d="M515.8,11.4c0-1.7,0-3.2-0.1-4.5h2.3l0.1,2.9h0.1c0.7-2,2.3-3.2,4-3.2c0.3,0,0.5,0,0.8,0.1v2.5
			c-0.3-0.1-0.5-0.1-0.9-0.1c-1.9,0-3.2,1.4-3.5,3.4c-0.1,0.4-0.1,0.8-0.1,1.2v7.7h-2.6V11.4z"/>
		<path class="st0" d="M538.4,14c0,5.4-3.7,7.7-7.2,7.7c-3.9,0-7-2.9-7-7.5c0-4.9,3.2-7.7,7.2-7.7C535.6,6.6,538.4,9.6,538.4,14z
			 M526.9,14.2c0,3.2,1.8,5.6,4.4,5.6c2.5,0,4.4-2.4,4.4-5.6c0-2.5-1.2-5.6-4.3-5.6S526.9,11.4,526.9,14.2z"/>
		<path class="st0" d="M541.4,18.7c0.8,0.5,2.2,1.1,3.5,1.1c1.9,0,2.8-1,2.8-2.2c0-1.3-0.8-2-2.7-2.7c-2.6-0.9-3.8-2.4-3.8-4.1
			c0-2.3,1.9-4.3,5-4.3c1.5,0,2.8,0.4,3.6,0.9l-0.7,1.9c-0.6-0.4-1.6-0.8-3-0.8c-1.6,0-2.4,0.9-2.4,2c0,1.2,0.9,1.7,2.8,2.5
			c2.5,1,3.8,2.2,3.8,4.4c0,2.5-2,4.3-5.4,4.3c-1.6,0-3.1-0.4-4.1-1L541.4,18.7z"/>
		<path class="st0" d="M566.8,14c0,5.4-3.7,7.7-7.2,7.7c-3.9,0-7-2.9-7-7.5c0-4.9,3.2-7.7,7.2-7.7C564,6.6,566.8,9.6,566.8,14z
			 M555.3,14.2c0,3.2,1.8,5.6,4.4,5.6c2.5,0,4.4-2.4,4.4-5.6c0-2.5-1.2-5.6-4.3-5.6S555.3,11.4,555.3,14.2z"/>
	</g>
</g>
</svg>
